<svg width="14" height="14" viewBox="0 0 14 14" fill="none" xmlns="http://www.w3.org/2000/svg">
<path fill-rule="evenodd" clip-rule="evenodd" d="M7.0984 5.61386V8.38614C7.0984 8.38614 9.8256 8.38253 10.936 8.38253C10.3347 10.1797 9.39969 11.1584 7.0984 11.1584C4.76949 11.1584 2.95181 9.29662 2.95181 7C2.95181 4.70338 4.76949 2.84159 7.0984 2.84159C8.32973 2.84159 9.12496 3.26839 9.85441 3.86325C10.4383 3.28744 10.3895 3.20537 11.8751 1.82193C10.614 0.690013 8.93794 0 7.0984 0C3.17804 0 0 3.13399 0 7C0 10.8659 3.17804 14 7.0984 14C12.9582 14 14.3905 8.96831 13.9157 5.61386H7.0984Z" fill="white"/>
</svg>
