<svg width="19" height="11" viewBox="0 0 19 11" fill="none" xmlns="http://www.w3.org/2000/svg">
<path d="M9.13963 0.670237C8.19871 0.660227 7.39793 0.670237 6.94749 0.890452C6.6472 1.03559 6.41697 1.36592 6.55711 1.38093C6.73228 1.40596 7.12767 1.49104 7.33787 1.77632C7.60814 2.14167 7.59812 2.96748 7.59812 2.96748C7.59812 2.96748 7.74827 5.2397 7.23277 5.52497C6.87742 5.72016 6.39195 5.32478 5.34092 3.51802C4.8054 2.58711 4.4 1.56111 4.4 1.56111C4.4 1.56111 4.32493 1.37092 4.1848 1.27082C4.01463 1.1457 3.7794 1.10566 3.7794 1.10566L1.27195 1.12068C1.27195 1.12068 0.896586 1.13569 0.761455 1.29585C0.636332 1.44599 0.751444 1.74128 0.751444 1.74128C0.751444 1.74128 2.71336 6.33076 4.93553 8.64302C6.97251 10.7651 9.28477 10.625 9.28477 10.625H10.3358C10.3358 10.625 10.6511 10.5899 10.8113 10.4198C10.9614 10.2596 10.9564 9.9593 10.9564 9.9593C10.9564 9.9593 10.9364 8.55293 11.587 8.34272C12.2326 8.14253 13.0534 9.70405 13.9293 10.3046C14.595 10.7601 15.1004 10.66 15.1004 10.66L17.4427 10.625C17.4427 10.625 18.6639 10.5499 18.0834 9.58393C18.0383 9.50886 17.748 8.87324 16.3467 7.57197C14.8752 6.21064 15.0704 6.43086 16.8421 4.07356C17.9182 2.63716 18.3486 1.7613 18.2135 1.38093C18.0834 1.02558 17.2926 1.12068 17.2926 1.12068L14.655 1.13569C14.655 1.13569 14.4598 1.11067 14.3147 1.19575C14.1745 1.28083 14.0845 1.48103 14.0845 1.48103C14.0845 1.48103 13.664 2.59211 13.1085 3.53804C11.9374 5.52998 11.4619 5.64009 11.2717 5.51496C10.8263 5.22468 10.9364 4.35383 10.9364 3.73823C10.9364 1.80134 11.2317 1.00056 10.3658 0.790354C10.0805 0.720285 9.87034 0.675242 9.13963 0.670237Z" fill="white"/>
</svg>
