<svg width="17" height="10" viewBox="0 0 17 10" fill="none" xmlns="http://www.w3.org/2000/svg">
<path d="M14.3337 6.83333C15.6254 8.03333 15.8921 8.60833 15.9337 8.68333C16.4671 9.56667 15.3504 9.63333 15.3504 9.63333L13.2004 9.66667C13.2004 9.66667 12.7337 9.75833 12.1337 9.34167C11.3254 8.79167 10.5504 7.35 9.97541 7.54167C9.38374 7.73333 9.40041 9.025 9.40041 9.025C9.40041 9.025 9.40041 9.20833 9.26707 9.35C9.11707 9.50833 8.82541 9.45 8.82541 9.45H7.86707C7.86707 9.45 5.74207 9.66667 3.88374 7.725C1.84207 5.60833 0.0420745 1.44167 0.0420745 1.44167C0.0420745 1.44167 -0.0579255 1.19167 0.0504078 1.05C0.175408 0.916667 0.525408 0.916667 0.525408 0.916667H2.82541C2.82541 0.916667 3.05041 0.916667 3.19207 1.05C3.31707 1.14167 3.39207 1.33333 3.39207 1.33333C3.39207 1.33333 3.75874 2.25833 4.25874 3.10833C5.21707 4.76667 5.65874 5.125 5.96707 4.95C6.46707 4.69167 6.32541 2.60833 6.32541 2.60833C6.32541 2.60833 6.33374 1.85 6.08374 1.51667C5.89207 1.25833 5.52541 1.175 5.36707 1.15833C5.23374 1.14167 5.45041 0.841666 5.72541 0.7C6.14207 0.5 6.86707 0.5 7.73374 0.5C8.40874 0.5 8.60041 0.55 8.85874 0.608333C9.65874 0.8 9.38374 1.54167 9.38374 3.30833C9.38374 3.88333 9.30041 4.66667 9.69207 4.94167C9.86707 5.05833 10.3004 4.95833 11.3837 3.13333C11.8837 2.26667 12.2671 1.24167 12.2671 1.24167C12.2671 1.24167 12.3504 1.06667 12.4754 0.983333C12.6087 0.916667 12.7921 0.916667 12.7921 0.916667H15.2087C15.2087 0.916667 15.9421 0.833333 16.0587 1.15833C16.1837 1.5 15.7837 2.30833 14.7921 3.61667C13.1754 5.78333 12.9921 5.58333 14.3337 6.83333Z" fill="#409690"/>
</svg>
