<svg width="15" height="15" viewBox="0 0 15 15" fill="none" xmlns="http://www.w3.org/2000/svg">
<path d="M4.236 0H10.361C12.6943 0 14.5902 1.89583 14.5902 4.22917V10.3542C14.5902 12.6875 12.6943 14.5833 10.361 14.5833H4.236C1.90267 14.5833 0.00683594 12.6875 0.00683594 10.3542V4.22917C0.00683594 1.89583 1.90267 0 4.236 0ZM4.09017 1.45833C2.63913 1.45833 1.46517 2.63229 1.46517 4.08333V10.5C1.46517 11.951 2.63913 13.125 4.09017 13.125H10.5068C11.9579 13.125 13.1318 11.951 13.1318 10.5V4.08333C13.1318 2.63229 11.9579 1.45833 10.5068 1.45833H4.09017ZM11.1266 2.55208C11.6298 2.55208 12.0381 2.96042 12.0381 3.46354C12.0381 3.96667 11.6298 4.375 11.1266 4.375C10.6235 4.375 10.2152 3.96667 10.2152 3.46354C10.2152 2.96042 10.6235 2.55208 11.1266 2.55208ZM7.2985 3.64583C9.311 3.64583 10.9443 5.27917 10.9443 7.29167C10.9443 9.30417 9.311 10.9375 7.2985 10.9375C5.286 10.9375 3.65267 9.30417 3.65267 7.29167C3.65267 5.27917 5.286 3.64583 7.2985 3.64583ZM7.2985 5.10417C6.08809 5.10417 5.111 6.08125 5.111 7.29167C5.111 8.50208 6.08809 9.47917 7.2985 9.47917C8.50892 9.47917 9.486 8.50208 9.486 7.29167C9.486 6.08125 8.50892 5.10417 7.2985 5.10417Z" fill="#409690"/>
</svg>
