<svg width="17" height="14" viewBox="0 0 17 14" fill="none" xmlns="http://www.w3.org/2000/svg">
<path fill-rule="evenodd" clip-rule="evenodd" d="M17 1.65735C16.3754 1.93846 15.7028 2.12857 14.9974 2.21351C15.7178 1.77667 16.2706 1.084 16.531 0.258868C15.8565 0.663347 15.1111 0.957601 14.3148 1.11535C13.6802 0.428746 12.7732 0 11.7694 0C9.84457 0 8.28297 1.58252 8.28297 3.53413C8.28297 3.81119 8.31291 4.08018 8.37278 4.33904C5.47408 4.19141 2.90468 2.78584 1.18342 0.645142C0.883077 1.16894 0.711446 1.77667 0.711446 2.42384C0.711446 3.64941 1.32711 4.73139 2.26308 5.3654C1.69232 5.34821 1.15349 5.18743 0.682512 4.92452V4.968C0.682512 6.68097 1.8849 8.10979 3.48142 8.43337C3.18906 8.51629 2.88073 8.55774 2.56242 8.55774C2.33791 8.55774 2.11839 8.53651 1.90585 8.49505C2.34988 9.89859 3.63708 10.9209 5.16376 10.9482C3.97035 11.8967 2.46563 12.462 0.832186 12.462C0.550798 12.462 0.272407 12.4458 0 12.4134C1.54364 13.4145 3.37765 14 5.34636 14C11.7624 14 15.2698 8.61538 15.2698 3.94467C15.2698 3.79097 15.2668 3.63727 15.2608 3.4866C15.9423 2.98808 16.534 2.3662 17 1.65735Z" fill="#000000"/>
</svg>
