<svg width="29" height="29" viewBox="0 0 29 29" fill="none" xmlns="http://www.w3.org/2000/svg">
<path d="M14.4062 0.1875C6.56953 0.1875 0.1875 6.56953 0.1875 14.4062C0.1875 22.243 6.56953 28.625 14.4062 28.625C22.243 28.625 28.625 22.243 28.625 14.4062C28.625 6.56953 22.243 0.1875 14.4062 0.1875ZM14.4062 2.375C21.0617 2.375 26.4375 7.75078 26.4375 14.4062C26.4375 17.3375 25.3957 20.0117 23.6676 22.0953C22.7297 19.4293 20.6953 17.2855 18.0977 16.2273C19.1832 15.2266 19.875 13.7992 19.875 12.2188C19.875 9.21094 17.4141 6.75 14.4062 6.75C11.3984 6.75 8.9375 9.21094 8.9375 12.2188C8.9375 13.7992 9.6293 15.2266 10.7148 16.2273C8.11719 17.2855 6.09102 19.4293 5.15312 22.0953C3.4168 20.0117 2.375 17.3375 2.375 14.4062C2.375 7.75078 7.75078 2.375 14.4062 2.375ZM14.4062 8.9375C16.2355 8.9375 17.6875 10.3895 17.6875 12.2188C17.6875 14.048 16.2355 15.5 14.4062 15.5C12.577 15.5 11.125 14.048 11.125 12.2188C11.125 10.3895 12.577 8.9375 14.4062 8.9375ZM14.4062 17.6875C18.1223 17.6875 21.1738 20.3289 21.882 23.8316C19.823 25.4641 17.2336 26.4375 14.4062 26.4375C11.5789 26.4375 8.98945 25.4641 6.93867 23.8316C7.63867 20.3289 10.6902 17.6875 14.4062 17.6875Z" fill="#409690"/>
</svg>
