<svg width="13" height="13" viewBox="0 0 13 13" fill="none" xmlns="http://www.w3.org/2000/svg">
<path d="M11.7202 2.78279L10.3263 1.68337C10.2831 1.64783 10.2298 1.62244 10.1688 1.62244C10.1079 1.62244 10.0521 1.64783 10.0089 1.68591L4.93838 8.20115C4.93838 8.20115 2.94522 6.28415 2.88936 6.2283C2.8335 6.17244 2.75986 6.07849 2.64814 6.07849C2.53643 6.07849 2.48564 6.1572 2.42725 6.2156C2.38408 6.2613 1.67314 7.00779 1.32275 7.37849C1.30244 7.40134 1.28975 7.41404 1.27197 7.43181C1.2415 7.47498 1.22119 7.52322 1.22119 7.57654C1.22119 7.6324 1.2415 7.6781 1.27197 7.72126L1.34307 7.78728C1.34307 7.78728 4.87998 11.1845 4.93838 11.2429C4.99678 11.3013 5.06787 11.375 5.17197 11.375C5.27354 11.375 5.35732 11.2658 5.40557 11.2176L11.7304 3.09255C11.7608 3.04939 11.7812 3.00115 11.7812 2.94529C11.7812 2.88181 11.7558 2.82849 11.7202 2.78279Z" fill="white"/>
</svg>
