<svg width="18" height="34" viewBox="0 0 18 34" fill="none" xmlns="http://www.w3.org/2000/svg">
<path d="M17.8002 16.9875C17.7971 16.7781 17.7127 16.5812 17.5658 16.4343L1.56584 0.434346C1.36584 0.224971 1.06584 0.140595 0.787712 0.215595C0.50646 0.28747 0.287712 0.506221 0.215836 0.78747C0.140837 1.0656 0.225212 1.3656 0.434586 1.5656L15.869 17L0.434584 32.4343C0.225211 32.6343 0.140835 32.9343 0.215834 33.2125C0.287711 33.4937 0.506459 33.7125 0.787711 33.7843C1.06583 33.8593 1.36584 33.775 1.56583 33.5656L17.5658 17.5656C17.719 17.4125 17.8033 17.2031 17.8002 16.9875Z" fill="white"/>
</svg>
