<svg width="32" height="32" viewBox="0 0 32 32" fill="none" xmlns="http://www.w3.org/2000/svg">
<path d="M3 4V11H4C5.11719 11 6 11.8828 6 13C6 14.1172 5.11719 15 4 15H3V22H29V15H28C26.8828 15 26 14.1172 26 13C26 11.8828 26.8828 11 28 11H29V4H3ZM5 6H27V9.1875C25.2891 9.64062 24 11.1523 24 13C24 14.8477 25.2891 16.3594 27 16.8125V20H5V16.8125C6.71094 16.3594 8 14.8477 8 13C8 11.1523 6.71094 9.64062 5 9.1875V6ZM5.5625 23L26.6875 27.1875L27.5 23H25.4688L25.0938 24.8125L15.875 23H5.5625Z" fill="#3EB1A9"/>
</svg>
