<svg width="25" height="25" viewBox="0 0 25 25" fill="none" xmlns="http://www.w3.org/2000/svg">
<path d="M19.5161 23.5001C19.5082 23.5001 19.5004 23.5001 19.4926 23.5001C15.7348 23.377 11.3325 19.7344 8.29925 16.6993C5.26215 13.6641 1.61957 9.25982 1.50238 5.51959C1.45941 4.20709 4.68011 1.8731 4.71332 1.84967C5.54925 1.26764 6.47699 1.47467 6.85785 2.00201C7.11566 2.35943 9.55707 6.05865 9.82269 6.47857C10.0981 6.91412 10.0571 7.56256 9.71332 8.21295C9.52386 8.57428 8.89496 9.67974 8.60004 10.1954C8.9184 10.6485 9.76019 11.7598 11.4985 13.4981C13.2387 15.2364 14.3481 16.0801 14.8032 16.3985C15.3188 16.1036 16.4243 15.4747 16.7856 15.2852C17.4262 14.9454 18.0707 14.9024 18.5102 15.1719C18.9594 15.4473 22.6489 17.9004 22.9887 18.1368C23.2739 18.3379 23.4575 18.6817 23.4946 19.0821C23.5297 19.4864 23.4047 19.9141 23.145 20.2872C23.1235 20.3184 20.8168 23.5001 19.5161 23.5001Z" fill="#3EB1A9"/>
</svg>
