<svg width="16" height="17" viewBox="0 0 16 17" fill="none" xmlns="http://www.w3.org/2000/svg">
<path d="M3.4 0C3.02812 0 2.72 0.308125 2.72 0.68V1.36H0.68C0.502031 1.36 0.321406 1.42508 0.193906 1.55391C0.065078 1.68141 0 1.86203 0 2.04V15.64C0 15.818 0.065078 15.9986 0.193906 16.1274C0.321406 16.2549 0.502031 16.32 0.68 16.32H14.96C15.138 16.32 15.3186 16.2549 15.4474 16.1274C15.5749 15.9986 15.64 15.818 15.64 15.64V2.04C15.64 1.86203 15.5749 1.68141 15.4474 1.55391C15.3186 1.42508 15.138 1.36 14.96 1.36H12.92V0.68C12.92 0.308125 12.6119 0 12.24 0H11.56C11.1881 0 10.88 0.308125 10.88 0.68V1.36H4.76V0.68C4.76 0.308125 4.45187 0 4.08 0H3.4ZM3.4 0.68H4.08V2.72H3.4V0.68ZM11.56 0.68H12.24V2.72H11.56V0.68ZM0.68 2.04H2.72V2.72C2.72 3.09188 3.02812 3.4 3.4 3.4H4.08C4.45187 3.4 4.76 3.09188 4.76 2.72V2.04H10.88V2.72C10.88 3.09188 11.1881 3.4 11.56 3.4H12.24C12.6119 3.4 12.92 3.09188 12.92 2.72V2.04H14.96V4.42H0.68V2.04ZM0.68 5.1H14.96V15.64H0.68V5.1ZM2.72 6.46V14.28H12.92V6.46H2.72ZM3.4 7.14H5.1V8.84H3.4V7.14ZM5.78 7.14H7.48V8.84H5.78V7.14ZM8.16 7.14H9.86V8.84H8.16V7.14ZM10.54 7.14H12.24V8.84H10.54V7.14ZM3.4 9.52H5.1V11.22H3.4V9.52ZM5.78 9.52H7.48V11.22H5.78V9.52ZM8.16 9.52H9.86V11.22H8.16V9.52ZM10.54 9.52H12.24V11.22H10.54V9.52ZM3.4 11.9H5.1V13.6H3.4V11.9ZM5.78 11.9H7.48V13.6H5.78V11.9ZM8.16 11.9H9.86V13.6H8.16V11.9ZM10.54 11.9H12.24V13.6H10.54V11.9Z" fill="#3EB1A9"/>
</svg>
