<svg width="33" height="33" viewBox="0 0 33 33" fill="none" xmlns="http://www.w3.org/2000/svg">
<path d="M9.49532 20.7429H10.9993L11.564 20.2715C9.77728 18.1031 8.64883 15.3684 8.64883 12.2572C8.64892 5.46837 14.1027 0 20.8712 0C27.5471 0 33 5.46837 33 12.2572C33 19.046 27.5471 24.5143 20.7775 24.5143C17.7688 24.5143 14.9483 23.3827 12.7861 21.5917L12.2223 22.0632V23.5715L2.82047 33L0 30.1715L9.49532 20.7429ZM20.7775 20.7429C25.4785 20.7429 29.2392 16.9714 29.2392 12.2572C29.2392 7.54282 25.4785 3.77154 20.7775 3.77154C16.0768 3.77154 12.316 7.54282 12.316 12.2572C12.316 16.9714 16.0768 20.7429 20.7775 20.7429Z" fill="white"/>
</svg>
