<svg width="17" height="17" viewBox="0 0 17 17" fill="none" xmlns="http://www.w3.org/2000/svg">
<path d="M5.15686 10.525H5.87467L6.14419 10.3C5.29143 9.26511 4.75285 7.95991 4.75285 6.47502C4.75289 3.23491 7.35583 0.625 10.5863 0.625C13.7725 0.625 16.375 3.23491 16.375 6.47502C16.375 9.71513 13.7725 12.325 10.5416 12.325C9.10555 12.325 7.75942 11.7849 6.72747 10.9301L6.45836 11.1552V11.8751L1.97113 16.375L0.625 15.025L5.15686 10.525ZM10.5416 10.525C12.7852 10.525 14.5801 8.72497 14.5801 6.47502C14.5801 4.22498 12.7852 2.42505 10.5416 2.42505C8.298 2.42505 6.50307 4.22498 6.50307 6.47502C6.50307 8.72497 8.298 10.525 10.5416 10.525Z" fill="black"/>
</svg>
