<svg width="50" height="50" viewBox="0 0 50 50" fill="none" xmlns="http://www.w3.org/2000/svg">
<path d="M7.96936 25.0937C7.97717 25.1367 7.98889 25.1797 8.00061 25.2187C8.10608 25.6836 8.52405 26.0117 9.00061 26L38.5319 26L29.3444 35.1875C29.1451 35.375 29.0358 35.6328 29.0319 35.9062C29.0358 36.3125 29.2819 36.6758 29.6608 36.8281C30.0358 36.9766 30.4694 36.8867 30.7506 36.5937L41.6569 25.7187L42.3444 25L41.6569 24.2812L30.7506 13.4062C30.5084 13.1094 30.1217 12.9727 29.7467 13.0586C29.3756 13.1445 29.0826 13.4375 28.9967 13.8086C28.9108 14.1836 29.0475 14.5703 29.3444 14.8125L38.5319 24L9.00061 24C8.71155 23.9883 8.4342 24.1055 8.23889 24.3125C8.03967 24.5234 7.94202 24.8086 7.96936 25.0937Z" fill="#409690"/>
</svg>
