<svg width="70" height="70" viewBox="0 0 70 70" fill="none" xmlns="http://www.w3.org/2000/svg">
<g>
<path d="M50.4002 34.9781C50.3948 34.6117 50.2471 34.2672 49.9901 34.0102L21.9901 6.01015C21.6401 5.64374 21.1151 5.49609 20.6284 5.62734C20.1362 5.75312 19.7534 6.13593 19.6276 6.62812C19.4963 7.11484 19.644 7.63984 20.0104 7.98984L47.0206 35L20.0104 62.0102C19.644 62.3602 19.4963 62.8852 19.6276 63.3719C19.7534 63.8641 20.1362 64.2469 20.6284 64.3727C21.1151 64.5039 21.6401 64.3563 21.9901 63.9898L49.9901 35.9898C50.2581 35.7219 50.4057 35.3555 50.4002 34.9781Z" fill="white"/>
</g>
</svg>
