<svg width="20" height="17" viewBox="0 0 20 17" fill="none" xmlns="http://www.w3.org/2000/svg">
<path d="M18.5818 0.140025C18.5668 0.143775 18.5518 0.149399 18.5368 0.155025C18.4112 0.186899 18.3024 0.267525 18.2368 0.380025L8.42682 15.59L1.67682 9.50002C1.5587 9.35003 1.36182 9.2844 1.1762 9.33315C0.990571 9.3819 0.853696 9.53753 0.825571 9.7269C0.797446 9.91628 0.883696 10.1038 1.04682 10.205L8.20182 16.685C8.30682 16.7769 8.44745 16.8181 8.5862 16.7975C8.72495 16.7769 8.84682 16.6982 8.92182 16.58L19.0468 0.890025C19.1574 0.732525 19.1631 0.5244 19.0618 0.361275C18.9606 0.19815 18.7712 0.111899 18.5818 0.140025Z" fill="#3EB1A9"/>
</svg>
