<svg width="41" height="24" viewBox="0 0 41 24" fill="none" xmlns="http://www.w3.org/2000/svg">
<path fill-rule="evenodd" clip-rule="evenodd" d="M35.4365 2.43052H3C2.25442 2.43052 1.65 3.03493 1.65 3.78052V16.7805C1.65 17.5261 2.25442 18.1305 3 18.1305H37.4892C38.3187 18.1305 38.952 17.3894 38.8226 16.57L38.2243 12.7805H11C10.4477 12.7805 10 12.3328 10 11.7805V5.78052C10 5.22823 10.4477 4.78052 11 4.78052H36.9611L36.77 3.56997C36.6664 2.9138 36.1008 2.43052 35.4365 2.43052ZM37.2217 6.43052H33V11.1305H37.9638L37.2217 6.43052ZM3 0.780518C1.34315 0.780518 0 2.12366 0 3.78052V16.7805C0 18.4374 1.34315 19.7805 3 19.7805H37.4892C39.3326 19.7805 40.7399 18.1335 40.4524 16.3126L38.3998 3.31263C38.1696 1.85447 36.9127 0.780518 35.4365 0.780518H3ZM41 22.6055C41 23.0612 40.6306 23.4305 40.175 23.4305H0.825001C0.369366 23.4305 0 23.0612 0 22.6055C0 22.1499 0.369366 21.7805 0.825001 21.7805H40.175C40.6306 21.7805 41 22.1499 41 22.6055ZM11.65 6.43052V11.1305H17V6.43052H11.65ZM24 11.1305H19V6.43052H24V11.1305ZM26 11.1305H31V6.43052H26V11.1305Z" fill="#409690"/>
</svg>
