<svg width="39" height="24" viewBox="0 0 39 24" fill="none" xmlns="http://www.w3.org/2000/svg">
<path fill-rule="evenodd" clip-rule="evenodd" d="M10.454 0.780518L10.454 0.788779L2.69765 0.780548C1.22288 0.778983 0.0218027 1.98221 0.0202316 3.46277L0.00541472 17.4253C0.00384357 18.9058 1.20236 20.1116 2.67714 20.1132L3.2928 20.1138C3.41293 20.7089 3.66422 21.2568 4.01492 21.7257L0.803235 21.7222C0.360081 21.7218 0.000472956 22.0821 4.64239e-07 22.5269C-0.0004711 22.9717 0.358372 23.3328 0.801526 23.3333L37.711 23.3725C38.1541 23.3729 38.5138 23.0126 38.5142 22.5678C38.5147 22.123 38.1558 21.7619 37.7127 21.7614L34.501 21.758C34.8527 21.2899 35.1052 20.7426 35.2266 20.1477L35.8422 20.1484C37.317 20.1499 38.5181 18.9467 38.5196 17.4662L38.5345 3.50364C38.536 2.023 37.3375 0.817228 35.8627 0.815663L26.5016 0.805729L26.5016 0.780518H24.8969L24.8969 0.804026L12.0588 0.790402L12.0588 0.780518H10.454ZM7.2274 16.8958C5.90011 16.8944 4.81911 17.9773 4.8177 19.3098C4.81628 20.6423 5.89498 21.7276 7.22227 21.729C8.54957 21.7304 9.63056 20.6475 9.63198 19.315C9.63339 17.9825 8.5547 16.8972 7.2274 16.8958ZM28.0863 21.7511C27.7357 21.2823 27.4844 20.7344 27.3642 20.1393L11.1552 20.1221C11.0338 20.7169 10.7813 21.2643 10.4296 21.7324L28.0863 21.7511ZM31.2988 16.9214C29.9715 16.92 28.8905 18.0029 28.8891 19.3354C28.8877 20.6679 29.9664 21.7531 31.2937 21.7545C32.621 21.7559 33.702 20.673 33.7034 19.3405C33.7048 18.008 32.6261 16.9228 31.2988 16.9214ZM35.2283 18.5366L35.8439 18.5372C36.4338 18.5379 36.9143 18.0566 36.9149 17.4644L36.9189 13.7052L7.23082 13.6737C6.78767 13.6732 6.42882 13.3121 6.4293 12.8673L6.43613 6.42313C6.43661 5.97823 6.79622 5.61798 7.23937 5.61845L36.9274 5.64996L36.9297 3.50186C36.9303 2.90963 36.4509 2.42734 35.861 2.42672L2.69602 2.39152C2.10611 2.3909 1.6257 2.87217 1.62507 3.46439L1.61025 17.4269C1.60963 18.0191 2.08902 18.5014 2.67893 18.5021L3.29443 18.5027C3.39287 17.9916 3.63475 17.416 3.99884 16.9215C5.53021 14.8501 8.54087 14.7328 10.2262 16.6437C10.5839 17.0492 10.8388 17.4943 11.0057 17.9666C11.0761 18.1653 11.1313 18.3762 11.157 18.511L27.3657 18.5282C27.368 18.5162 27.3892 18.4187 27.409 18.341C28.034 15.8816 30.7772 14.5809 33.0844 15.734C34.2156 16.3032 34.9914 17.357 35.2279 18.5345L35.2283 18.5366ZM32.1063 12.0891L36.9206 12.0942L36.9257 7.26101L32.1114 7.2559L32.1063 12.0891ZM14.4591 7.23717L14.4539 12.0703L18.4658 12.0746L18.471 7.24143L14.4591 7.23717ZM8.04004 7.23036L8.03491 12.0635L12.8492 12.0686L12.8543 7.23546L8.04004 7.23036ZM24.89 7.24824L20.0757 7.24313L20.0706 12.0763L24.8849 12.0814L24.89 7.24824ZM30.5067 7.2542L26.4948 7.24994L26.4896 12.0831L30.5015 12.0874L30.5067 7.2542Z" fill="#409690"/>
</svg>
