<svg width="40" height="32" viewBox="0 0 40 32" fill="none" xmlns="http://www.w3.org/2000/svg">
<path d="M36.5928 8.82011L27.2939 8.81024L27.2973 5.60957C27.2978 5.16763 26.9412 4.80902 26.5011 4.80855L25.1356 4.8071L18.9572 0.921329C18.5842 0.686644 18.0923 0.800146 17.8586 1.1747C17.6249 1.54917 17.7379 2.04299 18.1109 2.27752L22.1279 4.80399L17.9622 4.79957L11.7839 0.913717C11.4108 0.679031 10.9189 0.792533 10.6853 1.16708C10.4516 1.54156 10.5645 2.03538 10.9375 2.2699L14.9545 4.79638L12.1543 4.79341C11.7141 4.79294 11.3569 5.1508 11.3565 5.59273L11.3531 8.7934L3.64829 8.78522C2.18333 8.78367 0.990239 9.9789 0.988678 11.4496L0.97396 25.3192C0.972399 26.7899 2.16295 27.9877 3.62791 27.9893L4.23948 27.9899C4.35881 28.581 4.60842 29.1253 4.95679 29.591L1.76647 29.5876C1.32627 29.5871 0.969051 29.9451 0.968582 30.3869C0.968113 30.8288 1.32457 31.1875 1.76478 31.188L38.4287 31.2269C38.8688 31.2273 39.2261 30.8694 39.2266 30.4275C39.2271 29.9857 38.8705 29.627 38.4304 29.6265L35.2401 29.6231C35.5895 29.1581 35.8402 28.6144 35.9608 28.0236L36.5724 28.0242C38.0373 28.0258 39.2304 26.8305 39.232 25.3598C39.2338 23.6378 39.245 13.0789 39.2467 11.4902C39.2483 10.0194 38.0577 8.82166 36.5928 8.82011ZM12.9497 6.39451C14.1431 6.39578 24.2467 6.4065 25.7024 6.40804L25.6998 8.80855L12.9471 8.79501L12.9497 6.39451ZM5.75423 27.1913C5.75564 25.8676 6.82944 24.7919 8.14791 24.7933C9.46637 24.7947 10.5379 25.8727 10.5365 27.1963C10.5351 28.52 9.46128 29.5957 8.14281 29.5943C6.82434 29.5929 5.75283 28.5149 5.75423 27.1913ZM28.1507 28.0152C28.2702 28.6063 28.5198 29.1505 28.8681 29.6163L11.3288 29.5977C11.6782 29.1327 11.929 28.589 12.0495 27.9981L28.1507 28.0152ZM29.6655 27.2166C29.6669 25.893 30.7407 24.8173 32.0592 24.8187C33.3776 24.8201 34.4492 25.8981 34.4478 27.2217C34.4463 28.5453 33.3725 29.6211 32.0541 29.6197C30.7356 29.6183 29.6641 28.5403 29.6655 27.2166ZM36.5741 26.4238L35.9626 26.4231L35.9621 26.4211C35.7272 25.2514 34.9566 24.2047 33.8329 23.6392C31.541 22.4938 28.8161 23.7858 28.1953 26.2289C28.1756 26.3061 28.1545 26.4029 28.1523 26.4149L12.0514 26.3978C12.0259 26.2638 11.971 26.0543 11.9011 25.8569C11.7353 25.3878 11.4821 24.9457 11.1268 24.5429C9.45263 22.6447 6.462 22.7612 4.94082 24.8188C4.57915 25.31 4.33888 25.8818 4.2411 26.3895L3.62969 26.3888C3.0437 26.3882 2.5675 25.9091 2.56812 25.3208L2.58284 11.4512C2.58347 10.8629 3.06069 10.3849 3.64667 10.3855C5.29511 10.3872 35.8104 10.4196 36.5911 10.4204C37.177 10.4211 37.6532 10.9001 37.6526 11.4884L37.6504 13.6222C30.8635 13.615 14.0469 13.5972 8.15979 13.5909C7.71959 13.5905 7.36237 13.9483 7.3619 14.3903L7.35511 20.7916C7.35464 21.2335 7.7111 21.5922 8.1513 21.5926C8.92021 21.5934 36.8082 21.623 37.6419 21.6239L37.6379 25.3581C37.6373 25.9463 37.1601 26.4244 36.5741 26.4238ZM37.6436 20.0236L32.8613 20.0185L32.8664 15.2175L37.6487 15.2226L37.6436 20.0236ZM15.3264 19.9999L15.3315 15.1989L19.3167 15.2031L19.3116 20.0041L15.3264 19.9999ZM8.95004 19.9931L8.95514 15.1921L13.7374 15.1972L13.7323 19.9982L8.95004 19.9931ZM20.9108 15.2048L25.693 15.2099L25.6879 20.0109L20.9057 20.0058L20.9108 15.2048ZM27.2871 15.2116L31.2723 15.2158L31.2672 20.0168L27.282 20.0126L27.2871 15.2116Z" fill="#409690"/>
</svg>
