<svg width="42" height="80" viewBox="0 0 42 80" fill="none" xmlns="http://www.w3.org/2000/svg">
<path d="M41.8279 39.8972C41.8205 39.3999 41.6201 38.9323 41.2713 38.5835L3.27129 0.583505C2.79629 0.0862389 2.08379 -0.114153 1.42324 0.0639719C0.755276 0.234675 0.235744 0.754208 0.0650405 1.42218C-0.113083 2.08272 0.0873069 2.79522 0.584572 3.27022L37.2412 39.9269L0.584568 76.5835C0.0873036 77.0585 -0.113086 77.771 0.0650372 78.4316C0.235741 79.0995 0.755272 79.6191 1.42324 79.7898C2.08379 79.9679 2.79629 79.7675 3.27129 79.2702L41.2713 41.2702C41.635 40.9066 41.8353 40.4093 41.8279 39.8972Z" fill="#419792"/>
</svg>
