<svg width="22" height="22" viewBox="0 0 22 22" fill="none" xmlns="http://www.w3.org/2000/svg">
<path d="M11.002 1.46094L10.3789 2.87891L8.14453 7.88477L2.6875 8.46484L1.14062 8.63672L2.30078 9.66797L6.36133 13.3418L5.22266 18.7129L4.90039 20.2168L6.25391 19.4434L11.002 16.6934L15.75 19.4434L17.1035 20.2168L16.7812 18.7129L15.6426 13.3418L19.7031 9.66797L20.8633 8.63672L19.3164 8.46484L13.8594 7.88477L11.625 2.87891L11.002 1.46094ZM11.002 4.83398L12.7637 8.80859L12.9355 9.17383L13.3223 9.2168L17.6406 9.66797L14.418 12.5684L14.1172 12.8477L14.2031 13.2344L15.1055 17.4668L11.3457 15.3184L11.002 15.1035L10.6582 15.3184L6.89844 17.4668L7.80078 13.2344L7.88672 12.8477L7.58594 12.5684L4.36328 9.66797L8.68164 9.2168L9.06836 9.17383L9.24023 8.80859L11.002 4.83398Z" fill="#409690"/>
</svg>
