<svg width="26" height="26" viewBox="0 0 26 26" fill="none" xmlns="http://www.w3.org/2000/svg">
<path fill-rule="evenodd" clip-rule="evenodd" d="M16.4873 7.54925C16.5628 7.47358 16.6524 7.41355 16.7511 7.37259C16.8499 7.33163 16.9557 7.31055 17.0625 7.31055C17.1694 7.31055 17.2752 7.33163 17.374 7.37259C17.4727 7.41355 17.5623 7.47358 17.6378 7.54925L22.5128 12.4242C22.5885 12.4997 22.6485 12.5894 22.6895 12.6881C22.7304 12.7868 22.7515 12.8926 22.7515 12.9995C22.7515 13.1064 22.7304 13.2122 22.6895 13.3109C22.6485 13.4096 22.5885 13.4993 22.5128 13.5747L17.6378 18.4497C17.4852 18.6023 17.2783 18.688 17.0625 18.688C16.8468 18.688 16.6399 18.6023 16.4873 18.4497C16.3347 18.2972 16.249 18.0903 16.249 17.8745C16.249 17.6587 16.3347 17.4518 16.4873 17.2992L20.7887 12.9995L16.4873 8.69975C16.4116 8.62427 16.3516 8.53461 16.3106 8.4359C16.2697 8.33719 16.2486 8.23137 16.2486 8.1245C16.2486 8.01763 16.2697 7.9118 16.3106 7.81309C16.3516 7.71438 16.4116 7.62472 16.4873 7.54925Z" fill="#409690"/>
<path fill-rule="evenodd" clip-rule="evenodd" d="M3.25 13C3.25 12.7845 3.3356 12.5778 3.48798 12.4255C3.64035 12.2731 3.84701 12.1875 4.0625 12.1875H21.125C21.3405 12.1875 21.5472 12.2731 21.6995 12.4255C21.8519 12.5778 21.9375 12.7845 21.9375 13C21.9375 13.2155 21.8519 13.4222 21.6995 13.5745C21.5472 13.7269 21.3405 13.8125 21.125 13.8125H4.0625C3.84701 13.8125 3.64035 13.7269 3.48798 13.5745C3.3356 13.4222 3.25 13.2155 3.25 13Z" fill="#409690"/>
</svg>
