<svg width="43" height="81" viewBox="0 0 43 81" fill="none" xmlns="http://www.w3.org/2000/svg">
<path d="M42.3999 40.4703C42.3925 39.973 42.1921 39.5055 41.8433 39.1566L3.84331 1.15663C3.36831 0.659359 2.65581 0.458967 1.99527 0.637092C1.3273 0.807796 0.807766 1.32733 0.637062 1.9953C0.458939 2.65584 0.659328 3.36834 1.15659 3.84334L37.8132 40.5L1.15659 77.1566C0.659325 77.6316 0.458935 78.3441 0.637059 79.0047C0.807763 79.6727 1.32729 80.1922 1.99526 80.3629C2.65581 80.541 3.36831 80.3406 3.84331 79.8434L41.8433 41.8433C42.207 41.4797 42.4074 40.9824 42.3999 40.4703Z" fill="black"/>
</svg>
