<svg width="75" height="66" viewBox="0 0 75 66" fill="none" xmlns="http://www.w3.org/2000/svg">
<g clip-path="url(#clip0)">
<path fill-rule="evenodd" clip-rule="evenodd" d="M57.1019 6.0293C53.6006 6.40216 50.2193 4.43299 48.8262 1.20888C52.4278 0.322186 56.1082 2.46556 57.1019 6.0293Z" fill="#1A1A1A" fill-opacity="0.1"/>
<path fill-rule="evenodd" clip-rule="evenodd" d="M57.1019 6.0293C53.6006 6.40216 50.2193 4.43299 48.8262 1.20888C52.4278 0.322186 56.1082 2.46556 57.1019 6.0293Z" fill="#DCF0EE"/>
<path fill-rule="evenodd" clip-rule="evenodd" d="M60.1908 9.73287C56.9545 11.1172 53.1423 10.2282 50.8577 7.55656C54.038 5.65136 58.188 6.61872 60.1908 9.73287Z" fill="#1A1A1A" fill-opacity="0.1"/>
<path fill-rule="evenodd" clip-rule="evenodd" d="M60.1908 9.73287C56.9545 11.1172 53.1423 10.2282 50.8577 7.55656C54.038 5.65136 58.188 6.61872 60.1908 9.73287Z" fill="#DCF0EE"/>
<path fill-rule="evenodd" clip-rule="evenodd" d="M57.1554 -0.000366211C60.6173 1.33076 62.401 5.1892 61.1669 8.67763C58.0828 6.98274 56.4442 3.43804 57.1554 -0.000366211Z" fill="#1A1A1A" fill-opacity="0.1"/>
<path fill-rule="evenodd" clip-rule="evenodd" d="M57.1554 -0.000366211C60.6173 1.33076 62.401 5.1892 61.1669 8.67763C58.0828 6.98274 56.4442 3.43804 57.1554 -0.000366211Z" fill="#DCF0EE"/>
<path fill-rule="evenodd" clip-rule="evenodd" d="M64.1136 5.11414C67.0096 7.426 67.5399 11.6411 65.3059 14.5944C62.8804 12.05 62.3933 8.17741 64.1136 5.11414Z" fill="#1A1A1A" fill-opacity="0.1"/>
<path fill-rule="evenodd" clip-rule="evenodd" d="M64.1136 5.11414C67.0096 7.426 67.5399 11.6411 65.3059 14.5944C62.8804 12.05 62.3933 8.17741 64.1136 5.11414Z" fill="#DCF0EE"/>
<path fill-rule="evenodd" clip-rule="evenodd" d="M64.116 15.1774C60.7145 16.0888 57.0684 14.667 55.1891 11.6983C58.609 10.2643 62.5784 11.8109 64.116 15.1774Z" fill="#1A1A1A" fill-opacity="0.1"/>
<path fill-rule="evenodd" clip-rule="evenodd" d="M64.116 15.1774C60.7145 16.0888 57.0684 14.667 55.1891 11.6983C58.609 10.2643 62.5784 11.8109 64.116 15.1774Z" fill="#DCF0EE"/>
<path fill-rule="evenodd" clip-rule="evenodd" d="M69.3106 11.6807C71.5668 14.6172 71.0682 18.8366 68.189 21.1698C66.4459 18.1195 66.904 14.2435 69.3106 11.6807Z" fill="#1A1A1A" fill-opacity="0.1"/>
<path fill-rule="evenodd" clip-rule="evenodd" d="M69.3106 11.6807C71.5668 14.6172 71.0682 18.8366 68.189 21.1698C66.4459 18.1195 66.904 14.2435 69.3106 11.6807Z" fill="#DCF0EE"/>
<path fill-rule="evenodd" clip-rule="evenodd" d="M66.8419 21.4866C63.3347 21.7948 59.9903 19.7642 58.6564 16.5151C62.275 15.6949 65.9142 17.9053 66.8419 21.4866Z" fill="#1A1A1A" fill-opacity="0.1"/>
<path fill-rule="evenodd" clip-rule="evenodd" d="M66.8419 21.4866C63.3347 21.7948 59.9903 19.7642 58.6564 16.5151C62.275 15.6949 65.9142 17.9053 66.8419 21.4866Z" fill="#DCF0EE"/>
<path fill-rule="evenodd" clip-rule="evenodd" d="M61.6069 21.7684C65.3148 21.9092 68.2565 24.9834 68.223 28.6825C64.7543 28.0753 62.0522 25.2508 61.6069 21.7684Z" fill="#1A1A1A" fill-opacity="0.1"/>
<path fill-rule="evenodd" clip-rule="evenodd" d="M61.6069 21.7684C65.3148 21.9092 68.2565 24.9834 68.223 28.6825C64.7543 28.0753 62.0522 25.2508 61.6069 21.7684Z" fill="#DCF0EE"/>
<path fill-rule="evenodd" clip-rule="evenodd" d="M72.9917 19.5587C74.5029 22.9368 73.0373 26.926 69.6944 28.5305C68.7078 25.1606 70.0545 21.4954 72.9917 19.5587Z" fill="#1A1A1A" fill-opacity="0.1"/>
<path fill-rule="evenodd" clip-rule="evenodd" d="M72.9917 19.5587C74.5029 22.9368 73.0373 26.926 69.6944 28.5305C68.7078 25.1606 70.0545 21.4954 72.9917 19.5587Z" fill="#DCF0EE"/>
<path fill-rule="evenodd" clip-rule="evenodd" d="M74.8948 28.4904C75.4787 32.1431 73.027 35.6187 69.3812 36.3062C69.3031 32.7966 71.5551 29.604 74.8948 28.4904Z" fill="#1A1A1A" fill-opacity="0.1"/>
<path fill-rule="evenodd" clip-rule="evenodd" d="M74.8948 28.4904C75.4787 32.1431 73.027 35.6187 69.3812 36.3062C69.3031 32.7966 71.5551 29.604 74.8948 28.4904Z" fill="#DCF0EE"/>
<path fill-rule="evenodd" clip-rule="evenodd" d="M62.9055 27.776C66.4912 28.7267 68.682 32.3709 67.8325 35.9717C64.5832 34.6183 62.5703 31.2705 62.9055 27.776Z" fill="#1A1A1A" fill-opacity="0.1"/>
<path fill-rule="evenodd" clip-rule="evenodd" d="M62.9055 27.776C66.4912 28.7267 68.682 32.3709 67.8325 35.9717C64.5832 34.6183 62.5703 31.2705 62.9055 27.776Z" fill="#DCF0EE"/>
<path fill-rule="evenodd" clip-rule="evenodd" d="M62.5627 34.0883C65.8668 35.7707 67.2377 39.7939 65.6456 43.1346C62.7552 41.1292 61.4968 37.4337 62.5627 34.0883Z" fill="#1A1A1A" fill-opacity="0.1"/>
<path fill-rule="evenodd" clip-rule="evenodd" d="M62.5627 34.0883C65.8668 35.7707 67.2377 39.7939 65.6456 43.1346C62.7552 41.1292 61.4968 37.4337 62.5627 34.0883Z" fill="#DCF0EE"/>
<path fill-rule="evenodd" clip-rule="evenodd" d="M74.7921 37.965C74.2417 41.6224 70.8538 44.1969 67.1674 43.755C68.1564 40.3857 71.271 38.0205 74.7921 37.965Z" fill="#1A1A1A" fill-opacity="0.1"/>
<path fill-rule="evenodd" clip-rule="evenodd" d="M74.7921 37.965C74.2417 41.6224 70.8538 44.1969 67.1674 43.755C68.1564 40.3857 71.271 38.0205 74.7921 37.965Z" fill="#DCF0EE"/>
<path fill-rule="evenodd" clip-rule="evenodd" d="M63.3002 50.5703C64.6919 47.3452 68.07 45.3738 71.5727 45.7448C70.5808 49.3087 66.904 51.4543 63.3002 50.5703Z" fill="#1A1A1A" fill-opacity="0.1"/>
<path fill-rule="evenodd" clip-rule="evenodd" d="M63.3002 50.5703C64.6919 47.3452 68.07 45.3738 71.5727 45.7448C70.5808 49.3087 66.904 51.4543 63.3002 50.5703Z" fill="#DCF0EE"/>
<path fill-rule="evenodd" clip-rule="evenodd" d="M61.2107 40.1121C63.9807 42.5726 64.2874 46.8101 61.9006 49.6422C59.6127 46.9736 59.3309 43.0806 61.2107 40.1121Z" fill="#1A1A1A" fill-opacity="0.1"/>
<path fill-rule="evenodd" clip-rule="evenodd" d="M61.2107 40.1121C63.9807 42.5726 64.2874 46.8101 61.9006 49.6422C59.6127 46.9736 59.3309 43.0806 61.2107 40.1121Z" fill="#DCF0EE"/>
<path fill-rule="evenodd" clip-rule="evenodd" d="M58.2047 55.8316C60.2838 52.9977 64.019 51.8282 67.3488 52.9681C65.5844 56.2218 61.5194 57.4958 58.2047 55.8316Z" fill="#1A1A1A" fill-opacity="0.1"/>
<path fill-rule="evenodd" clip-rule="evenodd" d="M58.2047 55.8316C60.2838 52.9977 64.019 51.8282 67.3488 52.9681C65.5844 56.2218 61.5194 57.4958 58.2047 55.8316Z" fill="#DCF0EE"/>
<path fill-rule="evenodd" clip-rule="evenodd" d="M58.2582 45.8112C60.3207 48.8862 59.5515 53.065 56.5284 55.2094C54.9849 52.0537 55.6916 48.2147 58.2582 45.8112Z" fill="#1A1A1A" fill-opacity="0.1"/>
<path fill-rule="evenodd" clip-rule="evenodd" d="M58.2582 45.8112C60.3207 48.8862 59.5515 53.065 56.5284 55.2094C54.9849 52.0537 55.6916 48.2147 58.2582 45.8112Z" fill="#DCF0EE"/>
<path fill-rule="evenodd" clip-rule="evenodd" d="M50.5757 60.9038C53.2568 58.6284 57.1617 58.3547 60.1365 60.2341C57.6633 62.9913 53.4111 63.2891 50.5757 60.9038Z" fill="#1A1A1A" fill-opacity="0.1"/>
<path fill-rule="evenodd" clip-rule="evenodd" d="M50.5757 60.9038C53.2568 58.6284 57.1617 58.3547 60.1365 60.2341C57.6633 62.9913 53.4111 63.2891 50.5757 60.9038Z" fill="#DCF0EE"/>
<path fill-rule="evenodd" clip-rule="evenodd" d="M53.821 50.6877C55.0403 54.1811 53.2398 58.0322 49.7722 59.348C49.0758 55.9066 50.7301 52.3693 53.821 50.6877Z" fill="#1A1A1A" fill-opacity="0.1"/>
<path fill-rule="evenodd" clip-rule="evenodd" d="M53.821 50.6877C55.0403 54.1811 53.2398 58.0322 49.7722 59.348C49.0758 55.9066 50.7301 52.3693 53.821 50.6877Z" fill="#DCF0EE"/>
<path fill-rule="evenodd" clip-rule="evenodd" d="M47.5269 53.7474C48.0832 57.4046 45.6052 60.8613 41.9547 61.5219C41.9029 58.0115 44.1787 54.836 47.5269 53.7474Z" fill="#1A1A1A" fill-opacity="0.1"/>
<path fill-rule="evenodd" clip-rule="evenodd" d="M47.5269 53.7474C48.0832 57.4046 45.6052 60.8613 41.9547 61.5219C41.9029 58.0115 44.1787 54.836 47.5269 53.7474Z" fill="#DCF0EE"/>
<path fill-rule="evenodd" clip-rule="evenodd" d="M51.9144 64.5814C48.9641 66.8247 44.7321 66.3182 42.398 63.4435C45.4614 61.7123 49.3485 62.1772 51.9144 64.5814Z" fill="#1A1A1A" fill-opacity="0.1"/>
<path fill-rule="evenodd" clip-rule="evenodd" d="M51.9144 64.5814C48.9641 66.8247 44.7321 66.3182 42.398 63.4435C45.4614 61.7123 49.3485 62.1772 51.9144 64.5814Z" fill="#DCF0EE"/>
<path fill-rule="evenodd" clip-rule="evenodd" d="M23.0751 64.5814C25.6413 62.1772 29.5278 61.7126 32.5914 63.4435C30.257 66.3185 26.0256 66.8247 23.0751 64.5814Z" fill="#1A1A1A" fill-opacity="0.1"/>
<path fill-rule="evenodd" clip-rule="evenodd" d="M23.0751 64.5814C25.6413 62.1772 29.5278 61.7126 32.5914 63.4435C30.257 66.3185 26.0256 66.8247 23.0751 64.5814Z" fill="#DCF0EE"/>
<path fill-rule="evenodd" clip-rule="evenodd" d="M27.4626 53.7474C30.8108 54.836 33.0866 58.0115 33.035 61.5219C29.3842 60.8613 26.9062 57.4046 27.4626 53.7474Z" fill="#1A1A1A" fill-opacity="0.1"/>
<path fill-rule="evenodd" clip-rule="evenodd" d="M27.4626 53.7474C30.8108 54.836 33.0866 58.0115 33.035 61.5219C29.3842 60.8613 26.9062 57.4046 27.4626 53.7474Z" fill="#DCF0EE"/>
<path fill-rule="evenodd" clip-rule="evenodd" d="M21.1686 50.6877C24.2599 52.3693 25.9137 55.9069 25.2173 59.3483C21.7496 58.0322 19.9493 54.1811 21.1686 50.6877Z" fill="#1A1A1A" fill-opacity="0.1"/>
<path fill-rule="evenodd" clip-rule="evenodd" d="M21.1686 50.6877C24.2599 52.3693 25.9137 55.9069 25.2173 59.3483C21.7496 58.0322 19.9493 54.1811 21.1686 50.6877Z" fill="#DCF0EE"/>
<path fill-rule="evenodd" clip-rule="evenodd" d="M24.4139 60.9039C21.5779 63.2895 17.326 62.9911 14.853 60.2345C17.8271 58.3548 21.7324 58.6284 24.4139 60.9039Z" fill="#1A1A1A" fill-opacity="0.1"/>
<path fill-rule="evenodd" clip-rule="evenodd" d="M24.4139 60.9039C21.5779 63.2895 17.326 62.9911 14.853 60.2345C17.8271 58.3548 21.7324 58.6284 24.4139 60.9039Z" fill="#DCF0EE"/>
<path fill-rule="evenodd" clip-rule="evenodd" d="M16.7314 45.8112C19.2979 48.2147 20.0046 52.0537 18.4612 55.2094C15.438 53.065 14.6689 48.8862 16.7314 45.8112Z" fill="#1A1A1A" fill-opacity="0.1"/>
<path fill-rule="evenodd" clip-rule="evenodd" d="M16.7314 45.8112C19.2979 48.2147 20.0046 52.0537 18.4612 55.2094C15.438 53.065 14.6689 48.8862 16.7314 45.8112Z" fill="#DCF0EE"/>
<path fill-rule="evenodd" clip-rule="evenodd" d="M16.785 55.8316C13.4704 57.4958 9.40463 56.2218 7.64087 52.9681C10.9714 51.8279 14.7062 52.9977 16.785 55.8316Z" fill="#1A1A1A" fill-opacity="0.1"/>
<path fill-rule="evenodd" clip-rule="evenodd" d="M16.785 55.8316C13.4704 57.4958 9.40463 56.2218 7.64087 52.9681C10.9714 51.8279 14.7062 52.9977 16.785 55.8316Z" fill="#DCF0EE"/>
<path fill-rule="evenodd" clip-rule="evenodd" d="M11.6892 50.5702C8.08558 51.454 4.40836 49.3087 3.41687 45.7445C6.91848 45.3744 10.2978 47.3455 11.6892 50.5702Z" fill="#1A1A1A" fill-opacity="0.1"/>
<path fill-rule="evenodd" clip-rule="evenodd" d="M11.6892 50.5702C8.08558 51.454 4.40836 49.3087 3.41687 45.7445C6.91848 45.3744 10.2978 47.3455 11.6892 50.5702Z" fill="#DCF0EE"/>
<path fill-rule="evenodd" clip-rule="evenodd" d="M13.7788 40.1121C15.6586 43.0806 15.377 46.9736 13.089 49.6422C10.702 46.8103 11.0085 42.5729 13.7788 40.1121Z" fill="#1A1A1A" fill-opacity="0.1"/>
<path fill-rule="evenodd" clip-rule="evenodd" d="M13.7788 40.1121C15.6586 43.0806 15.377 46.9736 13.089 49.6422C10.702 46.8103 11.0085 42.5729 13.7788 40.1121Z" fill="#DCF0EE"/>
<path fill-rule="evenodd" clip-rule="evenodd" d="M12.4266 34.0883C13.4928 37.4337 12.2342 41.1292 9.34383 43.1346C7.75166 39.7939 9.12259 35.7707 12.4266 34.0883Z" fill="#1A1A1A" fill-opacity="0.1"/>
<path fill-rule="evenodd" clip-rule="evenodd" d="M12.4266 34.0883C13.4928 37.4337 12.2342 41.1292 9.34383 43.1346C7.75166 39.7939 9.12259 35.7707 12.4266 34.0883Z" fill="#DCF0EE"/>
<path fill-rule="evenodd" clip-rule="evenodd" d="M7.82209 43.755C4.13635 44.1978 0.747933 41.6227 0.197144 37.965C3.71841 38.0205 6.83288 40.3857 7.82209 43.755Z" fill="#1A1A1A" fill-opacity="0.1"/>
<path fill-rule="evenodd" clip-rule="evenodd" d="M7.82209 43.755C4.13635 44.1978 0.747933 41.6227 0.197144 37.965C3.71841 38.0205 6.83288 40.3857 7.82209 43.755Z" fill="#DCF0EE"/>
<path fill-rule="evenodd" clip-rule="evenodd" d="M12.084 27.776C12.4186 31.2705 10.406 34.6183 7.15697 35.9717C6.30745 32.3709 8.49827 28.7267 12.084 27.776Z" fill="#1A1A1A" fill-opacity="0.1"/>
<path fill-rule="evenodd" clip-rule="evenodd" d="M12.084 27.776C12.4186 31.2705 10.406 34.6183 7.15697 35.9717C6.30745 32.3709 8.49827 28.7267 12.084 27.776Z" fill="#DCF0EE"/>
<path fill-rule="evenodd" clip-rule="evenodd" d="M0.0948012 28.4904C3.43418 29.6043 5.68628 32.7969 5.60817 36.3062C1.96234 35.6187 -0.489328 32.1431 0.0948012 28.4904Z" fill="#1A1A1A" fill-opacity="0.1"/>
<path fill-rule="evenodd" clip-rule="evenodd" d="M0.0948012 28.4904C3.43418 29.6043 5.68628 32.7969 5.60817 36.3062C1.96234 35.6187 -0.489328 32.1431 0.0948012 28.4904Z" fill="#DCF0EE"/>
<path fill-rule="evenodd" clip-rule="evenodd" d="M1.99797 19.5587C4.93511 21.4954 6.28179 25.1606 5.29515 28.5305C1.95234 26.926 0.486478 22.9368 1.99797 19.5587Z" fill="#1A1A1A" fill-opacity="0.1"/>
<path fill-rule="evenodd" clip-rule="evenodd" d="M1.99797 19.5587C4.93511 21.4954 6.28179 25.1606 5.29515 28.5305C1.95234 26.926 0.486478 22.9368 1.99797 19.5587Z" fill="#DCF0EE"/>
<path fill-rule="evenodd" clip-rule="evenodd" d="M13.3825 21.7684C12.937 25.2508 10.235 28.0753 6.76678 28.6825C6.73255 24.9834 9.67425 21.9092 13.3825 21.7684Z" fill="#1A1A1A" fill-opacity="0.1"/>
<path fill-rule="evenodd" clip-rule="evenodd" d="M13.3825 21.7684C12.937 25.2508 10.235 28.0753 6.76678 28.6825C6.73255 24.9834 9.67425 21.9092 13.3825 21.7684Z" fill="#DCF0EE"/>
<path fill-rule="evenodd" clip-rule="evenodd" d="M8.14764 21.4866C9.07527 17.9053 12.7151 15.6946 16.333 16.515C14.9992 19.7642 11.6538 21.7947 8.14764 21.4866Z" fill="#1A1A1A" fill-opacity="0.1"/>
<path fill-rule="evenodd" clip-rule="evenodd" d="M8.14764 21.4866C9.07527 17.9053 12.7151 15.6946 16.333 16.515C14.9992 19.7642 11.6538 21.7947 8.14764 21.4866Z" fill="#DCF0EE"/>
<path fill-rule="evenodd" clip-rule="evenodd" d="M5.67887 11.6807C8.0855 14.2435 8.54361 18.1195 6.80037 21.1698C3.92139 18.8366 3.4225 14.6172 5.67887 11.6807Z" fill="#1A1A1A" fill-opacity="0.1"/>
<path fill-rule="evenodd" clip-rule="evenodd" d="M5.67887 11.6807C8.0855 14.2435 8.54361 18.1195 6.80037 21.1698C3.92139 18.8366 3.4225 14.6172 5.67887 11.6807Z" fill="#DCF0EE"/>
<path fill-rule="evenodd" clip-rule="evenodd" d="M10.8758 5.11414C12.5962 8.17712 12.109 12.0498 9.68332 14.5944C7.44946 11.6411 7.9797 7.426 10.8758 5.11414Z" fill="#1A1A1A" fill-opacity="0.1"/>
<path fill-rule="evenodd" clip-rule="evenodd" d="M10.8758 5.11414C12.5962 8.17712 12.109 12.0498 9.68332 14.5944C7.44946 11.6411 7.9797 7.426 10.8758 5.11414Z" fill="#DCF0EE"/>
<path fill-rule="evenodd" clip-rule="evenodd" d="M10.8735 15.1774C12.4106 11.8109 16.38 10.264 19.8001 11.6983C17.9212 14.667 14.2742 16.0879 10.8735 15.1774Z" fill="#1A1A1A" fill-opacity="0.1"/>
<path fill-rule="evenodd" clip-rule="evenodd" d="M10.8735 15.1774C12.4106 11.8109 16.38 10.264 19.8001 11.6983C17.9212 14.667 14.2742 16.0879 10.8735 15.1774Z" fill="#DCF0EE"/>
<path fill-rule="evenodd" clip-rule="evenodd" d="M14.7988 9.73289C16.8017 6.61873 20.9519 5.65107 24.1316 7.55657C21.847 10.2282 18.0347 11.1169 14.7988 9.73289Z" fill="#1A1A1A" fill-opacity="0.1"/>
<path fill-rule="evenodd" clip-rule="evenodd" d="M14.7988 9.73289C16.8017 6.61873 20.9519 5.65107 24.1316 7.55657C21.847 10.2282 18.0347 11.1169 14.7988 9.73289Z" fill="#DCF0EE"/>
<path fill-rule="evenodd" clip-rule="evenodd" d="M17.8336 -0.000366211C18.5449 3.43804 16.9066 6.98274 13.8226 8.67763C12.5885 5.18949 14.3716 1.33076 17.8336 -0.000366211Z" fill="#1A1A1A" fill-opacity="0.1"/>
<path fill-rule="evenodd" clip-rule="evenodd" d="M17.8336 -0.000366211C18.5449 3.43804 16.9066 6.98274 13.8226 8.67763C12.5885 5.18949 14.3716 1.33076 17.8336 -0.000366211Z" fill="#DCF0EE"/>
<path fill-rule="evenodd" clip-rule="evenodd" d="M17.8876 6.02923C18.882 2.46549 22.562 0.322705 26.1633 1.20881C24.77 4.43265 21.3921 6.40294 17.8876 6.02923Z" fill="#1A1A1A" fill-opacity="0.1"/>
<path fill-rule="evenodd" clip-rule="evenodd" d="M17.8876 6.02923C18.882 2.46549 22.562 0.322705 26.1633 1.20881C24.77 4.43265 21.3921 6.40294 17.8876 6.02923Z" fill="#DCF0EE"/>
<path fill-rule="evenodd" clip-rule="evenodd" d="M63.7258 13.2809C63.8981 13.5451 64.0663 13.8117 64.2306 14.0807C64.0663 13.8117 63.8981 13.5451 63.7258 13.2809ZM69.1768 29.0805C68.6308 20.0981 64.2907 11.706 57.2692 6.05176C57.2695 6.05205 57.2695 6.05235 57.2695 6.05261C57.2716 6.05943 57.2734 6.06625 57.2748 6.07307C57.2754 6.07478 57.276 6.07649 57.2763 6.0782C57.2769 6.07992 57.2772 6.08189 57.2775 6.08387C57.2778 6.08502 57.2778 6.08644 57.2781 6.08756C57.2784 6.09069 57.2787 6.09382 57.2787 6.09695C57.2787 6.10123 57.2784 6.10518 57.2775 6.10917C57.2775 6.10973 57.2775 6.11032 57.2772 6.11118C57.2766 6.11457 57.2757 6.11826 57.2745 6.12168C57.2737 6.12481 57.2722 6.12794 57.2707 6.13077C57.2683 6.13562 57.2657 6.14016 57.2621 6.14412C57.2597 6.14725 57.2574 6.15011 57.2544 6.15294C57.2506 6.15663 57.2464 6.15976 57.242 6.16233C57.2396 6.16375 57.2372 6.16516 57.2352 6.16628C57.2275 6.17 57.2192 6.17254 57.21 6.17369C57.2097 6.17369 57.2094 6.17369 57.2091 6.17369C57.1985 6.17511 57.1878 6.17623 57.1771 6.17738C57.1768 6.17738 57.1768 6.17768 57.1765 6.17738C63.9837 11.7952 68.1977 20.0581 68.7395 28.852C69.2654 37.3789 66.4285 45.5994 60.7518 51.9992C55.0752 58.3991 47.2382 62.2121 38.6847 62.7363C38.6827 62.7366 38.6803 62.7366 38.6779 62.7369C38.6776 62.7366 38.6773 62.7366 38.677 62.7369C38.6764 62.7369 38.6761 62.7369 38.6756 62.7369C38.2859 62.7865 37.8906 62.837 37.4947 62.8943C37.0983 62.8367 36.703 62.7865 36.3133 62.7369V62.7372C36.3122 62.7369 36.311 62.7366 36.3098 62.7366C36.308 62.7366 36.3065 62.7363 36.3048 62.7363C27.4723 62.195 19.1742 57.9844 13.5385 51.1837C2.27826 37.5961 4.19768 17.4137 17.8129 6.17738C17.8126 6.17768 17.8126 6.17738 17.8124 6.17738C17.8018 6.17623 17.791 6.17511 17.7804 6.17369C17.7802 6.17369 17.7799 6.17369 17.7796 6.17369C17.7705 6.17254 17.7622 6.17 17.7545 6.16628C17.7522 6.16516 17.7499 6.16375 17.7477 6.16233C17.7431 6.15976 17.7391 6.15663 17.7351 6.15294C17.7323 6.15011 17.7297 6.14725 17.7274 6.14412C17.724 6.14016 17.7212 6.13562 17.7189 6.13077C17.7175 6.12794 17.716 6.12481 17.7152 6.12168C17.7137 6.11826 17.7129 6.11457 17.7123 6.11118C17.712 6.11032 17.712 6.10973 17.712 6.10917C17.7112 6.10518 17.7109 6.10123 17.7109 6.09695C17.7109 6.09382 17.7112 6.09069 17.7114 6.08756C17.7117 6.08644 17.7117 6.08502 17.712 6.08387C17.7123 6.08189 17.7126 6.07992 17.7132 6.0782C17.7135 6.07649 17.714 6.07478 17.7146 6.07307C17.7163 6.06625 17.718 6.05943 17.72 6.05261C17.72 6.05235 17.72 6.05205 17.7203 6.05176C11.0367 11.4337 6.85175 19.0873 5.93636 27.6049C5.0204 36.1309 7.48948 44.5022 12.8894 51.1772C18.561 58.1875 26.9859 62.5215 36.0039 63.0672C36.091 63.0778 36.178 63.0885 36.2657 63.0994C36.1286 63.1263 35.9921 63.1546 35.8559 63.185C35.2492 63.3202 34.6416 63.4949 34.0539 63.6641C33.637 63.7839 33.2062 63.9079 32.7798 64.0165C32.5784 64.0679 32.3762 64.1166 32.1737 64.165C32.1686 64.1658 32.1636 64.1676 32.1589 64.17C32.1556 64.1715 32.1527 64.1729 32.1497 64.1747C32.1467 64.1768 32.1435 64.1791 32.1405 64.1815C32.139 64.183 32.1373 64.1844 32.1355 64.1865C32.1331 64.1883 32.131 64.1909 32.129 64.1939L31.3437 65.2394L31.3414 65.2426C31.3387 65.2462 31.3363 65.25 31.3346 65.2535C31.3328 65.2568 31.3313 65.2597 31.3301 65.263C31.3295 65.2642 31.3292 65.2654 31.3289 65.2665C31.3283 65.2683 31.3277 65.2704 31.3275 65.2721C31.3272 65.2739 31.3269 65.2763 31.3266 65.2783C31.3239 65.2937 31.3266 65.3093 31.3337 65.3232C31.3334 65.3235 31.3334 65.3235 31.3337 65.3235C31.3352 65.3268 31.3372 65.33 31.3393 65.3332C31.3411 65.3356 31.3426 65.3383 31.3449 65.3406C31.3464 65.3421 31.3482 65.3439 31.35 65.3453C31.3517 65.3477 31.3541 65.3495 31.3568 65.3512L31.3571 65.3515C31.3574 65.3515 31.3574 65.3518 31.3577 65.3521C31.3603 65.3542 31.3633 65.356 31.3659 65.3572C31.3689 65.3589 31.3722 65.3604 31.3748 65.3616C31.3769 65.3625 31.3793 65.3633 31.3813 65.3639C31.3825 65.3642 31.3837 65.3645 31.3849 65.3645C31.3873 65.3651 31.3896 65.3657 31.3923 65.366C31.3958 65.3666 31.3997 65.3669 31.4035 65.3669C31.4107 65.3669 31.4178 65.366 31.4246 65.3639C31.4263 65.3636 31.4278 65.3631 31.4293 65.3625C31.4323 65.3616 31.4349 65.3604 31.4376 65.3592C31.9848 65.0942 32.55 64.8199 33.1203 64.569C34.2306 64.0797 35.2317 63.734 36.1801 63.5123C36.6124 63.4114 37.0527 63.3323 37.495 63.2644C37.9368 63.3323 38.3774 63.4114 38.8094 63.5123C39.7578 63.734 40.7592 64.0797 41.8695 64.569C42.4395 64.8199 43.005 65.0942 43.5519 65.3592C43.5546 65.3604 43.5572 65.3616 43.5602 65.3625C43.5617 65.3631 43.5634 65.3636 43.5652 65.3639C43.572 65.366 43.5791 65.3669 43.5862 65.3669C43.5898 65.3669 43.5933 65.3666 43.5969 65.366C43.5993 65.3657 43.6019 65.3654 43.604 65.3645C43.6073 65.3642 43.6105 65.3634 43.6132 65.3619C43.6155 65.3613 43.6179 65.3604 43.6197 65.3592C43.6209 65.3586 43.6224 65.358 43.6235 65.3572C43.6265 65.356 43.6292 65.3542 43.6321 65.3521C43.6324 65.3518 43.6324 65.3515 43.6327 65.3515L43.633 65.3512C43.6354 65.3495 43.6378 65.3477 43.6398 65.3453C43.6416 65.3439 43.6431 65.3421 43.6446 65.3406C43.6469 65.3383 43.6487 65.3356 43.6502 65.3332C43.6526 65.33 43.6543 65.3265 43.6561 65.3232V65.3229C43.6573 65.3203 43.6585 65.3176 43.6594 65.3146C43.66 65.3132 43.6606 65.3117 43.6609 65.3102C43.6614 65.3082 43.662 65.3058 43.6626 65.3034C43.6629 65.3011 43.6632 65.2984 43.6635 65.2961C43.6635 65.2946 43.6638 65.2928 43.6638 65.2913C43.6641 65.2869 43.6638 65.2825 43.6632 65.2783C43.6632 65.2763 43.6629 65.2739 43.662 65.2721C43.6617 65.2704 43.6611 65.2683 43.6606 65.2665C43.6603 65.2654 43.66 65.2642 43.6594 65.263C43.6582 65.2597 43.657 65.2571 43.6555 65.2541C43.6555 65.2538 43.6552 65.2535 43.6549 65.253C43.6532 65.2497 43.6508 65.2462 43.6484 65.2426L43.6457 65.2394L42.8605 64.1939C42.8587 64.1909 42.8564 64.1883 42.854 64.1865C42.8525 64.1844 42.8507 64.183 42.849 64.1815C42.846 64.1791 42.843 64.1768 42.8398 64.1747C42.8371 64.1729 42.8339 64.1715 42.8306 64.17C42.8259 64.1676 42.8211 64.1658 42.8158 64.165C42.6136 64.1166 42.411 64.0679 42.2097 64.0165C41.7833 63.9079 41.3528 63.7839 40.9365 63.6641C40.3482 63.4949 39.7406 63.3202 39.1336 63.185C38.9977 63.1546 38.8609 63.1263 38.7238 63.0994C38.8115 63.0885 38.8985 63.0778 38.9856 63.0672L38.9865 63.0669C47.5713 62.5471 55.4391 58.7262 61.1412 52.3077C66.8442 45.8886 69.6977 37.6395 69.1768 29.0805Z" fill="#1A1A1A" fill-opacity="0.1"/>
<path fill-rule="evenodd" clip-rule="evenodd" d="M63.7258 13.2809C63.8981 13.5451 64.0663 13.8117 64.2306 14.0807C64.0663 13.8117 63.8981 13.5451 63.7258 13.2809ZM69.1768 29.0805C68.6308 20.0981 64.2907 11.706 57.2692 6.05176C57.2695 6.05205 57.2695 6.05235 57.2695 6.05261C57.2716 6.05943 57.2734 6.06625 57.2748 6.07307C57.2754 6.07478 57.276 6.07649 57.2763 6.0782C57.2769 6.07992 57.2772 6.08189 57.2775 6.08387C57.2778 6.08502 57.2778 6.08644 57.2781 6.08756C57.2784 6.09069 57.2787 6.09382 57.2787 6.09695C57.2787 6.10123 57.2784 6.10518 57.2775 6.10917C57.2775 6.10973 57.2775 6.11032 57.2772 6.11118C57.2766 6.11457 57.2757 6.11826 57.2745 6.12168C57.2737 6.12481 57.2722 6.12794 57.2707 6.13077C57.2683 6.13562 57.2657 6.14016 57.2621 6.14412C57.2597 6.14725 57.2574 6.15011 57.2544 6.15294C57.2506 6.15663 57.2464 6.15976 57.242 6.16233C57.2396 6.16375 57.2372 6.16516 57.2352 6.16628C57.2275 6.17 57.2192 6.17254 57.21 6.17369C57.2097 6.17369 57.2094 6.17369 57.2091 6.17369C57.1985 6.17511 57.1878 6.17623 57.1771 6.17738C57.1768 6.17738 57.1768 6.17768 57.1765 6.17738C63.9837 11.7952 68.1977 20.0581 68.7395 28.852C69.2654 37.3789 66.4285 45.5994 60.7518 51.9992C55.0752 58.3991 47.2382 62.2121 38.6847 62.7363C38.6827 62.7366 38.6803 62.7366 38.6779 62.7369C38.6776 62.7366 38.6773 62.7366 38.677 62.7369C38.6764 62.7369 38.6761 62.7369 38.6756 62.7369C38.2859 62.7865 37.8906 62.837 37.4947 62.8943C37.0983 62.8367 36.703 62.7865 36.3133 62.7369V62.7372C36.3122 62.7369 36.311 62.7366 36.3098 62.7366C36.308 62.7366 36.3065 62.7363 36.3048 62.7363C27.4723 62.195 19.1742 57.9844 13.5385 51.1837C2.27826 37.5961 4.19768 17.4137 17.8129 6.17738C17.8126 6.17768 17.8126 6.17738 17.8124 6.17738C17.8018 6.17623 17.791 6.17511 17.7804 6.17369C17.7802 6.17369 17.7799 6.17369 17.7796 6.17369C17.7705 6.17254 17.7622 6.17 17.7545 6.16628C17.7522 6.16516 17.7499 6.16375 17.7477 6.16233C17.7431 6.15976 17.7391 6.15663 17.7351 6.15294C17.7323 6.15011 17.7297 6.14725 17.7274 6.14412C17.724 6.14016 17.7212 6.13562 17.7189 6.13077C17.7175 6.12794 17.716 6.12481 17.7152 6.12168C17.7137 6.11826 17.7129 6.11457 17.7123 6.11118C17.712 6.11032 17.712 6.10973 17.712 6.10917C17.7112 6.10518 17.7109 6.10123 17.7109 6.09695C17.7109 6.09382 17.7112 6.09069 17.7114 6.08756C17.7117 6.08644 17.7117 6.08502 17.712 6.08387C17.7123 6.08189 17.7126 6.07992 17.7132 6.0782C17.7135 6.07649 17.714 6.07478 17.7146 6.07307C17.7163 6.06625 17.718 6.05943 17.72 6.05261C17.72 6.05235 17.72 6.05205 17.7203 6.05176C11.0367 11.4337 6.85175 19.0873 5.93636 27.6049C5.0204 36.1309 7.48948 44.5022 12.8894 51.1772C18.561 58.1875 26.9859 62.5215 36.0039 63.0672C36.091 63.0778 36.178 63.0885 36.2657 63.0994C36.1286 63.1263 35.9921 63.1546 35.8559 63.185C35.2492 63.3202 34.6416 63.4949 34.0539 63.6641C33.637 63.7839 33.2062 63.9079 32.7798 64.0165C32.5784 64.0679 32.3762 64.1166 32.1737 64.165C32.1686 64.1658 32.1636 64.1676 32.1589 64.17C32.1556 64.1715 32.1527 64.1729 32.1497 64.1747C32.1467 64.1768 32.1435 64.1791 32.1405 64.1815C32.139 64.183 32.1373 64.1844 32.1355 64.1865C32.1331 64.1883 32.131 64.1909 32.129 64.1939L31.3437 65.2394L31.3414 65.2426C31.3387 65.2462 31.3363 65.25 31.3346 65.2535C31.3328 65.2568 31.3313 65.2597 31.3301 65.263C31.3295 65.2642 31.3292 65.2654 31.3289 65.2665C31.3283 65.2683 31.3277 65.2704 31.3275 65.2721C31.3272 65.2739 31.3269 65.2763 31.3266 65.2783C31.3239 65.2937 31.3266 65.3093 31.3337 65.3232C31.3334 65.3235 31.3334 65.3235 31.3337 65.3235C31.3352 65.3268 31.3372 65.33 31.3393 65.3332C31.3411 65.3356 31.3426 65.3383 31.3449 65.3406C31.3464 65.3421 31.3482 65.3439 31.35 65.3453C31.3517 65.3477 31.3541 65.3495 31.3568 65.3512L31.3571 65.3515C31.3574 65.3515 31.3574 65.3518 31.3577 65.3521C31.3603 65.3542 31.3633 65.356 31.3659 65.3572C31.3689 65.3589 31.3722 65.3604 31.3748 65.3616C31.3769 65.3625 31.3793 65.3633 31.3813 65.3639C31.3825 65.3642 31.3837 65.3645 31.3849 65.3645C31.3873 65.3651 31.3896 65.3657 31.3923 65.366C31.3958 65.3666 31.3997 65.3669 31.4035 65.3669C31.4107 65.3669 31.4178 65.366 31.4246 65.3639C31.4263 65.3636 31.4278 65.3631 31.4293 65.3625C31.4323 65.3616 31.4349 65.3604 31.4376 65.3592C31.9848 65.0942 32.55 64.8199 33.1203 64.569C34.2306 64.0797 35.2317 63.734 36.1801 63.5123C36.6124 63.4114 37.0527 63.3323 37.495 63.2644C37.9368 63.3323 38.3774 63.4114 38.8094 63.5123C39.7578 63.734 40.7592 64.0797 41.8695 64.569C42.4395 64.8199 43.005 65.0942 43.5519 65.3592C43.5546 65.3604 43.5572 65.3616 43.5602 65.3625C43.5617 65.3631 43.5634 65.3636 43.5652 65.3639C43.572 65.366 43.5791 65.3669 43.5862 65.3669C43.5898 65.3669 43.5933 65.3666 43.5969 65.366C43.5993 65.3657 43.6019 65.3654 43.604 65.3645C43.6073 65.3642 43.6105 65.3634 43.6132 65.3619C43.6155 65.3613 43.6179 65.3604 43.6197 65.3592C43.6209 65.3586 43.6224 65.358 43.6235 65.3572C43.6265 65.356 43.6292 65.3542 43.6321 65.3521C43.6324 65.3518 43.6324 65.3515 43.6327 65.3515L43.633 65.3512C43.6354 65.3495 43.6378 65.3477 43.6398 65.3453C43.6416 65.3439 43.6431 65.3421 43.6446 65.3406C43.6469 65.3383 43.6487 65.3356 43.6502 65.3332C43.6526 65.33 43.6543 65.3265 43.6561 65.3232V65.3229C43.6573 65.3203 43.6585 65.3176 43.6594 65.3146C43.66 65.3132 43.6606 65.3117 43.6609 65.3102C43.6614 65.3082 43.662 65.3058 43.6626 65.3034C43.6629 65.3011 43.6632 65.2984 43.6635 65.2961C43.6635 65.2946 43.6638 65.2928 43.6638 65.2913C43.6641 65.2869 43.6638 65.2825 43.6632 65.2783C43.6632 65.2763 43.6629 65.2739 43.662 65.2721C43.6617 65.2704 43.6611 65.2683 43.6606 65.2665C43.6603 65.2654 43.66 65.2642 43.6594 65.263C43.6582 65.2597 43.657 65.2571 43.6555 65.2541C43.6555 65.2538 43.6552 65.2535 43.6549 65.253C43.6532 65.2497 43.6508 65.2462 43.6484 65.2426L43.6457 65.2394L42.8605 64.1939C42.8587 64.1909 42.8564 64.1883 42.854 64.1865C42.8525 64.1844 42.8507 64.183 42.849 64.1815C42.846 64.1791 42.843 64.1768 42.8398 64.1747C42.8371 64.1729 42.8339 64.1715 42.8306 64.17C42.8259 64.1676 42.8211 64.1658 42.8158 64.165C42.6136 64.1166 42.411 64.0679 42.2097 64.0165C41.7833 63.9079 41.3528 63.7839 40.9365 63.6641C40.3482 63.4949 39.7406 63.3202 39.1336 63.185C38.9977 63.1546 38.8609 63.1263 38.7238 63.0994C38.8115 63.0885 38.8985 63.0778 38.9856 63.0672L38.9865 63.0669C47.5713 62.5471 55.4391 58.7262 61.1412 52.3077C66.8442 45.8886 69.6977 37.6395 69.1768 29.0805Z" fill="#DCF0EE"/>
</g>
<defs>
<clipPath id="clip0">
<rect width="75" height="66" fill="white"/>
</clipPath>
</defs>
</svg>
