<svg width="31" height="31" viewBox="0 0 31 31" fill="none" xmlns="http://www.w3.org/2000/svg">
<path d="M9.25625 24.2876C7.60267 24.2876 6.25 25.6402 6.25 27.2939C6.25 28.9475 7.60267 30.3001 9.25625 30.3001C10.9098 30.3001 12.2626 28.9475 12.2626 27.2939C12.2625 25.6402 10.9098 24.2876 9.25625 24.2876ZM0.46875 0.700073V3.70632H3.475L8.88647 14.6677L6.62397 18.3499C6.39865 18.7257 6.24819 19.252 6.24819 19.7783C6.24819 21.7909 7.62305 22.7845 9.4875 22.7845H27.0625V19.8939H9.85555C9.63023 19.8939 9.47977 19.7434 9.47977 19.5181C9.47977 19.4432 9.63926 19.1423 9.63926 19.1423L11.1411 16.772H22.3389C23.4663 16.772 24.4439 16.171 24.9694 15.194L30.3808 5.88622C30.4702 5.70837 30.5312 5.43484 30.5312 5.13473C30.5312 4.30757 29.8546 3.7064 29.0281 3.7064H6.78216L5.35391 0.700073H0.46875ZM24.0562 24.2876C22.4026 24.2876 21.0499 25.6402 21.0499 27.2939C21.0499 28.9475 22.4026 30.3001 24.0562 30.3001C25.7098 30.3001 27.0625 28.9474 27.0625 27.2938C27.0625 25.6402 25.7098 24.2876 24.0562 24.2876Z" fill="white"/>
</svg>
