<svg width="36" height="24" viewBox="0 0 36 24" fill="none" xmlns="http://www.w3.org/2000/svg">
<path d="M0.96875 12.0937C0.976563 12.1367 0.988281 12.1797 1 12.2187C1.10547 12.6836 1.52344 13.0117 2 13L31.5312 13L22.3437 22.1875C22.1445 22.375 22.0352 22.6328 22.0312 22.9062C22.0352 23.3125 22.2812 23.6758 22.6602 23.8281C23.0352 23.9765 23.4687 23.8867 23.75 23.5937L34.6562 12.7187L35.3437 12L34.6562 11.2812L23.75 0.406232C23.5078 0.109357 23.1211 -0.0273619 22.7461 0.0585756C22.375 0.144513 22.082 0.437482 21.9961 0.808576C21.9102 1.18358 22.0469 1.57029 22.3437 1.81248L31.5312 11L2 11C1.71094 10.9883 1.43359 11.1055 1.23828 11.3125C1.03906 11.5234 0.941406 11.8086 0.96875 12.0937Z" fill="#409690"/>
</svg>
