<svg width="79" height="19" viewBox="0 0 79 19" fill="none" xmlns="http://www.w3.org/2000/svg">
<g clip-path="url(#clip0)">
<path fill-rule="evenodd" clip-rule="evenodd" d="M42.4732 4.60082C42.6632 4.79205 44.3733 9.348 44.5521 9.91047C44.7302 10.5131 44.9817 11.0912 45.301 11.6316C45.8934 11.7666 45.9492 11.1704 46.1281 10.6979C47.1005 8.14433 48.5759 4.42083 49.3136 1.91224C49.8277 0.697323 49.8724 0.371094 48.9447 0.371094C48.017 0.371094 48.1176 0.978554 47.7488 1.766C47.4246 3.26215 46.1728 6.4232 45.7145 7.87435C45.7145 8.06559 45.7145 8.06559 45.4798 8.06559C44.7086 5.90573 43.8144 3.26215 42.9426 1.12479C42.7079 0.708572 42.2943 0.618578 42.0149 1.55227C41.5455 3.03717 40.8972 4.8033 40.3942 6.24321C40.3942 6.24321 39.7906 8.06559 39.7459 8.15558C39.4263 7.63832 39.1922 7.07224 39.053 6.47944C38.36 4.75831 37.7564 2.90218 37.164 1.18104C37.0187 0.854812 37.0187 0.663575 36.6946 0.472337C36.3697 0.351163 36.0184 0.320081 35.6775 0.382343C34.7609 0.528584 35.3533 1.27103 35.5433 1.82225C36.661 4.8483 37.9017 8.48181 39.1424 11.3616C39.1714 11.433 39.2186 11.4954 39.2793 11.5425C39.3399 11.5897 39.4118 11.6199 39.4877 11.6302C39.5637 11.6404 39.6409 11.6304 39.7118 11.601C39.7826 11.5716 39.8445 11.524 39.8912 11.4629C40.0701 11.1141 42.339 4.60082 42.4732 4.60082Z" fill="#221F20"/>
<path fill-rule="evenodd" clip-rule="evenodd" d="M0.178892 0.562348C0.13269 0.749745 0.148384 0.94719 0.223601 1.12481C0.413612 1.91226 -0.145245 10.8892 5.79581e-05 11.2491C0.45248 11.4539 0.959723 11.5014 1.44191 11.3841C1.66545 11.1479 1.57603 10.9229 1.57603 10.5517C1.57603 8.96554 1.71016 7.43565 1.71016 5.8045C1.76605 5.19704 1.81075 4.78082 1.81075 4.40959C1.81075 4.03837 1.81075 4.08337 1.90017 3.99337C1.98959 3.90338 3.45379 6.46821 3.5991 6.74944C3.87852 7.30065 4.4262 8.14435 4.79505 8.79681C5.35391 9.82049 5.63333 9.12303 5.76746 8.8868C6.0916 8.47058 8.59528 4.04962 8.77411 3.95962C8.94177 4.13961 8.94177 8.56057 8.94177 8.8868C8.94177 11.3054 8.66234 11.5416 10.1824 11.4404C10.6519 11.4404 10.6966 11.0692 10.6519 10.6529C10.6519 9.86549 10.6519 8.97679 10.6519 8.18935C10.5289 6.18698 10.4395 3.90338 10.4395 1.91226C10.4395 1.67602 10.5289 0.787333 10.5289 0.652342C10.3921 0.497152 10.2067 0.39361 10.0035 0.358837C9.80025 0.324063 9.59131 0.360141 9.41121 0.461105C9.08707 0.652342 8.99765 1.06856 8.76293 1.3498C7.82405 3.02594 6.56104 4.92706 5.67804 6.51321C5.35391 7.07567 5.35391 6.88443 5.07448 6.51321C4.47091 5.62452 3.68851 4.09462 3.14083 3.20592L2.02312 1.3498C1.86776 1.02724 1.66837 0.728113 1.43073 0.461105C1.11777 0.236119 0.503029 0.416108 0.178892 0.562348Z" fill="#221F20"/>
<path fill-rule="evenodd" clip-rule="evenodd" d="M59.1607 5.77096C59.5563 5.44609 60.0255 5.22473 60.5267 5.1266C61.0279 5.02846 61.5454 5.0566 62.0332 5.2085C63.5086 5.86095 63.6986 8.05456 63.0503 9.12324C62.7742 9.53973 62.3765 9.85971 61.912 10.039C61.4476 10.2184 60.9392 10.2482 60.4572 10.1244C59.9903 10.0317 59.5483 9.83994 59.1607 9.56196V5.77096ZM59.1607 4.18481C59.091 2.95965 59.091 1.73147 59.1607 0.506307C59.1607 9.02214e-05 58.9818 -0.0899038 58.5124 0.0900843C57.3947 0.562553 57.3947 0.371316 57.5512 1.395C57.6406 1.91246 57.5512 7.90832 57.5512 8.75201C57.5512 10.4169 57.3164 10.7994 59.7195 11.4968C60.4038 11.6413 61.11 11.645 61.7957 11.5077C62.4814 11.3705 63.1325 11.0951 63.7098 10.6981C66.0681 8.75202 65.4199 3.26238 61.1167 3.6786C60.7416 3.69903 60.3682 3.74412 59.9989 3.81359C59.8536 3.85859 59.306 4.18481 59.2389 4.18481H59.1607Z" fill="#221F20"/>
<path fill-rule="evenodd" clip-rule="evenodd" d="M26.5681 11.3505C26.7429 10.7638 26.7924 10.1466 26.7134 9.53933C26.6676 8.90271 26.6676 8.26359 26.7134 7.62696C26.8475 7.62696 26.9928 7.86319 27.2722 8.14443C27.5516 8.42566 29.8541 10.8442 30.223 11.1142C30.3517 11.2348 30.5068 11.3231 30.6758 11.3719C30.8447 11.4208 31.0227 11.4289 31.1954 11.3955C31.5195 11.3955 32.0337 11.3955 32.2125 11.1705C32.2125 10.8442 31.5642 10.3268 31.2848 10.0456C31.0054 9.76432 30.6477 9.40434 30.3236 9.02187C29.6126 8.39216 28.9477 7.71169 28.334 6.98575C28.334 6.88451 30.8713 4.7359 31.3407 4.33093C31.5195 4.13969 31.7095 4.09469 31.6648 3.81346C31.0895 3.63485 30.4741 3.63485 29.8988 3.81346C29.6753 3.9147 28.144 5.30961 27.7305 5.68084C27.5963 5.81583 26.8028 6.65952 26.7134 6.61453C26.5792 6.18706 26.7134 0.371188 26.6239 0.0449595C26.5345 -0.281269 24.9585 0.236197 25.0033 0.79866C25.0909 1.19385 25.1358 1.59742 25.1374 2.00233V10.0456C25.1374 10.3268 25.048 11.1705 25.238 11.3055C25.6728 11.4173 26.1267 11.4327 26.5681 11.3505Z" fill="#221F20"/>
<path fill-rule="evenodd" clip-rule="evenodd" d="M14.5303 7.53695C15.0445 7.40196 16.7658 7.81818 16.844 8.2794C16.8887 8.77711 16.8887 9.27785 16.844 9.77555C16.5199 10.1918 14.2956 11.0242 13.5579 9.53932C13.4585 9.32838 13.4069 9.09783 13.4069 8.86436C13.4069 8.6309 13.4585 8.40035 13.5579 8.18941C13.6652 8.0179 13.8073 7.87112 13.9749 7.75869C14.1425 7.64626 14.3317 7.57069 14.5303 7.53695ZM16.8887 6.97449C16.4544 6.6849 15.9686 6.48246 15.458 6.37828C14.8218 6.30737 14.178 6.3531 13.5579 6.51327C13.0358 6.66377 12.5755 6.9789 12.2446 7.41232C11.9137 7.84574 11.7297 8.37459 11.7197 8.92109C11.7097 9.46758 11.8742 10.0029 12.189 10.4483C12.5038 10.8937 12.9523 11.2257 13.4685 11.3954C14.3526 11.6989 15.3116 11.6989 16.1957 11.3954C16.3857 11.3055 16.7546 11.0692 16.8887 11.0242C17.0228 10.9792 17.0787 11.3505 17.2575 11.4404C17.4364 11.5304 18.2747 11.4404 18.5094 11.2155C18.7441 10.9905 18.7888 11.0242 18.6435 10.698C18.4273 10.2675 18.3491 9.78013 18.42 9.30309V5.95081C18.4784 5.47615 18.3632 4.99629 18.0958 4.60089C17.2128 2.83476 11.8925 3.53221 12.3173 5.02837C12.742 6.52452 13.435 4.5109 15.7822 4.79213C17.0452 4.92712 16.9111 6.14204 16.9111 6.97449H16.8887Z" fill="#221F20"/>
<path fill-rule="evenodd" clip-rule="evenodd" d="M71.6008 6.74941H67.7671C67.8185 6.28751 68.0279 5.858 68.3595 5.53449C68.7214 5.21504 69.1761 5.02171 69.656 4.98328C69.906 4.9625 70.1575 4.99263 70.3956 5.07187C70.6338 5.15112 70.8536 5.27785 71.042 5.4445C71.2316 5.60152 71.3813 5.80185 71.4785 6.02882C71.5757 6.25579 71.6176 6.50283 71.6008 6.74941ZM67.6665 7.95308C67.9459 7.81809 72.1373 7.95308 72.8974 7.95308C73.6574 7.95308 73.3109 5.4445 71.925 4.42081C71.3587 3.99596 70.6847 3.74093 69.9806 3.68519C69.2765 3.62945 68.5711 3.77526 67.9459 4.10578C67.3206 4.43631 66.801 4.93808 66.447 5.55315C66.093 6.16823 65.919 6.87153 65.9452 7.58186C65.9187 8.27176 66.0782 8.95604 66.4068 9.56208C66.7354 10.1681 67.2209 10.6733 67.8118 11.0241C69.0524 11.8678 72.3832 11.8228 72.7968 10.5179C73.3109 8.84177 72.1038 9.77546 71.6791 9.95545C71.3219 10.1028 70.9454 10.1975 70.5614 10.2367C68.0912 10.5179 67.4876 8.32431 67.6665 7.95308Z" fill="#221F20"/>
<path fill-rule="evenodd" clip-rule="evenodd" d="M50.8896 6.74963C50.9288 6.26916 51.1458 5.82102 51.4977 5.49395C51.8496 5.16687 52.3107 4.9847 52.7897 4.9835C53.7509 4.88225 54.8686 5.72595 54.6786 6.74963H50.8896ZM50.6996 7.87456C50.9343 7.87456 55.2822 7.87456 55.8858 7.87456C56.4893 7.87456 56.3887 7.50333 56.344 7.04211C56.3114 6.4175 56.1181 5.81213 55.7831 5.28532C55.448 4.7585 54.9828 4.32829 54.4329 4.03684C53.8831 3.74538 53.2674 3.60268 52.6463 3.6227C52.0251 3.64272 51.4198 3.82478 50.8896 4.15105C50.2934 4.50555 49.8058 5.01859 49.4805 5.6338C49.1551 6.24902 49.0046 6.9426 49.0453 7.63832C48.9979 8.3251 49.1516 9.01081 49.4873 9.61062C49.823 10.2104 50.3261 10.698 50.9343 11.0131C52.5103 11.9918 55.6063 11.5756 55.8858 10.4619C55.8858 10.1357 56.1093 9.33696 55.6063 9.5282C54.9988 9.87388 54.3374 10.1135 53.6503 10.2369C53.2841 10.2862 52.9117 10.2618 52.5549 10.1653C52.198 10.0687 51.8637 9.90188 51.5714 9.67444C51.169 9.34821 50.5207 8.36952 50.6996 7.87456Z" fill="#221F20"/>
<path fill-rule="evenodd" clip-rule="evenodd" d="M75.8034 11.3955C76.0828 11.1142 76.0381 10.9792 76.0381 10.563V9.43809C76.0381 7.95319 75.7587 5.4896 77.4688 5.11837C77.8377 5.02838 77.9271 5.34336 78.3965 5.25336C78.6733 5.00339 78.8813 4.68563 79.0001 4.33092C79.0001 3.62222 77.8824 3.48723 76.8652 3.94845C76.5411 4.09469 76.2729 4.60091 76.0381 4.6459C76.0381 4.22968 76.1276 4.04969 75.8481 3.67847C75.4899 3.71304 75.1431 3.82427 74.831 4.0047C74.3727 4.22968 74.2833 4.22968 74.3727 4.79214C74.4622 5.35461 74.3727 9.2131 74.3727 10.1355C74.4174 11.5417 74.4174 11.4967 75.8034 11.3955Z" fill="#221F20"/>
<path fill-rule="evenodd" clip-rule="evenodd" d="M21.3036 11.3504V11.2604C21.4333 10.1179 21.467 8.9664 21.4042 7.81817C21.4042 6.92948 21.6277 5.48957 22.6002 5.20834C23.3826 4.92711 23.4273 5.66956 23.9414 5.20834C25.1374 3.94843 23.5279 3.44221 22.5555 3.85843C21.583 4.27465 21.7172 4.60088 21.4377 4.69088C21.4153 4.50783 21.4153 4.32271 21.4377 4.13966C21.4377 3.90343 21.3371 3.90343 21.2477 3.76844C20.8893 3.7655 20.5372 3.86287 20.2306 4.04967C19.7723 4.22966 19.627 4.27466 19.7723 4.83712C19.8707 5.69955 19.9006 6.56849 19.8618 7.4357V10.0005C19.9624 11.3954 19.7723 11.4967 21.3036 11.3504Z" fill="#221F20"/>
<path fill-rule="evenodd" clip-rule="evenodd" d="M42.149 12.8466C40.3039 13.0757 38.4896 13.5095 36.7393 14.1402C36.1916 14.3765 35.6216 14.5115 35.0739 14.7477C33.9562 15.1639 32.9056 15.5351 31.799 15.9626C31.4302 16.0976 28.7924 16.885 28.3341 16.9863C26.0987 17.5375 22.7455 18.19 20.6107 17.2113C19.5936 16.7051 19.493 18.28 21.8067 18.8424C23.1597 19.0809 24.5481 19.0195 25.8751 18.6624C26.9929 18.4262 28.3341 18.01 29.3959 17.6837C30.4578 17.3575 31.7096 16.9863 32.8609 16.6601C33.1403 16.5588 33.3638 16.4688 33.688 16.3788L35.3981 15.8614C35.7222 15.7714 35.9569 15.6364 36.2363 15.5351L38.0023 15.1189C38.3265 15.0289 38.5612 14.9389 38.8406 14.8377C41.1808 14.3352 43.5677 14.0863 45.9605 14.0952C46.5528 14.0952 47.4358 14.2415 48.0394 14.3315C49.1571 14.4665 48.9112 13.8702 48.1735 13.4878C46.2555 12.7481 44.1784 12.527 42.149 12.8466Z" fill="#F9CC46"/>
</g>
<defs>
<clipPath id="clip0">
<rect width="79" height="19" fill="white"/>
</clipPath>
</defs>
</svg>
