<?xml version="1.0" encoding="UTF-8"?>
<svg width="251px" height="138px" viewBox="0 0 251 138" version="1.1" xmlns="http://www.w3.org/2000/svg" xmlns:xlink="http://www.w3.org/1999/xlink">
    <!-- Generator: Sketch 63.1 (92452) - https://sketch.com -->
    <title>Group 122 (2)</title>
    <desc>Created with Sketch.</desc>
    <g id="Page-1" stroke="none" stroke-width="1" fill="none" fill-rule="evenodd">
        <g id="Group-122-(2)" fill-rule="nonzero">
            <g id="Group-25" transform="translate(7.000000, 79.000000)" fill="#2B2A29">
                <path d="M189.766109,0.00333333333 L187.015217,0.00333333333 L180.484871,16.844 L184.142775,16.844 L185.226072,13.864 L191.605724,13.864 L192.665563,16.844 L196.322757,16.844 L189.766109,0.00333333333 Z M186.211986,11.0966667 L188.479516,4.968 L190.673122,11.0966667 L186.213407,11.0966667 L186.211986,11.0966667 Z" id="Shape"></path>
                <path d="M177.060828,16.8406667 L177.060828,-1.50161365e-11 L165.886663,-1.50161365e-11 L165.886663,7.64066667 C165.886663,12.918 164.602203,13.9073333 162.810213,13.9073333 L162.30766,13.9073333 L162.30766,16.8406667 L163.692347,16.8406667 C167.42702,16.8406667 169.267345,14.9 169.267345,7.82866667 L169.267345,2.93133333 L173.55504,2.93133333 L173.55504,16.8406667 L177.060828,16.8406667 L177.060828,16.8406667 Z" id="Path"></path>
                <path d="M153.52471,0.00333333333 L150.773107,0.00333333333 L144.244182,16.844 L147.900664,16.844 L148.983961,13.864 L155.365035,13.864 L156.423453,16.844 L160.082068,16.844 L153.526131,0.00333333333 L153.52471,0.00333333333 Z M149.970586,11.0966667 L152.237406,4.968 L154.431722,11.0966667 L149.970586,11.0966667 Z" id="Shape"></path>
                <polygon id="Path" points="141.238815 16.8406667 141.238815 -1.50161365e-11 137.784207 -1.50161365e-11 133.116931 9.108 128.42691 -1.50161365e-11 124.973723 -1.50161365e-11 124.973723 16.8406667 128.475957 16.8406667 128.475957 7.024 131.931987 13.41 134.303298 13.41 137.731606 7.024 137.731606 16.8406667"></polygon>
                <path d="M115.001563,0.00333333333 L112.24996,0.00333333333 L105.719613,16.844 L109.376807,16.844 L110.459393,13.864 L116.841177,13.864 L117.900306,16.844 L121.557499,16.844 L115.001563,0.00333333333 L115.001563,0.00333333333 Z M111.446728,11.0966667 L113.714259,4.968 L115.908575,11.0966667 L111.446728,11.0966667 Z" id="Shape"></path>
                <polygon id="Path" points="93.1415695 16.8406667 93.1415695 8.04266667 99.4458742 16.8406667 103.733569 16.8406667 97.1001525 7.89933333 103.128657 -1.50161365e-11 98.9433211 -1.50161365e-11 93.1415695 7.99666667 93.1415695 -1.50161365e-11 89.6357819 -1.50161365e-11 89.6357819 16.8406667"></polygon>
                <path d="M70.6610262,0.00333333333 L63.702052,0.00333333333 L63.702052,16.844 L67.2071288,16.844 L67.2071288,10.5046667 L70.6610262,10.5046667 C74.1412242,10.5046667 76.5893046,8.328 76.5893046,5.25333333 C76.5893046,2.17666667 74.1156345,0.00333333333 70.6610262,0.00333333333 Z M70.4840309,7.55 L67.2071288,7.55 L67.2071288,2.938 L70.4840309,2.938 C72.0471345,2.938 73.0828061,3.86 73.0828061,5.25466667 C73.0828061,6.65066667 72.0471345,7.55 70.4840309,7.55 Z" id="Shape"></path>
                <polygon id="Path" points="59.5927031 2.93333333 59.5927031 -1.70352621e-11 46.7050951 -1.70352621e-11 46.7050951 2.93333333 51.3973914 2.93333333 51.3973914 16.8446667 54.904032 16.8446667 54.904032 2.93333333"></polygon>
                <path d="M40.3162023,0.00333333333 L37.5648841,0.00333333333 L31.0343239,16.844 L34.6925835,16.844 L35.7743165,13.864 L42.1556746,13.864 L43.2154432,16.844 L46.8724232,16.844 L40.3149939,0.00333333333 L40.3162023,0.00333333333 Z M36.7618654,11.0966667 L39.0303914,4.968 L41.224352,11.0966667 L36.7630738,11.0966667 L36.7618654,11.0966667 Z" id="Shape"></path>
                <polygon id="Path" points="28.4044856 16.8406667 28.4044856 13.9073333 20.0833579 13.9073333 20.0833579 9.81733333 27.1699963 9.81733333 27.1699963 6.884 20.0833579 6.884 20.0833579 2.93133333 28.4044856 2.93133333 28.4044856 -1.50161365e-11 16.5766462 -1.50161365e-11 16.5766462 16.8406667"></polygon>
                <polygon id="Path" points="12.8862574 2.93333333 12.8862574 -1.70352621e-11 1.57834799e-15 -1.70352621e-11 1.57834799e-15 2.93333333 4.69222521 2.93333333 4.69222521 16.8446667 8.19772851 16.8446667 8.19772851 2.93333333"></polygon>
            </g>
            <g id="Group-26" transform="translate(6.000000, 113.000000)" fill="#2B2A29">
                <polygon id="Path" points="4.26741356 2.90933333 4.26741356 8.524 2.85123051 8.524 2.85123051 2.90933333 0.955179661 2.90933333 0.955179661 1.72533333 6.16346441 1.72533333 6.16346441 2.90933333"></polygon>
                <path d="M10.5824339,8.524 L10.1564542,7.32133333 L7.57487797,7.32133333 L7.13914576,8.524 L5.65804068,8.524 L8.29955593,1.72533333 L9.40856949,1.72533333 L12.0610475,8.524 L10.5824339,8.524 Z M8.89075932,3.73133333 L7.97024746,6.20266667 L9.77695932,6.20266667 L8.89075932,3.73133333 L8.89075932,3.73133333 Z" id="Shape"></path>
                <polygon id="Path" points="14.8741932 2.90933333 14.8741932 8.524 13.457939 8.524 13.457939 2.90933333 11.5618881 2.90933333 11.5618881 1.72533333 16.7689627 1.72533333 16.7689627 2.90933333"></polygon>
                <path d="M21.1891424,8.524 L20.7631627,7.32133333 L18.1816576,7.32133333 L17.7458542,8.524 L16.2647492,8.524 L18.9062644,1.72533333 L20.015278,1.72533333 L22.6677559,8.524 L21.1891424,8.524 Z M19.497539,3.73133333 L18.5770271,6.20266667 L20.383739,6.20266667 L19.497539,3.73133333 L19.497539,3.73133333 Z" id="Shape"></path>
                <path d="M26.2171119,1.728 C27.6125797,1.728 28.6113966,2.60733333 28.6113966,3.84666667 C28.6113966,5.088 27.621122,5.966 26.2171119,5.966 L24.8217153,5.966 L24.8217153,8.52733333 L23.4042508,8.52733333 L23.4042508,1.728 L26.2171119,1.728 L26.2171119,1.728 Z M26.1437186,4.774 C26.7777763,4.774 27.1975627,4.40866667 27.1975627,3.84533333 C27.1975627,3.284 26.7777763,2.91266667 26.1437186,2.91266667 L24.8205051,2.91266667 L24.8205051,4.77266667 L26.1437186,4.77266667 L26.1437186,4.774 Z" id="Shape"></path>
                <path d="M32.0368881,8.58 C31.2413085,8.58 30.5888847,8.31533333 30.0796881,7.83466667 C29.3452576,7.14666667 29.3672542,6.296 29.3672542,5.12333333 C29.3672542,3.95 29.3464678,3.09933333 30.0796881,2.41133333 C30.5888847,1.936 31.2413085,1.67 32.0368881,1.67 C33.3931322,1.67 34.4507492,2.394 34.7065932,3.81533333 L33.267061,3.81533333 C33.1275356,3.27333333 32.7578644,2.85066667 32.0455017,2.85066667 C31.6586746,2.85066667 31.3441017,2.98466667 31.1372339,3.20466667 C30.8630237,3.49 30.7810169,3.81533333 30.7810169,5.12266667 C30.7810169,6.42933333 30.8630237,6.75466667 31.1372339,7.04266667 C31.3441017,7.26133333 31.6586746,7.39333333 32.0455017,7.39333333 C32.7578644,7.39333333 33.1275356,6.974 33.267061,6.428 L34.7065932,6.428 C34.449539,7.852 33.3833797,8.57733333 32.0368881,8.57733333 L32.0368881,8.58 Z" id="Path"></path>
                <polygon id="Path" points="35.6150746 8.524 35.6150746 1.72533333 37.0313288 1.72533333 37.0313288 4.95333333 39.3753559 1.72533333 41.0694508 1.72533333 38.6311729 4.91533333 41.314261 8.524 39.5798034 8.524 37.0313288 4.974 37.0313288 8.524"></polygon>
                <polygon id="Path" points="46.0931492 8.524 46.0931492 4.16 43.2705356 8.524 42.007261 8.524 42.007261 1.72533333 43.4235153 1.72533333 43.4235153 6.078 46.2462 1.72533333 47.5069119 1.72533333 47.5069119 8.524"></polygon>
                <path d="M52.9123831,8.52533333 L52.9123831,4.16066667 L50.0909797,8.52533333 L48.8252847,8.52533333 L48.8252847,1.726 L50.2427492,1.726 L50.2427492,6.07733333 L53.0653627,1.726 L54.3261458,1.726 L54.3261458,8.52533333 L52.9123831,8.52533333 L52.9123831,8.52533333 Z M51.5867492,1.364 C50.7812746,1.364 49.9783627,1.03066667 49.9355085,1.49362004e-13 L50.9355356,1.49362004e-13 C50.9661458,0.419333333 51.2219898,0.593333333 51.5879593,0.593333333 C51.9564203,0.593333333 52.2097729,0.419333333 52.2403831,1.49362004e-13 L53.2404102,1.49362004e-13 C53.1975559,1.03066667 52.3933627,1.364 51.5891695,1.364 L51.5867492,1.364 Z" id="Shape"></path>
                <polygon id="Path" points="59.3269932 2.90933333 59.3269932 8.524 57.9095288 8.524 57.9095288 1.72533333 62.4764237 1.72533333 62.4764237 2.90933333"></polygon>
                <path d="M68.4297458,5.37333333 C68.4297458,6.26066667 68.4197797,7.14933333 67.7079153,7.83666667 C67.1982203,8.33333333 66.5340508,8.582 65.7502881,8.582 C64.9608305,8.582 64.2909661,8.32533333 63.7819831,7.83666667 C63.0779492,7.15733333 63.0658475,6.14733333 63.0658475,5.41133333 L63.0658475,4.84933333 C63.0658475,3.49333333 63.2217458,2.95133333 63.7819831,2.41466667 C64.2909661,1.93 64.9608305,1.67 65.7502881,1.67 C66.5255085,1.67 67.1975085,1.92866667 67.7079153,2.41466667 C68.213339,2.90333333 68.4297458,3.55066667 68.4297458,4.64933333 L68.4297458,5.37333333 L68.4297458,5.37333333 Z M66.6564915,3.216 C66.433678,2.97666667 66.1161864,2.854 65.7502881,2.854 C65.3822542,2.854 65.052661,2.978 64.8298475,3.216 C64.5045254,3.55 64.4860169,4.18933333 64.4860169,5.032 L64.4860169,5.37333333 C64.4860169,6.082 64.4945593,6.72066667 64.8298475,7.03466667 C65.0768644,7.266 65.3822542,7.39666667 65.7502881,7.39666667 C66.1161864,7.39666667 66.433678,7.27533333 66.6564915,7.03466667 C66.9512034,6.72066667 67.0124237,6.38666667 67.0124237,5 C67.0124237,3.88333333 66.942661,3.51333333 66.6564915,3.216 L66.6564915,3.216 Z" id="Shape"></path>
                <path d="M71.9890678,8.58 C71.1932034,8.58 70.5411356,8.31533333 70.0314407,7.83466667 C69.2975085,7.14666667 69.3195763,6.296 69.3195763,5.12333333 C69.3195763,3.95 69.2982203,3.09933333 70.0314407,2.41133333 C70.5411356,1.936 71.1932034,1.67 71.9890678,1.67 C73.3451695,1.67 74.4051356,2.394 74.6571356,3.81533333 L73.2191695,3.81533333 C73.0782203,3.27333333 72.7101864,2.85066667 71.9976102,2.85066667 C71.6132034,2.85066667 71.2964237,2.98466667 71.0878475,3.20466667 C70.8152034,3.49 70.733339,3.81533333 70.733339,5.12266667 C70.733339,6.42933333 70.8152034,6.75466667 71.0878475,7.04266667 C71.2964237,7.26133333 71.6132034,7.39333333 71.9976102,7.39333333 C72.7101864,7.39333333 73.0782203,6.974 73.2191695,6.428 L74.6571356,6.428 C74.4051356,7.852 73.3352034,8.57733333 71.9890678,8.57733333 L71.9890678,8.58 Z" id="Path"></path>
                <path d="M78.0228305,7.37666667 C77.7487627,7.98733333 77.2497458,8.52133333 76.4026271,8.52133333 L75.537,8.52133333 L75.537,7.34 L76.1072034,7.34 C76.4944576,7.34 76.7279492,7.186 76.8589322,6.90866667 L77.0760508,6.44 L74.7539492,1.72533333 L76.2296441,1.72533333 L77.7501864,4.99866667 L79.1247966,1.72533333 L80.5933729,1.72533333 L78.0242542,7.37533333 L78.0228305,7.37666667 Z" id="Path"></path>
                <path d="M85.5764237,10.03 L85.5764237,8.52066667 L81.5508305,8.52066667 L81.5508305,10.03 L80.1847627,10.03 L80.1847627,7.33666667 L80.8681525,7.33666667 C81.4675424,6.47066667 81.7330678,5.02666667 81.7330678,3.464 L81.7330678,1.72533333 L86.1067627,1.72533333 L86.1067627,7.33666667 L86.9417797,7.33666667 L86.9417797,10.03 L85.5764237,10.03 L85.5764237,10.03 Z M84.6894407,2.91066667 L83.0891695,2.91066667 L83.0891695,3.89266667 C83.0891695,5.24 82.9460847,6.392 82.4470678,7.33733333 L84.6894407,7.33733333 L84.6894407,2.91066667 Z" id="Shape"></path>
                <path d="M92.3284576,8.524 L91.9027627,7.32133333 L89.3208305,7.32133333 L88.8851695,8.524 L87.4044915,8.524 L90.0469322,1.72533333 L91.1560169,1.72533333 L93.807,8.524 L92.3298814,8.524 L92.3284576,8.524 Z M90.6370678,3.73133333 L89.7180508,6.20266667 L91.5247627,6.20266667 L90.6370678,3.73133333 Z" id="Shape"></path>
                <path d="M97.3570678,1.728 C98.752322,1.728 99.7524915,2.60733333 99.7524915,3.84666667 C99.7524915,5.088 98.7608644,5.966 97.3570678,5.966 L95.9618136,5.966 L95.9618136,8.52733333 L94.5452034,8.52733333 L94.5452034,1.728 L97.3584915,1.728 L97.3570678,1.728 Z M97.2851695,4.774 C97.9187288,4.774 98.3387288,4.40866667 98.3387288,3.84533333 C98.3387288,3.284 97.9187288,2.91266667 97.2851695,2.91266667 L95.9618136,2.91266667 L95.9618136,4.77266667 L97.2851695,4.77266667 L97.2851695,4.774 Z" id="Shape"></path>
                <path d="M103.176559,8.58 C102.380695,8.58 101.729339,8.31533333 101.220356,7.83466667 C100.485,7.14666667 100.507068,6.296 100.507068,5.12333333 C100.507068,3.95 100.485712,3.09933333 101.220356,2.41133333 C101.728627,1.936 102.380695,1.67 103.176559,1.67 C104.532661,1.67 105.592627,2.394 105.846051,3.81533333 L104.408085,3.81533333 C104.267136,3.27333333 103.899814,2.85066667 103.185102,2.85066667 C102.802119,2.85066667 102.484627,2.98466667 102.280322,3.20466667 C102.002695,3.49 101.920831,3.81533333 101.920831,5.12266667 C101.920831,6.42933333 102.002695,6.75466667 102.280322,7.04266667 C102.484627,7.26133333 102.802119,7.39333333 103.185102,7.39333333 C103.89839,7.39333333 104.265712,6.974 104.408085,6.428 L105.846051,6.428 C105.592627,7.852 104.522695,8.57733333 103.176559,8.57733333 L103.176559,8.58 Z" id="Path"></path>
                <polygon id="Path" points="109.656661 2.90933333 109.656661 8.524 108.239339 8.524 108.239339 2.90933333 106.344356 2.90933333 106.344356 1.72533333 111.553068 1.72533333 111.553068 2.90933333"></polygon>
                <path d="M117.223068,5.40133333 C117.540559,5.71533333 117.671542,6.098 117.671542,6.57733333 C117.671542,7.76933333 116.814458,8.524 115.449814,8.524 L112.411576,8.524 L112.411576,1.72533333 L115.327373,1.72533333 C116.692017,1.72533333 117.571169,2.44933333 117.571169,3.59466667 C117.571169,4.24933333 117.275746,4.72533333 116.674932,5.03933333 C116.957542,5.18266667 117.071441,5.25933333 117.223068,5.40133333 L117.223068,5.40133333 Z M115.214898,4.474 C115.793644,4.474 116.154559,4.17933333 116.154559,3.69533333 C116.154559,3.20733333 115.795068,2.90933333 115.214898,2.90933333 L113.828898,2.90933333 L113.828898,4.474 L115.214898,4.474 Z M115.306729,7.34 C115.889034,7.34 116.25422,7.014 116.25422,6.50066667 C116.25422,5.984 115.889034,5.66733333 115.306729,5.66733333 L113.828898,5.66733333 L113.828898,7.34 L115.306729,7.34 Z" id="Shape"></path>
                <polygon id="Path" points="118.732932 8.524 118.732932 1.72533333 123.513814 1.72533333 123.513814 2.90933333 120.150254 2.90933333 120.150254 4.50466667 123.014085 4.50466667 123.014085 5.68666667 120.150254 5.68666667 120.150254 7.33866667 123.513814 7.33866667 123.513814 8.524"></polygon>
                <polygon id="Path" points="128.415 8.524 128.415 5.68133333 125.958356 5.68133333 125.958356 8.524 124.541034 8.524 124.541034 1.72533333 125.958356 1.72533333 125.958356 4.50466667 128.415 4.50466667 128.415 1.72533333 129.832322 1.72533333 129.832322 8.524"></polygon>
                <polygon id="Path" points="135.019678 8.524 135.019678 5.68133333 132.564458 5.68133333 132.564458 8.524 131.146424 8.524 131.146424 1.72533333 132.564458 1.72533333 132.564458 4.50466667 135.019678 4.50466667 135.019678 1.72533333 136.437 1.72533333 136.437 8.524"></polygon>
                <path d="M140.604966,8.524 L137.752525,8.524 L137.752525,1.72533333 L139.167712,1.72533333 L139.167712,4.28466667 L140.605678,4.28466667 C142.023712,4.28466667 142.961237,5.164 142.961237,6.40533333 C142.961237,7.64466667 142.010898,8.524 140.605678,8.524 L140.604966,8.524 Z M140.492492,5.47 L139.166288,5.47 L139.166288,7.33866667 L140.492492,7.33866667 C141.134593,7.33866667 141.543915,6.96866667 141.543915,6.40533333 C141.543915,5.852 141.134593,5.46866667 140.492492,5.46866667 L140.492492,5.47 Z M143.744288,1.72533333 L145.158051,1.72533333 L145.158051,8.524 L143.744288,8.524 L143.744288,1.72533333 Z" id="Shape"></path>
                <path d="M150.571068,8.52533333 L150.571068,4.16066667 L147.748525,8.52533333 L146.484254,8.52533333 L146.484254,1.726 L147.901576,1.726 L147.901576,6.07733333 L150.723407,1.726 L151.984831,1.726 L151.984831,8.52533333 L150.571068,8.52533333 Z M149.245576,1.364 C148.440458,1.364 147.636051,1.03066667 147.594051,1.49362004e-13 L148.59422,1.49362004e-13 C148.624119,0.419333333 148.881102,0.593333333 149.247,0.593333333 C149.615034,0.593333333 149.868458,0.419333333 149.899068,1.49362004e-13 L150.899237,1.49362004e-13 C150.856525,1.03066667 150.052119,1.364 149.248424,1.364 L149.245576,1.364 Z" id="Shape"></path>
                <path d="M159.663712,8.524 L159.238017,7.32133333 L156.656085,7.32133333 L156.220424,8.524 L154.739746,8.524 L157.380763,1.72533333 L158.489847,1.72533333 L161.141542,8.524 L159.663712,8.524 L159.663712,8.524 Z M157.973034,3.73133333 L157.052593,6.20266667 L158.859305,6.20266667 L157.973034,3.73133333 L157.973034,3.73133333 Z" id="Shape"></path>
                <polygon id="Path" points="161.891136 8.524 161.891136 1.72533333 163.308458 1.72533333 163.308458 4.95333333 165.652627 1.72533333 167.345441 1.72533333 164.908017 4.91533333 167.588898 8.524 165.855508 8.524 163.308458 4.974 163.308458 8.524"></polygon>
                <path d="M172.816831,8.524 L172.390424,7.32133333 L169.809203,7.32133333 L169.373542,8.524 L167.892153,8.524 L170.535305,1.72533333 L171.643678,1.72533333 L174.295373,8.524 L172.817542,8.524 L172.816831,8.524 Z M171.124729,3.73133333 L170.205712,6.20266667 L172.012424,6.20266667 L171.124729,3.73133333 Z" id="Shape"></path>
                <path d="M180.078559,10.03 L180.078559,8.52066667 L176.052254,8.52066667 L176.052254,10.03 L174.68761,10.03 L174.68761,7.33666667 L175.369576,7.33666667 C175.97039,6.47066667 176.234492,5.02666667 176.234492,3.464 L176.234492,1.72533333 L180.608186,1.72533333 L180.608186,7.33666667 L181.443203,7.33666667 L181.443203,10.03 L180.078559,10.03 L180.078559,10.03 Z M179.192288,2.91066667 L177.592017,2.91066667 L177.592017,3.89266667 C177.592017,5.24 177.448932,6.392 176.948492,7.33733333 L179.192288,7.33733333 L179.192288,2.91066667 L179.192288,2.91066667 Z" id="Shape"></path>
                <polygon id="Path" points="182.298153 8.524 182.298153 1.72533333 187.079034 1.72533333 187.079034 2.90933333 183.714051 2.90933333 183.714051 4.50466667 186.580017 4.50466667 186.580017 5.68666667 183.714051 5.68666667 183.714051 7.33866667 187.079034 7.33866667 187.079034 8.524"></polygon>
                <polygon id="Path" points="193.263712 8.524 193.263712 4.562 191.878424 7.13933333 190.920966 7.13933333 189.522153 4.562 189.522153 8.524 188.10839 8.524 188.10839 1.72533333 189.504356 1.72533333 191.399339 5.40133333 193.28578 1.72533333 194.681034 1.72533333 194.681034 8.524"></polygon>
                <polygon id="Path" points="200.087644 8.524 200.087644 4.16 197.266525 8.524 196.001542 8.524 196.001542 1.72533333 197.418153 1.72533333 197.418153 6.078 200.239271 1.72533333 201.501407 1.72533333 201.501407 8.524"></polygon>
                <path d="M206.236729,8.52533333 L206.236729,5.97533333 C205.862288,6.03266667 205.166797,6.15466667 204.389441,6.15466667 C203.465441,6.15466667 202.536458,5.63266667 202.536458,4.50466667 L202.536458,1.72533333 L203.95378,1.72533333 L203.95378,4.16 C203.95378,4.75333333 204.349576,4.974 204.860695,4.974 C205.297068,4.974 205.940593,4.88533333 206.235305,4.83133333 L206.235305,1.726 L207.639814,1.726 L207.639814,8.52533333 L206.235305,8.52533333 L206.236729,8.52533333 Z" id="Path"></path>
                <polygon id="Path" points="208.963169 8.524 208.963169 1.72533333 213.744763 1.72533333 213.744763 2.90933333 210.381203 2.90933333 210.381203 4.50466667 213.245034 4.50466667 213.245034 5.68666667 210.381203 5.68666667 210.381203 7.33866667 213.744763 7.33866667 213.744763 8.524"></polygon>
                <path d="M217.142492,8.58 C216.346627,8.58 215.694559,8.31533333 215.185576,7.83466667 C214.450932,7.14666667 214.473,6.296 214.473,5.12333333 C214.473,3.95 214.452356,3.09933333 215.185576,2.41133333 C215.694559,1.936 216.346627,1.67 217.142492,1.67 C218.498593,1.67 219.556424,2.394 219.811983,3.81533333 L218.374017,3.81533333 C218.234492,3.27333333 217.865034,2.85066667 217.152458,2.85066667 C216.768051,2.85066667 216.450559,2.98466667 216.247678,3.20466667 C215.970051,3.49 215.888186,3.81533333 215.888186,5.12266667 C215.888186,6.42933333 215.970051,6.75466667 216.247678,7.04266667 C216.450559,7.26133333 216.768051,7.39333333 217.152458,7.39333333 C217.865034,7.39333333 218.234492,6.974 218.374017,6.428 L219.811983,6.428 C219.556424,7.852 218.488627,8.57733333 217.142492,8.57733333 L217.142492,8.58 Z" id="Path"></path>
                <polygon id="Path" points="220.722458 8.524 220.722458 1.72533333 222.138356 1.72533333 222.138356 4.95333333 224.482525 1.72533333 226.175339 1.72533333 223.738627 4.91533333 226.421644 8.524 224.686119 8.524 222.138356 4.974 222.138356 8.524"></polygon>
                <polygon id="Path" points="231.199678 8.524 231.199678 4.16 228.377136 8.524 227.112864 8.524 227.112864 1.72533333 228.530186 1.72533333 228.530186 6.078 231.352017 1.72533333 232.616288 1.72533333 232.616288 8.524"></polygon>
                <path d="M238.019339,8.52533333 L238.019339,4.16066667 L235.196797,8.52533333 L233.932525,8.52533333 L233.932525,1.726 L235.349847,1.726 L235.349847,6.07733333 L238.171678,1.726 L239.433814,1.726 L239.433814,8.52533333 L238.019339,8.52533333 Z M236.693847,1.364 C235.890153,1.364 235.085746,1.03066667 235.043034,1.49362004e-13 L236.042492,1.49362004e-13 C236.073102,0.419333333 236.329373,0.593333333 236.693847,0.593333333 C237.062593,0.593333333 237.316017,0.419333333 237.346627,1.49362004e-13 L238.346797,1.49362004e-13 C238.303373,1.03066667 237.499678,1.364 236.693847,1.364 Z" id="Shape"></path>
                <polygon id="Path" points="4.26741356 12.9633333 4.26741356 18.5766667 2.85123051 18.5766667 2.85123051 12.9633333 0.955179661 12.9633333 0.955179661 11.7806667 6.16346441 11.7806667 6.16346441 12.9633333"></polygon>
                <polygon id="Path" points="7.02232881 18.578 7.02232881 11.7806667 11.8034949 11.7806667 11.8034949 12.9646667 8.43979322 12.9646667 8.43979322 14.56 11.3053322 14.56 11.3053322 15.742 8.43979322 15.742 8.43979322 17.394 11.8034949 17.394 11.8034949 18.578"></polygon>
                <path d="M17.3094814,18.578 L16.8822915,17.3753333 L14.3007864,17.3753333 L13.8650542,18.578 L12.3839492,18.578 L15.0254644,11.7806667 L16.1356881,11.7806667 L18.7869559,18.578 L17.3094814,18.578 Z M15.617878,13.7866667 L14.6961559,16.258 L16.504078,16.258 L15.617878,13.7866667 Z" id="Shape"></path>
                <polygon id="Path" points="21.6005288 12.9633333 21.6005288 18.5766667 20.1842746 18.5766667 20.1842746 12.9633333 18.2895051 12.9633333 18.2895051 11.7806667 23.4977898 11.7806667 23.4977898 12.9633333"></polygon>
                <path d="M27.1683051,11.7806667 C28.5637017,11.7806667 29.5638,12.6593333 29.5638,13.8986667 C29.5638,15.1393333 28.5723153,16.0186667 27.1683051,16.0186667 L25.7729085,16.0186667 L25.7729085,18.578 L24.3566542,18.578 L24.3566542,11.7806667 L27.1695153,11.7806667 L27.1683051,11.7806667 Z M27.0948407,14.8253333 C27.7288983,14.8253333 28.1487559,14.4626667 28.1487559,13.8986667 C28.1487559,13.336 27.7276881,12.9646667 27.0948407,12.9646667 L25.7716983,12.9646667 L25.7716983,14.8253333 L27.0948407,14.8253333 Z" id="Shape"></path>
                <polygon id="Path" points="36.6995288 18.578 36.6995288 14.2153333 33.8781254 18.578 32.6136407 18.578 32.6136407 11.7806667 34.0311051 11.7806667 34.0311051 16.132 36.8525797 11.7806667 38.1169932 11.7806667 38.1169932 18.578"></polygon>
                <polygon id="Path" points="44.5908305 18.578 44.5908305 14.6173333 43.2039763 17.1946667 42.2467322 17.1946667 40.8477051 14.6173333 40.8477051 18.578 39.4351525 18.578 39.4351525 11.7806667 40.8305492 11.7806667 42.7253898 15.4566667 44.6116169 11.7806667 46.0070136 11.7806667 46.0070136 18.578"></polygon>
                <polygon id="Path" points="47.3271661 18.578 47.3271661 11.7806667 52.1083322 11.7806667 52.1083322 12.9646667 48.7446305 12.9646667 48.7446305 14.56 51.6088881 14.56 51.6088881 15.742 48.7446305 15.742 48.7446305 17.394 52.1083322 17.394 52.1083322 18.578"></polygon>
                <polygon id="Path" points="57.0082373 18.578 57.0082373 15.7353333 54.5515932 15.7353333 54.5515932 18.578 53.1354102 18.578 53.1354102 11.7806667 54.5515932 11.7806667 54.5515932 14.56 57.0082373 14.56 57.0082373 11.7806667 58.4257017 11.7806667 58.4257017 18.578"></polygon>
                <polygon id="Path" points="63.8268305 18.578 63.8268305 14.2153333 61.005 18.578 59.7395898 18.578 59.7395898 11.7806667 61.1580508 11.7806667 61.1580508 16.132 63.9798814 11.7806667 65.2441525 11.7806667 65.2441525 18.578"></polygon>
                <polygon id="Path" points="70.2414407 12.9633333 70.2414407 18.5766667 68.827678 18.5766667 68.827678 11.7806667 73.3928644 11.7806667 73.3928644 12.9633333"></polygon>
                <path d="M77.6704576,18.578 L77.243339,17.3753333 L74.6635424,17.3753333 L74.2271695,18.578 L72.7464915,18.578 L75.3889322,11.7806667 L76.4980169,11.7806667 L79.1497119,18.578 L77.6718814,18.578 L77.6704576,18.578 Z M75.9790678,13.7866667 L75.0600508,16.258 L76.8667627,16.258 L75.9790678,13.7866667 Z" id="Shape"></path>
                <path d="M84.1035763,18.578 L84.1035763,12.9646667 L82.3730339,12.9646667 L82.3730339,14.94 C82.3730339,17.7966667 81.6262881,18.578 80.1178475,18.578 L79.5576102,18.578 L79.5576102,17.394 L79.7604915,17.394 C80.4865932,17.394 81.0041186,16.9953333 81.0041186,14.8653333 L81.0041186,11.7806667 L85.5208983,11.7806667 L85.5208983,18.578 L84.1035763,18.578 Z" id="Path"></path>
                <polygon id="Path" points="90.9282203 18.578 90.9282203 14.2153333 88.105678 18.578 86.8414068 18.578 86.8414068 11.7806667 88.2587288 11.7806667 88.2587288 16.132 91.0798475 11.7806667 92.3419831 11.7806667 92.3419831 18.578"></polygon>
                <path d="M98.0048644,18.578 L97.5784576,17.3753333 L94.9972373,17.3753333 L94.5615763,18.578 L93.0801864,18.578 L95.723339,11.7806667 L96.8324237,11.7806667 L99.4834068,18.578 L98.0062881,18.578 L98.0048644,18.578 Z M96.3134746,13.7866667 L95.3937458,16.258 L97.1990339,16.258 L96.3134746,13.7866667 Z" id="Shape"></path>
                <path d="M102.424119,18.6326667 C101.628254,18.6326667 100.976186,18.368 100.466492,17.8886667 C99.7325593,17.2 99.7539153,16.3506667 99.7539153,15.178 C99.7539153,14.004 99.7332712,13.1546667 100.466492,12.4666667 C100.976186,11.99 101.628254,11.7253333 102.424119,11.7253333 C103.78022,11.7253333 104.840186,12.4506667 105.09361,13.872 L103.655644,13.872 C103.515407,13.33 103.145949,12.9066667 102.433373,12.9066667 C102.049678,12.9066667 101.732186,13.0413333 101.529305,13.2613333 C101.250966,13.5453333 101.169102,13.872 101.169102,15.1786667 C101.169102,16.486 101.250966,16.8113333 101.529305,17.0993333 C101.732186,17.3193333 102.049678,17.45 102.433373,17.45 C103.145949,17.45 103.515407,17.03 103.655644,16.4846667 L105.09361,16.4846667 C104.84161,17.9086667 103.770254,18.6326667 102.424119,18.6326667 L102.424119,18.6326667 Z" id="Path"></path>
                <polygon id="Path" points="107.423542 12.9633333 107.423542 18.5766667 106.010492 18.5766667 106.010492 11.7806667 110.574966 11.7806667 110.574966 12.9633333"></polygon>
                <path d="M114.853271,18.578 L114.426864,17.3753333 L111.845644,17.3753333 L111.410695,18.578 L109.930017,18.578 L112.572458,11.7806667 L113.681542,11.7806667 L116.332525,18.578 L114.853983,18.578 L114.853271,18.578 Z M113.162593,13.7866667 L112.242153,16.258 L114.050288,16.258 L113.162593,13.7866667 Z" id="Shape"></path>
                <path d="M119.882593,11.7806667 C121.277847,11.7806667 122.278017,12.6593333 122.278017,13.8986667 C122.278017,15.1393333 121.289237,16.0186667 119.882593,16.0186667 L118.488763,16.0186667 L118.488763,18.578 L117.071441,18.578 L117.071441,11.7806667 L119.884017,11.7806667 L119.882593,11.7806667 Z M119.810695,14.8253333 C120.444254,14.8253333 120.864254,14.4626667 120.864254,13.8986667 C120.864254,13.336 120.444254,12.9646667 119.810695,12.9646667 L118.488763,12.9646667 L118.488763,14.8253333 L119.810695,14.8253333 Z" id="Shape"></path>
                <path d="M126.882356,18.578 L126.456661,17.3753333 L123.874729,17.3753333 L123.439068,18.578 L121.95839,18.578 L124.599407,11.7806667 L125.708492,11.7806667 L128.360186,18.578 L126.882356,18.578 L126.882356,18.578 Z M125.190966,13.7866667 L124.271949,16.258 L126.078661,16.258 L125.190966,13.7866667 Z" id="Shape"></path>
                <polygon id="Path" points="131.136458 18.578 131.136458 11.7806667 132.55378 11.7806667 132.55378 15.0073333 134.897949 11.7806667 136.592186 11.7806667 134.154763 14.9706667 136.835644 18.578 135.102254 18.578 132.55378 15.028 132.55378 18.578"></polygon>
                <path d="M142.062153,18.578 L141.635746,17.3753333 L139.054525,17.3753333 L138.618864,18.578 L137.137475,18.578 L139.779203,11.7806667 L140.888288,11.7806667 L143.539271,18.578 L142.062153,18.578 L142.062153,18.578 Z M140.370051,13.7866667 L139.448186,16.258 L141.256322,16.258 L140.370051,13.7866667 Z" id="Shape"></path>
                <polygon id="Path" points="149.43422 18.578 149.43422 14.6173333 148.048932 17.1946667 147.091475 17.1946667 145.692661 14.6173333 145.692661 18.578 144.278898 18.578 144.278898 11.7806667 145.675576 11.7806667 147.569847 15.4566667 149.456288 11.7806667 150.851542 11.7806667 150.851542 18.578"></polygon>
                <path d="M156.517983,18.578 L156.090864,17.3753333 L153.509644,17.3753333 L153.073983,18.578 L151.594017,18.578 L154.235034,11.7806667 L155.344119,11.7806667 L157.996525,18.578 L156.519407,18.578 L156.517983,18.578 Z M154.826593,13.7866667 L153.904729,16.258 L155.712864,16.258 L154.826593,13.7866667 Z" id="Shape"></path>
                <path d="M162.951102,18.578 L162.951102,12.9646667 L161.219847,12.9646667 L161.219847,14.94 C161.219847,17.7966667 160.474525,18.578 158.965373,18.578 L158.404424,18.578 L158.404424,17.394 L158.608017,17.394 C159.334119,17.394 159.85022,16.9953333 159.85022,14.8653333 L159.85022,11.7806667 L164.367,11.7806667 L164.367,18.578 L162.949678,18.578 L162.951102,18.578 Z" id="Path"></path>
                <path d="M170.034153,18.578 L169.608458,17.3753333 L167.026525,17.3753333 L166.592288,18.578 L165.109475,18.578 L167.752627,11.7806667 L168.862424,11.7806667 L171.514119,18.578 L170.035576,18.578 L170.034153,18.578 Z M168.342763,13.7866667 L167.423034,16.258 L169.231169,16.258 L168.343475,13.7866667 L168.342763,13.7866667 Z" id="Shape"></path>
            </g>
            <path d="M247.510053,134.597973 L3.48598433,134.597973 L3.48598433,110.397893 L247.510053,110.397893 L247.510053,134.597973 Z M251,107 L247.510053,107 L3.48959316,107 L0,107 L0,110.397893 L0,134.597973 L0,138 L3.48959316,138 L247.510053,138 L251,138 L251,134.597973 L251,110.397893 L251,107 Z" id="Shape" fill="#0B7870"></path>
            <path d="M247.510804,4.65962267 L247.510804,100.498324 L3.48957778,100.498324 L3.48957778,75.5555373 L247.510804,4.65962267 L247.510804,4.65962267 Z M251,0 L246.537141,1.29556343 L2.51982763,72.1937576 L0,72.9223563 L0,75.5555373 L0,100.498324 L0,104 L3.48957778,104 L247.510804,104 L251,104 L251,100.498324 L251,4.65962267 L251,0 L251,0 Z" id="Shape" fill="#0B7870"></path>
        </g>
    </g>
</svg>