<?xml version="1.0" encoding="UTF-8"?>
<svg width="256px" height="142px" viewBox="0 0 256 142" version="1.1" xmlns="http://www.w3.org/2000/svg" xmlns:xlink="http://www.w3.org/1999/xlink">
    <!-- Generator: Sketch 63.1 (92452) - https://sketch.com -->
    <title>Group 123 (2)</title>
    <desc>Created with Sketch.</desc>
    <g id="Page-1" stroke="none" stroke-width="1" fill="none" fill-rule="evenodd">
        <g id="Group-123-(2)" fill-rule="nonzero">
            <g id="Group-22" transform="translate(7.000000, 81.000000)" fill="#2B2A29">
                <path d="M187.777959,6.7773 L184.170816,6.7773 L184.170816,0.0035625 L180.609123,0.0035625 L180.609123,18.002025 L187.776516,18.002025 C191.310795,18.002025 193.691509,15.6742875 193.691509,12.38895 C193.691509,9.104325 191.335323,6.775875 187.776516,6.775875 L187.777959,6.7773 Z M187.497323,14.867025 L184.170816,14.867025 L184.170816,9.913725 L187.497323,9.913725 C189.108995,9.913725 190.131259,10.9247625 190.131259,12.3910875 C190.131259,13.8830625 189.108995,14.86845 187.497323,14.86845 L187.497323,14.867025 Z" id="Shape"></path>
                <polygon id="Path" points="199.219095 0.0035625 195.661009 0.0035625 195.661009 18.002025 199.219095 18.002025"></polygon>
                <path d="M171.218288,0.0035625 L164.154781,0.0035625 L164.154781,18.002025 L167.712866,18.002025 L167.712866,11.2268625 L171.218288,11.2268625 C174.748959,11.2268625 177.230673,8.90055 177.230673,5.6145 C177.230673,2.3263125 174.723709,0.0035625 171.218288,0.0035625 Z M171.038652,8.0690625 L167.712866,8.0690625 L167.712866,3.1399875 L171.038652,3.1399875 C172.625073,3.1399875 173.676916,4.125375 173.676916,5.615925 C173.676916,7.1079 172.626516,8.0690625 171.038652,8.0690625 Z" id="Shape"></path>
                <polygon id="Path" points="160.834045 3.135 160.834045 -1.60484959e-11 147.755266 -1.60484959e-11 147.755266 3.135 152.518859 3.135 152.518859 17.9984625 156.075502 17.9984625 156.075502 3.135"></polygon>
                <path d="M141.273231,0.0035625 L138.480581,0.0035625 L131.852816,18.002025 L135.565288,18.002025 L136.664745,14.81715 L143.140288,14.81715 L144.215216,18.002025 L147.928409,18.002025 L141.271788,0.0035625 L141.273231,0.0035625 Z M137.666809,11.8595625 L139.968166,5.30955 L142.193773,11.8595625 L137.666809,11.8595625 Z" id="Shape"></path>
                <polygon id="Path" points="129.183531 17.9984625 129.183531 14.8634625 120.737045 14.8634625 120.737045 10.492275 127.929688 10.492275 127.929688 7.357275 120.737045 7.357275 120.737045 3.136425 129.183531 3.136425 129.183531 -1.60484959e-11 117.178959 -1.60484959e-11 117.178959 17.9984625"></polygon>
                <polygon id="Path" points="113.861831 3.135 113.861831 -1.60484959e-11 100.783052 -1.60484959e-11 100.783052 3.135 105.545923 3.135 105.545923 17.9984625 109.103288 17.9984625 109.103288 3.135"></polygon>
                <path d="M86.5954377,17.9984625 L86.5954377,-1.60484959e-11 L75.2545806,-1.60484959e-11 L75.2545806,8.1659625 C75.2545806,13.8061125 73.9509591,14.8634625 72.1315163,14.8634625 L71.6214663,14.8634625 L71.6214663,17.9984625 L73.0260877,17.9984625 C76.8164734,17.9984625 78.6835306,15.924375 78.6835306,8.3668875 L78.6835306,3.136425 L83.0351877,3.136425 L83.0351877,17.9984625 L86.5932734,17.9984625 L86.5954377,17.9984625 Z" id="Path"></path>
                <path d="M63.1334263,0.0035625 L60.3410649,0.0035625 L53.7143827,18.002025 L57.4259163,18.002025 L58.5250127,14.81715 L65.0016377,14.81715 L66.0758449,18.002025 L69.7890377,18.002025 L63.1321999,0.0035625 L63.1334263,0.0035625 Z M59.526067,11.8595625 L61.8272077,5.30955 L64.053897,11.8595625 L59.526067,11.8595625 Z" id="Shape"></path>
                <polygon id="Path" points="51.0891763 17.9984625 51.0891763 -1.60484959e-11 47.5835384 -1.60484959e-11 42.8498127 9.734175 38.0875184 -1.60484959e-11 34.583107 -1.60484959e-11 34.583107 17.9984625 38.1371527 17.9984625 38.1371527 7.5069 41.6452434 14.3319375 44.051857 14.3319375 47.5313791 7.5069 47.5313791 17.9984625"></polygon>
                <path d="M25.314842,0.0035625 L22.5224806,0.0035625 L15.8957263,18.002025 L19.6072599,18.002025 L20.7063563,14.81715 L27.1829813,14.81715 L28.2560341,18.002025 L31.9687941,18.002025 L25.312317,0.0035625 L25.314842,0.0035625 Z M21.7074827,11.8595625 L24.0085513,5.30955 L26.2352406,11.8595625 L21.7074827,11.8595625 Z" id="Shape"></path>
                <polygon id="Path" points="3.55771057 17.9984625 3.55771057 8.5956 9.95620486 17.9984625 14.307862 17.9984625 7.57448057 8.4424125 13.6925556 -1.60484959e-11 9.44391843 -1.60484959e-11 3.55771057 8.5464375 3.55771057 -1.60484959e-11 -1.70601628e-13 -1.60484959e-11 -1.70601628e-13 17.9984625"></polygon>
            </g>
            <g id="Group-21" transform="translate(5.000000, 116.000000)" fill="#2B2A29">
                <path d="M53.5578477,0.0609 C54.9868441,0.0609 56.0110237,0.9842 56.0110237,2.2855 C56.0110237,3.5889 54.9969043,4.5108 53.5578477,4.5108 L52.1288514,4.5108 L52.1288514,7.2002 L50.677256,7.2002 L50.677256,0.0609 L53.5578477,0.0609 L53.5578477,0.0609 Z M53.4826144,3.2592 C54.1319395,3.2592 54.5631461,2.8791 54.5631461,2.2841 C54.5631461,1.6947 54.1319395,1.3048 53.4826144,1.3048 L52.1288514,1.3048 L52.1288514,3.2578 L53.4826144,3.2578 L53.4826144,3.2592 Z" id="Shape"></path>
                <polygon id="Path" points="59.1562444 7.1967 59.1562444 0.0581 60.607767 0.0581 60.607767 3.4475 63.0069965 0.0581 64.7418835 0.0581 62.2461336 3.4076 64.9913491 7.1967 63.2163669 7.1967 60.607767 3.4692 60.607767 7.1967"></polygon>
                <path d="M70.3445813,7.1967 L69.9086361,5.9339 L67.2645336,5.9339 L66.8183823,7.1967 L65.3018325,7.1967 L68.0066611,0.0581 L69.1424514,0.0581 L71.8579964,7.1967 L70.3445813,7.1967 L70.3445813,7.1967 Z M68.6124645,2.1644 L67.6684026,4.7593 L69.5200762,4.7593 L68.6124645,2.1644 Z" id="Shape"></path>
                <polygon id="Path" points="77.8941608 7.1967 77.8941608 3.0366 76.4740583 5.7428 75.4935461 5.7428 74.0610506 3.0366 74.0610506 7.1967 72.613246 7.1967 72.613246 0.0581 74.0435545 0.0581 75.9841667 3.9179 77.9153019 0.0581 79.3448815 0.0581 79.3448815 7.1967"></polygon>
                <path d="M85.1506801,7.1967 L84.7132769,5.9339 L82.0699035,5.9339 L81.6237522,7.1967 L80.1081501,7.1967 L82.81276,0.0581 L83.9500083,0.0581 L86.6648243,7.1967 L85.1521382,7.1967 L85.1506801,7.1967 Z M83.4185634,2.1644 L82.4745015,4.7593 L84.3261751,4.7593 L83.4185634,2.1644 Z" id="Shape"></path>
                <path d="M91.7365146,7.1953 L91.7365146,1.2999 L89.9643025,1.2999 L89.9643025,3.374 C89.9643025,6.3735 89.1995759,7.1953 87.6555426,7.1953 L87.0810863,7.1953 L87.0810863,5.9507 L87.2895819,5.9507 C88.0324383,5.9507 88.5631542,5.5321 88.5631542,3.297 L88.5631542,0.0581 L93.1872352,0.0581 L93.1872352,7.1967 L91.7357856,7.1967 L91.7365146,7.1953 Z" id="Path"></path>
                <polygon id="Path" points="101.020398 7.1967 101.020398 2.618 98.1291626 7.1967 96.8344491 7.1967 96.8344491 0.0581 98.2858987 0.0581 98.2858987 4.6284 101.175676 0.0581 102.468202 0.0581 102.468202 7.1967"></polygon>
                <path d="M106.335576,7.2555 C105.520548,7.2555 104.853508,6.9776 104.332269,6.4729 C103.578478,5.7505 103.601077,4.8573 103.601077,3.626 C103.601077,2.394 103.579936,1.5008 104.332269,0.7784 C104.852779,0.2793 105.520548,-1.85398363e-11 106.335576,-1.85398363e-11 C107.724331,-1.85398363e-11 108.807633,0.7602 109.069346,2.2526 L107.596026,2.2526 C107.452412,1.6835 107.074787,1.2397 106.344324,1.2397 C105.952119,1.2397 105.626983,1.3804 105.4163,1.6114 C105.133446,1.911 105.048881,2.2526 105.048881,3.6253 C105.048881,4.9973 105.133446,5.3389 105.4163,5.6413 C105.625525,5.8709 105.950661,6.0095 106.344324,6.0095 C107.074787,6.0095 107.450954,5.5692 107.596026,4.9959 L109.069346,4.9959 C108.806175,6.4911 107.714125,7.2527 106.335576,7.2527 L106.335576,7.2555 Z" id="Path"></path>
                <polygon id="Path" points="109.990809 7.1967 109.990809 0.0581 114.886809 0.0581 114.886809 1.3013 111.442258 1.3013 111.442258 2.9764 114.375776 2.9764 114.375776 4.2175 111.442258 4.2175 111.442258 5.9521 114.886809 5.9521 114.886809 7.1967"></polygon>
                <polygon id="Path" points="121.219678 7.1967 121.219678 3.0366 119.799576 5.7428 118.820522 5.7428 117.388026 3.0366 117.388026 7.1967 115.938764 7.1967 115.938764 0.0581 117.369072 0.0581 119.309684 3.9179 121.238632 0.0581 122.671857 0.0581 122.671857 7.1967"></polygon>
                <polygon id="Path" points="124.022704 7.1967 124.022704 0.0581 128.918704 0.0581 128.918704 1.3013 125.474154 1.3013 125.474154 2.9764 128.407671 2.9764 128.407671 4.2175 125.474154 4.2175 125.474154 5.9521 128.918704 5.9521 128.918704 7.1967"></polygon>
                <polygon id="Path" points="133.937177 7.1967 133.937177 4.2119 131.422108 4.2119 131.422108 7.1967 129.970659 7.1967 129.970659 0.0581 131.422108 0.0581 131.422108 2.9764 133.937177 2.9764 133.937177 0.0581 135.388627 0.0581 135.388627 7.1967"></polygon>
                <path d="M141.709832,8.778 L141.709832,7.1932 L137.588036,7.1932 L137.588036,8.778 L136.189074,8.778 L136.189074,5.95 L136.88892,5.95 C137.503471,5.0407 137.77539,3.5245 137.77539,1.8837 L137.77539,0.0581 L142.25367,0.0581 L142.25367,5.95 L143.108793,5.95 L143.108793,8.778 L141.71129,8.778 L141.709832,8.778 Z M140.801491,1.3027 L139.162687,1.3027 L139.162687,2.3338 C139.162687,3.7485 139.016157,4.9581 138.504395,5.9507 L140.801491,5.9507 L140.801491,1.3027 Z" id="Shape"></path>
                <polygon id="Path" points="151.541198 1.3013 151.541198 7.1967 150.089749 7.1967 150.089749 0.0581 154.767776 0.0581 154.767776 1.3013"></polygon>
                <polygon id="Path" points="155.630189 7.1967 155.630189 0.0581 160.52546 0.0581 160.52546 1.3013 157.081639 1.3013 157.081639 2.9764 160.015157 2.9764 160.015157 4.2175 157.081639 4.2175 157.081639 5.9521 160.52546 5.9521 160.52546 7.1967"></polygon>
                <path d="M54.7698921,17.7534 L54.7698921,11.8594 L52.9973884,11.8594 L52.9973884,13.9335 C52.9973884,16.933 52.2327347,17.7534 50.6884097,17.7534 L50.1130787,17.7534 L50.1130787,16.5102 L50.3223762,16.5102 C51.0645036,16.5102 51.5947092,16.0916 51.5947092,13.8551 L51.5947092,10.6162 L56.218936,10.6162 L56.218936,17.7534 L54.7686527,17.7534 L54.7698921,17.7534 Z" id="Path"></path>
                <polygon id="Path" points="66.9547063 11.858 66.9547063 17.752 65.5034754 17.752 65.5034754 11.858 63.5630089 11.858 63.5630089 10.6162 68.8967766 10.6162 68.8967766 11.858"></polygon>
                <path d="M76.2057844,17.7534 L75.7683812,16.4906 L73.1242787,16.4906 L72.6795854,17.7534 L71.1625253,17.7534 L73.8693222,10.6162 L75.0051125,10.6162 L77.7199285,17.7534 L76.2072424,17.7534 L76.2057844,17.7534 Z M74.4729386,12.7225 L73.5303347,15.3174 L75.3820083,15.3174 L74.4729386,12.7225 Z" id="Shape"></path>
                <polygon id="Path" points="78.4868421 17.7534 78.4868421 10.6162 79.9382918 10.6162 79.9382918 14.0042 82.3374485 10.6162 84.0732102 10.6162 81.5763669 13.9657 84.321801 17.7534 82.546673 17.7534 79.9382918 14.0259 79.9382918 17.7534"></polygon>
                <path d="M89.6734294,17.7534 L89.2374842,16.4906 L86.5933818,16.4906 L86.1486885,17.7534 L84.6301703,17.7534 L87.3369672,10.6162 L88.4734866,10.6162 L91.1890315,17.7534 L89.6748874,17.7534 L89.6734294,17.7534 Z M87.9413127,12.7225 L86.9994377,15.3174 L88.8511114,15.3174 L87.9420417,12.7225 L87.9413127,12.7225 Z" id="Shape"></path>
                <path d="M97.1114711,19.3361 L97.1114711,17.7513 L92.9904038,17.7513 L92.9904038,19.3361 L91.5914425,19.3361 L91.5914425,16.5081 L92.2905586,16.5081 C92.9051102,15.5988 93.1770292,14.0826 93.1770292,12.4418 L93.1770292,10.6162 L97.6560381,10.6162 L97.6560381,16.5081 L98.5104324,16.5081 L98.5104324,19.3361 L97.1129291,19.3361 L97.1114711,19.3361 Z M96.2031304,11.8594 L94.5643264,11.8594 L94.5643264,12.8905 C94.5643264,14.3052 94.4177963,15.5148 93.9067635,16.5081 L96.2031304,16.5081 L96.2031304,11.8594 Z" id="Shape"></path>
                <polygon id="Path" points="99.3852388 17.7534 99.3852388 10.6162 104.281239 10.6162 104.281239 11.8594 100.836688 11.8594 100.836688 13.5345 103.769477 13.5345 103.769477 14.7756 100.836688 14.7756 100.836688 16.5102 104.281239 16.5102 104.281239 17.7534"></polygon>
                <polygon id="Path" points="110.614108 17.7534 110.614108 13.5947 109.194006 16.3009 108.214952 16.3009 106.782456 13.5947 106.782456 17.7534 105.333194 17.7534 105.333194 10.6162 106.763502 10.6162 108.704114 14.476 110.633063 10.6162 112.065558 10.6162 112.065558 17.7534"></polygon>
                <polygon id="Path" points="117.604541 17.7534 117.604541 13.1726 114.713306 17.7534 113.418592 17.7534 113.418592 10.6162 114.870042 10.6162 114.870042 15.1851 117.760548 10.6162 119.052345 10.6162 119.052345 17.7534"></polygon>
                <path d="M121.670933,17.7513 L119.949022,17.7513 L121.484307,14.784 C120.700627,14.4459 120.208548,13.741 120.208548,12.8394 C120.208548,11.4758 121.223323,10.6127 122.651445,10.6127 L125.531745,10.6127 L125.531745,17.7499 L124.085398,17.7499 L124.085398,15.0661 L122.893475,15.0661 L121.672391,17.7499 L121.670933,17.7513 Z M124.08394,11.8391 L122.726532,11.8391 C122.081363,11.8391 121.649792,12.229 121.649792,12.8191 C121.649792,13.4001 122.081363,13.8313 122.726532,13.8313 L124.08394,13.8313 L124.08394,11.8391 L124.08394,11.8391 Z" id="Shape"></path>
                <polygon id="Path" points="133.300755 11.858 133.300755 17.752 131.850035 17.752 131.850035 11.858 129.908693 11.858 129.908693 10.6162 135.241367 10.6162 135.241367 11.858"></polygon>
                <polygon id="Path" points="136.119819 17.7534 136.119819 10.6162 141.017277 10.6162 141.017277 11.8594 137.571269 11.8594 137.571269 13.5345 140.504786 13.5345 140.504786 14.7756 137.571269 14.7756 137.571269 16.5102 141.017277 16.5102 141.017277 17.7534"></polygon>
                <path d="M146.655404,17.7534 L146.219459,16.4906 L143.575357,16.4906 L143.129205,17.7534 L141.612145,17.7534 L144.317484,10.6162 L145.453275,10.6162 L148.169549,17.7534 L146.655404,17.7534 L146.655404,17.7534 Z M144.923288,12.7225 L143.980684,15.3174 L145.830899,15.3174 L144.923288,12.7225 Z" id="Shape"></path>
                <polygon id="Path" points="151.049849 11.858 151.049849 17.752 149.598399 17.752 149.598399 11.858 147.656329 11.858 147.656329 10.6162 152.990461 10.6162 152.990461 11.858"></polygon>
                <path d="M156.7514,10.6162 C158.178792,10.6162 159.204503,11.5388 159.204503,12.8401 C159.204503,14.1435 158.188998,15.0661 156.7514,15.0661 L155.32182,15.0661 L155.32182,17.7548 L153.871828,17.7548 L153.871828,10.6162 L156.752129,10.6162 L156.7514,10.6162 Z M156.675583,13.8138 C157.325127,13.8138 157.756698,13.4337 157.756698,12.8387 C157.756698,12.2479 157.325127,11.8594 156.675583,11.8594 L155.32182,11.8594 L155.32182,13.8131 L156.675583,13.8131 L156.675583,13.8138 Z" id="Shape"></path>
                <path d="M163.030323,17.7513 L160.109927,17.7513 L160.109927,10.6134 L161.557732,10.6134 L161.557732,13.3014 L163.030323,13.3014 C164.482501,13.3014 165.442602,14.2247 165.442602,15.5281 C165.442602,16.828 164.469379,17.7513 163.030323,17.7513 Z M162.91514,14.5446 L161.557732,14.5446 L161.557732,16.5081 L162.91514,16.5081 C163.573432,16.5081 163.991881,16.1182 163.991881,15.5281 C163.991881,14.9471 163.573432,14.5446 162.91514,14.5446 L162.91514,14.5446 Z M166.244507,10.6127 L167.69377,10.6127 L167.69377,17.7499 L166.244507,17.7499 L166.244507,10.6127 Z" id="Shape"></path>
                <path d="M148.4473,0.7819 C147.926061,0.273 147.236422,-1.1812773e-11 146.443993,-1.1812773e-11 C145.638442,-1.1812773e-11 144.948803,0.2716 144.427564,0.7819 C144.030985,1.1718 143.834154,1.5729 143.750318,2.2519 L145.223638,2.2519 C145.27321,1.9908 145.358504,1.7752 145.501389,1.6247 C145.732484,1.3734 146.069284,1.2446 146.443993,1.2446 C146.819431,1.2446 147.14238,1.3741 147.373475,1.6247 C147.664348,1.9362 147.737977,2.3261 147.737977,3.4972 L147.737977,3.507 L143.696372,3.507 L143.696372,4.1692 C143.70512,4.9091 143.776562,5.8359 144.426106,6.4764 C144.947345,6.9895 145.636984,7.259 146.443264,7.259 C147.24517,7.259 147.924603,6.9986 148.446571,6.4764 C149.177034,5.754 149.185782,4.8216 149.185782,3.8899 L149.185782,3.129 C149.185782,1.9761 148.967809,1.295 148.446571,0.7833 L148.4473,0.7819 Z M146.443993,6.0144 C146.069284,6.0144 145.755083,5.8772 145.501389,5.6343 C145.30237,5.439 145.218535,5.1247 145.179898,4.7502 L147.697882,4.7502 C147.651226,5.2178 147.557184,5.4306 147.373475,5.6343 C147.14238,5.8856 146.817973,6.0144 146.443993,6.0144 Z" id="Shape"></path>
                <polygon id="Path" points="3.01328169 1.3013 3.01328169 7.1967 1.56547705 7.1967 1.56547705 0.0581 6.23985942 0.0581 6.23985942 1.3013"></polygon>
                <path d="M10.6205984,7.1967 L10.1843616,5.9339 L7.54069658,5.9339 L7.0944724,7.1967 L5.57894316,7.1967 L8.28406335,0.0581 L9.4197079,0.0581 L12.1348884,7.1967 L10.6205984,7.1967 Z M8.8895023,2.1644 L7.94558616,4.7593 L9.79704107,4.7593 L8.8895023,2.1644 Z" id="Shape"></path>
                <path d="M17.2077451,7.1953 L17.2077451,1.2999 L15.4353143,1.2999 L15.4353143,3.374 C15.4353143,6.3735 14.6718999,7.1953 13.1263357,7.1953 L12.552171,7.1953 L12.552171,5.9507 L12.7603021,5.9507 C13.5035959,5.9507 14.0326351,5.5321 14.0326351,3.297 L14.0326351,0.0581 L18.6581012,0.0581 L18.6581012,7.1967 L17.2065058,7.1967 L17.2077451,7.1953 Z" id="Path"></path>
                <polygon id="Path" points="24.1973756 7.1967 24.1973756 2.618 21.3079628 7.1967 20.0131035 7.1967 20.0131035 0.0581 21.4634597 0.0581 21.4634597 4.6284 24.3527995 0.0581 25.6451802 0.0581 25.6451802 7.1967"></polygon>
                <path d="M35.6791371,7.2555 C34.8643278,7.2555 34.1961944,6.9776 33.6759762,6.4729 C32.9238613,5.7505 32.9451483,4.8573 32.9451483,3.626 C32.9451483,2.394 32.9238613,1.5008 33.6759762,0.7784 C34.1961944,0.2793 34.8655671,-1.85398363e-11 35.6791371,-1.85398363e-11 C37.0680381,-1.85398363e-11 38.1510485,0.7602 38.413053,2.2526 L36.9401706,2.2526 C36.7972855,1.6835 36.4199523,1.2397 35.6878851,1.2397 C35.2917436,1.2397 34.9709084,1.3804 34.761538,1.6114 C34.4770072,1.911 34.3930258,2.2526 34.3930258,3.6253 C34.3930258,4.9973 34.4770072,5.3389 34.761538,5.6413 C34.9695962,5.8709 35.2917436,6.0095 35.6878851,6.0095 C36.418713,6.0095 36.7972855,5.5692 36.9401706,4.9959 L38.413053,4.9959 C38.1510485,6.4911 37.0579778,7.2527 35.6791371,7.2527 L35.6791371,7.2555 Z" id="Path"></path>
                <polygon id="Path" points="40.8014932 1.3013 40.8014932 7.1967 39.3523764 7.1967 39.3523764 0.0581 44.0293103 0.0581 44.0293103 1.3013"></polygon>
                <path d="M48.4087371,7.1967 L47.971261,5.9339 L45.3275959,5.9339 L44.8826111,7.1967 L43.3658425,7.1967 L46.072202,0.0581 L47.2079195,0.0581 L49.923027,7.1967 L48.4100493,7.1967 L48.4087371,7.1967 Z M46.6764016,2.1644 L45.7337248,4.7593 L47.5851797,4.7593 L46.6764016,2.1644 Z" id="Shape"></path>
                <polygon id="Path" points="4.36894006 11.858 4.36894006 17.752 2.9185839 17.752 2.9185839 11.858 0.978168457 11.858 0.978168457 10.6162 6.31188515 10.6162 6.31188515 11.858"></polygon>
                <path d="M10.8371859,17.7534 L10.401022,16.4906 L7.75728407,16.4906 L7.31105989,17.7534 L5.79429134,17.7534 L8.50065084,10.6162 L9.6376076,10.6162 L12.3527152,17.7534 L10.8384981,17.7534 L10.8371859,17.7534 Z M9.10485048,12.7225 L8.16348586,15.3174 L10.0149408,15.3174 L9.10608979,12.7225 L9.10485048,12.7225 Z" id="Shape"></path>
                <polygon id="Path" points="15.2305367 11.858 15.2305367 17.752 13.7801806 17.752 13.7801806 11.858 11.8384748 11.858 11.8384748 10.6162 17.1722425 10.6162 17.1722425 11.858"></polygon>
                <path d="M21.6975433,17.7534 L21.2613065,16.4906 L18.6176414,16.4906 L18.1714172,17.7534 L16.6546487,17.7534 L19.3610082,10.6162 L20.4966527,10.6162 L23.2118332,17.7534 L21.6975433,17.7534 Z M19.9652078,12.7225 L19.0237703,15.3174 L20.8752252,15.3174 L19.9664471,12.7225 L19.9652078,12.7225 Z" id="Shape"></path>
                <path d="M26.8484035,10.6162 C28.2773999,10.6162 29.3015795,11.5388 29.3015795,12.8401 C29.3015795,14.1435 28.2874601,15.0661 26.8484035,15.0661 L25.4194072,15.0661 L25.4194072,17.7548 L23.9678118,17.7548 L23.9678118,10.6162 L26.8484035,10.6162 Z M26.7744824,13.8138 C27.4238075,13.8138 27.8537019,13.4337 27.8537019,12.8387 C27.8537019,12.2479 27.4238075,11.8594 26.7744824,11.8594 L25.4194072,11.8594 L25.4194072,13.8131 L26.7744824,13.8131 L26.7744824,13.8138 Z" id="Shape"></path>
                <path d="M37.2256491,19.3361 L37.2256491,17.7513 L33.1040714,17.7513 L33.1040714,19.3361 L31.7063495,19.3361 L31.7063495,16.5081 L32.4058301,16.5081 C33.02009,15.5988 33.2920819,14.0826 33.2920819,12.4418 L33.2920819,10.6162 L37.7697058,10.6162 L37.7697058,16.5081 L38.6258496,16.5081 L38.6258496,19.3361 L37.2268884,19.3361 L37.2256491,19.3361 Z M36.3181103,11.8594 L34.6797436,11.8594 L34.6797436,12.8905 C34.6797436,14.3052 34.5330678,15.5148 34.0203583,16.5081 L36.3181103,16.5081 L36.3181103,11.8594 Z" id="Shape"></path>
                <polygon id="Path" points="48.2359628 14.826 48.2359628 17.7534 46.7969062 17.7534 46.7969062 14.826 44.5618487 10.6162 46.1388331 10.6162 47.5277341 13.4925 48.8915573 10.6162 50.4659902 10.6162"></polygon>
                <path d="M31.3052507,0.7819 C30.7837932,0.273 30.0930606,-1.1812773e-11 29.3008505,-1.1812773e-11 C28.4961015,-1.1812773e-11 27.8066811,0.2716 27.2852236,0.7819 C26.889082,1.1718 26.6922506,1.5729 26.6082692,2.2519 L28.0811516,2.2519 C28.1313072,1.9908 28.2152886,1.7752 28.3594859,1.6247 C28.5901432,1.3734 28.9273081,1.2446 29.3008505,1.2446 C29.6769443,1.2446 30.0003311,1.3741 30.2322277,1.6247 C30.5217887,1.9362 30.597022,2.3261 30.597022,3.4972 L30.597022,3.507 L26.555635,3.507 L26.555635,4.1692 C26.5656953,4.9091 26.6371378,5.8359 27.2864629,6.4764 C27.8079204,6.9895 28.4973408,7.259 29.3020898,7.259 C30.1043602,7.259 30.7850325,6.9986 31.30649,6.4764 C32.0373179,5.754 32.046066,4.8216 32.046066,3.8899 L32.046066,3.129 C32.046066,1.9761 31.8279476,1.295 31.30649,0.7833 L31.3052507,0.7819 Z M29.3008505,6.0144 C28.9273081,6.0144 28.6114301,5.8772 28.3594859,5.6343 C28.1589365,5.439 28.0748822,5.1247 28.0385777,4.7502 L30.5568538,4.7502 C30.5104891,5.2178 30.4165203,5.4306 30.2322277,5.6343 C30.0015704,5.8856 29.6769443,6.0144 29.3008505,6.0144 Z" id="Shape"></path>
                <path d="M43.6921453,11.3365 C43.1706149,10.8276 42.4799552,10.5546 41.6877451,10.5546 C40.882996,10.5546 40.1922635,10.8262 39.6720452,11.3365 C39.2759766,11.7257 39.0791452,12.1275 38.9951638,12.8051 L40.4680462,12.8051 C40.5182018,12.5454 40.6009439,12.3298 40.7463075,12.1793 C40.9769648,11.928 41.3142027,11.7992 41.6877451,11.7992 C42.0612874,11.7992 42.3872257,11.9287 42.6178101,12.1793 C42.9086832,12.4908 42.9826044,12.88 42.9826044,14.0525 L42.9826044,14.0609 L38.9412903,14.0609 L38.9412903,14.7189 L38.9412903,14.7224 C38.9500383,15.463 39.0214809,16.3884 39.6708059,17.0303 C40.1910242,17.5427 40.8816838,17.8122 41.6865058,17.8122 C42.4887033,17.8122 43.1693756,17.5511 43.6908331,17.0303 C44.4204217,16.3079 44.430409,15.3762 44.430409,14.4445 L44.430409,13.6836 C44.430409,12.5307 44.2122906,11.8496 43.6908331,11.3379 L43.6921453,11.3365 Z M41.6877451,16.569 C41.3142027,16.569 40.9983247,16.4318 40.7463075,16.1889 C40.5469975,15.9936 40.4617767,15.6786 40.4241601,15.3041 L42.9425091,15.3041 C42.898623,15.7724 42.8021027,15.9838 42.6178101,16.1889 C42.3872257,16.4402 42.0612874,16.569 41.6877451,16.569 Z" id="Shape"></path>
                <path d="M62.2666187,11.3365 C61.7451611,10.8276 61.0544286,10.5546 60.2622184,10.5546 C59.4574694,10.5546 58.7680491,10.8262 58.2465915,11.3365 C57.85045,11.7257 57.6536186,12.1275 57.5696371,12.8051 L59.0425196,12.8051 C59.0926751,12.5454 59.1766566,12.3298 59.3208538,12.1793 C59.5515111,11.928 59.8886761,11.7992 60.2622184,11.7992 C60.6383123,11.7992 60.9616991,11.9287 61.1935957,12.1793 C61.4831566,12.4908 61.55839,12.88 61.55839,14.0525 L61.55839,14.0609 L57.517003,14.0609 L57.517003,14.7189 L57.517003,14.7224 C57.5270632,15.463 57.5985058,16.3884 58.2465915,17.0303 C58.7680491,17.5427 59.4574694,17.8122 60.2622184,17.8122 C61.0644888,17.8122 61.7451611,17.5511 62.2666187,17.0303 C62.9974466,16.3079 63.0061946,15.3762 63.0061946,14.4445 L63.0061946,13.6836 C63.0061946,12.5307 62.7880762,11.8496 62.2666187,11.3379 L62.2666187,11.3365 Z M60.2622184,16.569 C59.8886761,16.569 59.5727981,16.4318 59.3208538,16.1889 C59.1215438,15.9936 59.036323,15.6786 58.9999457,15.3041 L61.5182947,15.3041 C61.4744086,15.7724 61.3778882,15.9838 61.1935957,16.1889 C60.9629384,16.4402 60.6383123,16.569 60.2622184,16.569 L60.2622184,16.569 Z" id="Shape"></path>
            </g>
            <path d="M252.441297,138.378487 L3.55907825,138.378487 L3.55907825,112.617112 L252.441297,112.617112 L252.441297,138.378487 Z M256,109 L252.441297,109 L3.55907825,109 L0,109 L0,112.617112 L0,138.378487 L0,142 L3.55907825,142 L252.441297,142 L256,142 L256,138.378487 L256,112.617112 L256,109 Z" id="Shape" fill="#0B7870"></path>
            <path d="M252.439854,4.70442674 L252.439854,101.464654 L3.55783693,101.464654 L3.55783693,76.2820329 L252.439854,4.70442674 L252.439854,4.70442674 Z M256,0 L251.448238,1.30802077 L2.57003163,72.8879284 L0,73.6235328 L0,76.2820329 L0,101.464654 L0,105 L3.55907825,105 L252.441297,105 L256,105 L256,101.464654 L256,4.70442674 L256,0 L256,0 Z" id="Shape" fill="#0B7870"></path>
        </g>
    </g>
</svg>