<?xml version="1.0" encoding="UTF-8"?>
<svg width="252px" height="139px" viewBox="0 0 252 139" version="1.1" xmlns="http://www.w3.org/2000/svg" xmlns:xlink="http://www.w3.org/1999/xlink">
    <!-- Generator: Sketch 63.1 (92452) - https://sketch.com -->
    <title>Group 121 (2)</title>
    <desc>Created with Sketch.</desc>
    <g id="Page-1" stroke="none" stroke-width="1" fill="none" fill-rule="evenodd">
        <g id="Group-121-(2)" fill-rule="nonzero">
            <g id="Group-23" transform="translate(7.000000, 79.000000)" fill="#2B2A29">
                <polygon id="Path" points="196.456993 17.6827 196.456993 14.6027 188.13595 14.6027 188.13595 10.3082 195.221061 10.3082 195.221061 7.2282 188.13595 7.2282 188.13595 3.0814 196.456993 3.0814 196.456993 -1.57669433e-11 184.629286 -1.57669433e-11 184.629286 17.6827"></polygon>
                <path d="M177.902375,10.0604 C179.642204,9.4402 181.182322,7.8995 181.182322,5.4152 C181.182322,2.4619 179.0118,-1.57669433e-11 175.355175,-1.57669433e-11 L168.317683,-1.57669433e-11 L168.317683,17.6827 L171.822215,17.6827 L171.822215,10.6323 L174.347383,10.6323 L177.851915,17.6827 L181.910804,17.6827 L177.900954,10.059 L177.902375,10.0604 Z M175.127747,7.7504 L171.823636,7.7504 L171.823636,3.0828 L175.127747,3.0828 C176.667865,3.0828 177.674947,4.0502 177.674947,5.4166 C177.674947,6.7837 176.667865,7.7518 175.127747,7.7518 L175.127747,7.7504 Z" id="Shape"></path>
                <polygon id="Path" points="165.642554 3.0814 165.642554 -1.57669433e-11 152.756593 -1.57669433e-11 152.756593 3.0814 157.448018 3.0814 157.448018 17.6827 160.953261 17.6827 160.953261 3.0814"></polygon>
                <path d="M146.957875,0.0035 L144.2067,0.0035 L137.678079,17.6862 L141.334704,17.6862 L142.417832,14.5572 L148.797915,14.5572 L149.85759,17.6862 L153.514215,17.6862 L146.957875,0.0035 Z M143.403593,11.6515 L145.670772,5.2164 L147.864036,11.6515 L143.403593,11.6515 Z" id="Shape"></path>
                <polygon id="Path" points="136.05694 17.6827 136.05694 14.6027 127.735897 14.6027 127.735897 10.3082 134.821718 10.3082 134.821718 7.2282 127.735897 7.2282 127.735897 3.0814 136.05694 3.0814 136.05694 -1.57669433e-11 124.230654 -1.57669433e-11 124.230654 17.6827"></polygon>
                <polygon id="Path" points="120.375029 17.6827 120.375029 -1.57669433e-11 116.869786 -1.57669433e-11 116.869786 7.2282 110.795311 7.2282 110.795311 -1.57669433e-11 107.289357 -1.57669433e-11 107.289357 17.6827 110.795311 17.6827 110.795311 10.2816 116.869786 10.2816 116.869786 17.6827"></polygon>
                <polygon id="Path" points="104.609254 3.0814 104.609254 -1.57669433e-11 91.7247146 -1.57669433e-11 91.7247146 3.0814 96.4154289 3.0814 96.4154289 17.6827 99.9199611 17.6827 99.9199611 3.0814"></polygon>
                <polygon id="Path" points="82.4278611 17.6827 82.4278611 14.6027 74.2830754 14.6027 74.2830754 -1.57669433e-11 70.7778325 -1.57669433e-11 70.7778325 17.6827"></polygon>
                <path d="M61.8175732,0.0035 L59.0678907,0.0035 L52.5383454,17.6862 L56.1948282,17.6862 L57.2776014,14.5572 L63.6578968,14.5572 L64.7175718,17.6862 L68.3741968,17.6862 L61.8175732,0.0035 Z M58.2637886,11.6515 L60.5307539,5.2164 L62.7240182,11.6515 L58.2637886,11.6515 Z" id="Shape"></path>
                <polygon id="Path" points="50.1203532 17.6827 50.1203532 -1.57669433e-11 46.6680586 -1.57669433e-11 41.9997318 9.5634 37.3119314 -1.57669433e-11 33.8595657 -1.57669433e-11 33.8595657 17.6827 37.3607575 17.6827 37.3607575 7.3752 40.8167479 14.0805 43.1875486 14.0805 46.616745 7.3752 46.616745 17.6827"></polygon>
                <path d="M24.8966768,0.0035 L22.1458571,0.0035 L15.6163118,17.6862 L19.2727236,17.6862 L20.3554968,14.5572 L26.7359343,14.5572 L27.7954671,17.6862 L31.4530871,17.6862 L24.8966768,0.0035 Z M21.3392675,11.6515 L23.6085782,5.2164 L25.8022689,11.6515 L21.3392675,11.6515 L21.3392675,11.6515 Z" id="Shape"></path>
                <polygon id="Path" points="14.5255075 17.6827 8.14507 7.0273 14.0953832 -1.57669433e-11 9.83649893 -1.57669433e-11 3.50979143 7.6986 3.50979143 -1.57669433e-11 6.09147653e-13 -1.57669433e-11 6.09147653e-13 17.6827 3.50979143 17.6827 3.50979143 12.3704 5.82807036 9.6376 10.4389004 17.6827"></polygon>
            </g>
            <g id="Group-24" transform="translate(6.000000, 114.000000)" fill="#2B2A29">
                <path d="M6.00906667,6.4463 C5.44906667,7.0098 4.77898667,7.259 3.96341333,7.259 C3.18695111,7.259 2.53528889,6.9979 2.00579556,6.4764 C1.68913778,6.1684 1.49713778,5.8051 1.41521778,5.404 C1.33571556,5.0036 1.29660444,4.4121 1.29660444,3.6302 C1.29660444,2.8476 1.33571556,2.2575 1.41521778,1.8557 C1.49713778,1.4455 1.68913778,1.0941 2.00579556,0.7819 C2.53528889,0.2611 3.18695111,-1.1812773e-11 3.96341333,-1.1812773e-11 C5.61048889,-1.1812773e-11 6.49937778,1.043 6.69137778,2.2869 L5.26688,2.2869 C5.09322667,1.5946 4.66407111,1.2432 3.96341333,1.2432 C3.5856,1.2432 3.28110222,1.3741 3.05610667,1.6233 C2.792,1.9558 2.70887111,2.2169 2.70887111,3.6288 C2.70887111,5.0309 2.77002667,5.3123 3.05610667,5.6427 C3.26887111,5.894 3.57699556,6.013 3.96341333,6.013 C4.38033778,6.013 4.71541333,5.8821 4.97098667,5.6112 C5.18375111,5.3718 5.29617778,5.0512 5.29617778,4.6613 L5.29617778,4.3918 L3.96341333,4.3918 L3.96341333,3.2291 L6.69991111,3.2291 L6.69991111,4.2693 C6.69991111,5.3123 6.50919111,5.9227 6.00906667,6.4449 L6.00906667,6.4463 Z" id="Path"></path>
                <path d="M11.8251022,7.1953 L11.3982933,5.9339 L8.8208,5.9339 L8.38552889,7.1953 L6.90592,7.1953 L9.54464,0.0581 L10.6536889,0.0581 L13.3021511,7.1953 L11.8263111,7.1953 L11.8251022,7.1953 Z M10.1352889,2.1644 L9.21447111,4.7593 L11.02048,4.7593 L10.1352889,2.1644 L10.1352889,2.1644 Z" id="Shape"></path>
                <polygon id="Path" points="14.0378667 7.1953 14.0378667 0.0581 15.4538311 0.0581 15.4538311 5.9521 18.7417956 5.9521 18.7417956 7.1953"></polygon>
                <polygon id="Path" points="19.5986844 7.1967 21.0109511 7.1967 21.0109511 0.0609 19.5986844 0.0609"></polygon>
                <path d="M26.6531911,7.1953 L26.2239644,5.9339 L23.64896,5.9339 L23.2136178,7.1953 L21.73408,7.1953 L24.3728,0.0581 L25.48064,0.0581 L28.1290311,7.1953 L26.6531911,7.1953 L26.6531911,7.1953 Z M24.9633778,2.1644 L24.04384,4.7593 L25.84864,4.7593 L24.9633778,2.1644 Z" id="Shape"></path>
                <path d="M31.0578844,7.2562 C29.9585778,7.2562 29.1223111,7.0252 28.4094222,6.3154 L29.32896,5.4145 C29.7849956,5.8639 30.4061511,6.013 31.0786489,6.013 C31.9137778,6.013 32.3601422,5.7015 32.3601422,5.1317 C32.3601422,4.8825 32.2904533,4.6711 32.1388444,4.5325 C31.9957689,4.4016 31.8306489,4.3288 31.4956444,4.2784 L30.6189156,4.158 C29.99776,4.0691 29.5380267,3.8801 29.2127644,3.5686 C28.8691556,3.2263 28.6955022,2.7692 28.6955022,2.1658 C28.6955022,0.8925 29.6541511,0.00279999999 31.2217244,0.00279999999 C32.2207644,0.00279999999 32.9409067,0.2401 33.5633422,0.8337 L32.6681956,1.7052 C32.2084622,1.274 31.6557867,1.2138 31.1789156,1.2138 C30.4269867,1.2138 30.0577067,1.6247 30.0577067,2.114 C30.0577067,2.2946 30.1188622,2.4864 30.2740978,2.6271 C30.4171733,2.7559 30.6482844,2.8665 30.9429689,2.905 L31.7988622,3.024 C32.4591289,3.1171 32.8761244,3.2977 33.18304,3.5756 C33.5730844,3.934 33.74304,4.4604 33.74304,5.0883 C33.74304,6.4729 32.5740444,7.2548 31.0553956,7.2548 L31.0578844,7.2562 Z" id="Path"></path>
                <path d="M39.2734222,6.4463 C38.7134222,7.0098 38.0433422,7.259 37.2277689,7.259 C36.4513067,7.259 35.7995733,6.9979 35.27136,6.4764 C34.9547022,6.1684 34.7627022,5.8051 34.6807822,5.404 C34.60128,5.0036 34.5621689,4.4121 34.5621689,3.6302 C34.5621689,2.8476 34.6024889,2.2575 34.6807822,1.8557 C34.7627022,1.4455 34.9547022,1.0941 35.27136,0.7819 C35.8008533,0.2611 36.4513067,-1.1812773e-11 37.2277689,-1.1812773e-11 C38.8748444,-1.1812773e-11 39.7638044,1.043 39.9557333,2.2869 L38.5312356,2.2869 C38.3576533,1.5946 37.9283556,1.2432 37.2289778,1.2432 C36.8523733,1.2432 36.5467378,1.3741 36.3229511,1.6233 C36.0576356,1.9558 35.9756444,2.2169 35.9756444,3.6288 C35.9756444,5.0309 36.0355911,5.3123 36.3229511,5.6427 C36.5357156,5.894 36.84256,6.013 37.2289778,6.013 C37.6459022,6.013 37.9809778,5.8821 38.2365511,5.6112 C38.4493156,5.3718 38.5618133,5.0512 38.5618133,4.6613 L38.5618133,4.3918 L37.2289778,4.3918 L37.2289778,3.2291 L39.9655467,3.2291 L39.9655467,4.2693 C39.9655467,5.3123 39.7735467,5.9227 39.2746311,6.4449 L39.2734222,6.4463 Z" id="Path"></path>
                <path d="M45.08896,7.1953 L44.6622222,5.9339 L42.0834489,5.9339 L41.6481067,7.1953 L40.1698489,7.1953 L42.8097778,0.0581 L43.9175467,0.0581 L46.56608,7.1953 L45.0901689,7.1953 L45.08896,7.1953 Z M43.3990756,2.1644 L42.4796089,4.7593 L44.2844089,4.7593 L43.3990756,2.1644 Z" id="Shape"></path>
                <path d="M51.14976,7.1953 L49.7374933,4.3491 L48.71648,4.3491 L48.71648,7.1953 L47.3017956,7.1953 L47.3017956,0.0581 L50.1422578,0.0581 C51.6180978,0.0581 52.4947556,1.0521 52.4947556,2.2449 C52.4947556,3.2466 51.8736711,3.8661 51.1718044,4.1174 L52.7870222,7.1953 L51.14976,7.1953 L51.14976,7.1953 Z M50.0505244,1.3013 L48.7176889,1.3013 L48.7176889,3.1864 L50.0505244,3.1864 C50.6692622,3.1864 51.0763733,2.7958 51.0763733,2.2449 C51.0763733,1.6933 50.6692622,1.3013 50.0505244,1.3013 L50.0505244,1.3013 Z" id="Shape"></path>
                <polygon id="Path" points="60.02976 7.1953 58.1675022 3.9466 57.2296889 5.0491 57.2296889 7.1953 55.8174222 7.1953 55.8174222 0.0581 57.2296889 0.0581 57.2296889 3.1654 59.7864889 0.0581 61.50688 0.0581 59.1016889 2.8959 61.6792533 7.1953"></polygon>
                <path d="M66.9519289,7.1953 L66.5259733,5.9339 L63.9474844,5.9339 L63.5122844,7.1953 L62.0326756,7.1953 L64.6728178,0.0581 L65.7807289,0.0581 L68.4289067,7.1953 L66.9519289,7.1953 Z M65.2616178,2.1644 L64.3435733,4.7593 L66.1497956,4.7593 L65.26304,2.1644 L65.2616178,2.1644 Z" id="Shape"></path>
                <polygon id="Path" points="74.3169067 7.1953 74.3169067 3.0366 72.9323733 5.7414 71.9759289 5.7414 70.5800178 3.0366 70.5800178 7.1953 69.1663289 7.1953 69.1663289 0.0581 70.5615289 0.0581 72.4545067 3.9179 74.3361067 0.0581 75.7327289 0.0581 75.7327289 7.1953"></polygon>
                <path d="M81.3945956,7.1953 L80.9693511,5.9339 L78.3901511,5.9339 L77.9549511,7.1953 L76.4751289,7.1953 L79.1140622,0.0581 L80.2219733,0.0581 L82.8701511,7.1953 L81.3945956,7.1953 Z M79.7049956,2.1644 L78.7855289,4.7593 L80.5896178,4.7593 L79.7049956,2.1644 Z" id="Shape"></path>
                <polygon id="Path" points="83.60544 7.1953 83.60544 0.0581 85.0226844 0.0581 85.0226844 5.9521 88.30944 5.9521 88.30944 7.1953"></polygon>
                <polygon id="Path" points="94.0879289 1.3013 94.0879289 7.1967 92.6721067 7.1967 92.6721067 1.3013 90.7791289 1.3013 90.7791289 0.0581 95.9823289 0.0581 95.9823289 1.3013"></polygon>
                <path d="M100.394773,7.1953 L99.9688178,5.9339 L97.3903289,5.9339 L96.9551289,7.1953 L95.4753067,7.1953 L98.1149511,0.0581 L99.2242844,0.0581 L101.873173,7.1953 L100.395484,7.1953 L100.394773,7.1953 Z M98.7044622,2.1644 L97.7864178,4.7593 L99.59264,4.7593 L98.7058844,2.1644 L98.7044622,2.1644 Z" id="Shape"></path>
                <polygon id="Path" points="104.682062 1.3013 104.682062 7.1967 103.266951 7.1967 103.266951 1.3013 101.373262 1.3013 101.373262 0.0581 106.575751 0.0581 106.575751 1.3013"></polygon>
                <path d="M110.990329,7.1953 L110.564373,5.9339 L107.985884,5.9339 L107.550684,7.1953 L106.070862,7.1953 L108.709796,0.0581 L109.817707,0.0581 L112.467307,7.1953 L110.990329,7.1953 Z M109.300018,2.1644 L108.380551,4.7593 L110.185351,4.7593 L109.300018,2.1644 Z" id="Shape"></path>
                <path d="M117.052551,7.1953 L115.638862,4.3491 L114.619129,4.3491 L114.619129,7.1953 L113.204729,7.1953 L113.204729,0.0581 L116.044907,0.0581 C117.521173,0.0581 118.397973,1.0521 118.397973,2.2449 C118.397973,3.2466 117.776462,3.8661 117.073173,4.1174 L118.689529,7.1953 L117.052551,7.1953 L117.052551,7.1953 Z M115.953173,1.3013 L114.620551,1.3013 L114.620551,3.1864 L115.953173,3.1864 C116.571129,3.1864 116.979307,2.7958 116.979307,2.2449 C116.979307,1.6933 116.571129,1.3013 115.953173,1.3013 L115.953173,1.3013 Z" id="Shape"></path>
                <path d="M3.53532444,17.8136 C2.43608889,17.8136 1.59847111,17.5826 0.886862222,16.8721 L1.8064,15.9691 C2.26243556,16.4185 2.88359111,16.569 3.55367111,16.569 C4.39128889,16.569 4.83886222,16.2568 4.83886222,15.6877 C4.83886222,15.4385 4.76789333,15.2257 4.61628444,15.085 C4.47320889,14.9562 4.30936889,14.8834 3.97429333,14.833 L3.09763556,14.714 C2.47640889,14.6237 2.01788444,14.4361 1.69141333,14.1239 C1.34787556,13.7823 1.17422222,13.3238 1.17422222,12.7218 C1.17422222,11.4485 2.13408,10.5581 3.70044444,10.5581 C4.69941333,10.5581 5.42083556,10.7947 6.04199111,11.3883 L5.14698667,12.2612 C4.68718222,11.83 4.13692444,11.7698 3.65763556,11.7698 C2.90684444,11.7698 2.53756444,12.18 2.53756444,12.6714 C2.53756444,12.852 2.59751111,13.0431 2.75402667,13.1845 C2.89703111,13.314 3.12821333,13.4239 3.42289778,13.4624 L4.27879111,13.5828 C4.93905778,13.6752 5.35726222,13.8558 5.66417778,14.1337 C6.05301333,14.4928 6.22424889,15.0171 6.22424889,15.6471 C6.22424889,17.031 5.05518222,17.8143 3.53653333,17.8143 L3.53532444,17.8136 Z" id="Path"></path>
                <polygon id="Path" points="10.1204267 11.858 10.1204267 17.752 8.70446222 17.752 8.70446222 11.858 6.81048889 11.858 6.81048889 10.6162 12.0132622 10.6162 12.0132622 11.858"></polygon>
                <path d="M16.4292622,17.7534 L16.0037333,16.4934 L13.4248889,16.4934 L12.9896178,17.7534 L11.5101511,17.7534 L14.1488,10.6162 L15.2565689,10.6162 L17.9051022,17.7534 L16.4292622,17.7534 Z M14.7393778,12.7225 L13.8186311,15.3174 L15.62464,15.3174 L14.7393778,12.7225 L14.7393778,12.7225 Z" id="Shape"></path>
                <polygon id="Path" points="20.7147022 11.858 20.7147022 17.752 19.2987378 17.752 19.2987378 11.858 17.4059733 11.858 17.4059733 10.6162 22.6088178 10.6162 22.6088178 11.858"></polygon>
                <polygon id="Path" points="23.4667022 17.752 23.4667022 10.6162 28.2428089 10.6162 28.2428089 11.858 24.8826667 11.858 24.8826667 13.5338 27.7438933 13.5338 27.7438933 14.7742 24.8826667 14.7742 24.8826667 16.5088 28.2428089 16.5088 28.2428089 17.752"></polygon>
                <path d="M35.6063644,17.7534 L35.1772089,16.4934 L32.6020622,16.4934 L32.16672,17.7534 L30.6871822,17.7534 L33.3271822,10.6162 L34.4350222,10.6162 L37.0834133,17.7534 L35.6075733,17.7534 L35.6063644,17.7534 Z M33.91648,12.7225 L32.9982222,15.3174 L34.8030222,15.3174 L33.91648,12.7225 Z" id="Shape"></path>
                <path d="M40.0207289,17.8136 C39.2478933,17.8136 38.5938133,17.5525 38.0655289,17.031 C37.7488711,16.7195 37.5544533,16.3597 37.4749511,15.9572 C37.3930311,15.5554 37.3538489,14.9653 37.3538489,14.1841 C37.3538489,13.4022 37.39424,12.8121 37.4749511,12.4103 C37.5544533,12.0001 37.7488711,11.6494 38.0655289,11.3365 C38.5938133,10.8192 39.2478933,10.5581 40.0207289,10.5581 C41.4146489,10.5581 42.4429867,11.3582 42.6875378,12.8121 L41.2508089,12.8121 C41.1016178,12.201 40.7127822,11.7985 40.0304711,11.7985 C39.6441244,11.7985 39.3396267,11.9182 39.1268622,12.1709 C38.8321778,12.4789 38.7673956,12.8002 38.7673956,14.1841 C38.7673956,15.5673 38.8309689,15.8886 39.1268622,16.2008 C39.3396267,16.45 39.6441244,16.569 40.0304711,16.569 C40.7127822,16.569 41.1016178,16.1665 41.2508089,15.5554 L42.6875378,15.5554 C42.4441956,17.0093 41.4060444,17.8136 40.0207289,17.8136 L40.0207289,17.8136 Z" id="Path"></path>
                <path d="M47.7695644,17.7534 L47.3440356,16.4934 L44.7652622,16.4934 L44.32992,17.7534 L42.8503822,17.7534 L45.4903822,10.6162 L46.5981511,10.6162 L49.2466133,17.7534 L47.7707733,17.7534 L47.7695644,17.7534 Z M46.07968,12.7225 L45.1614222,15.3174 L46.9674311,15.3174 L46.08096,12.7225 L46.07968,12.7225 Z" id="Shape"></path>
                <path d="M54.51488,17.0702 C54.0343822,17.5427 53.352,17.7499 52.6036978,17.7499 L49.9858133,17.7499 L49.9858133,10.6162 L52.6036978,10.6162 C53.352,10.6162 54.0343822,10.8255 54.51488,11.2959 C55.3280356,12.0988 55.2485333,13.0823 55.2485333,14.1519 C55.2485333,15.2271 55.3280356,16.2673 54.51488,17.0709 L54.51488,17.0702 Z M53.5256533,12.2983 C53.2823111,12.0085 52.9559111,11.8594 52.4692267,11.8594 L51.39808,11.8594 L51.39808,16.5067 L52.4692267,16.5067 C52.9559111,16.5067 53.2823111,16.3576 53.5256533,16.0657 C53.7909689,15.7444 53.8325689,15.2355 53.8325689,14.1512 C53.8325689,13.069 53.7909689,12.6203 53.5256533,12.2983 L53.5256533,12.2983 Z" id="Shape"></path>
                <polygon id="Path" points="56.3555911 17.752 56.3555911 10.6162 61.1304178 10.6162 61.1304178 11.858 57.7702756 11.858 57.7702756 13.5338 60.6315733 13.5338 60.6315733 14.7742 57.7702756 14.7742 57.7702756 16.5088 61.1304178 16.5088 61.1304178 17.752"></polygon>
                <polygon id="Path" points="67.3266844 17.752 67.3266844 13.594 65.94144 16.2995 64.9849956 16.2995 63.5876622 13.594 63.5876622 17.752 62.17504 17.752 62.17504 10.6162 63.5698844 10.6162 65.4628622 14.4746 67.3437511 10.6162 68.7410844 10.6162 68.7410844 17.752"></polygon>
                <polygon id="Path" points="70.07584 17.7499 71.4895289 17.7499 71.4895289 10.6162 70.07584 10.6162"></polygon>
                <path d="M75.2776178,17.8136 C74.50464,17.8136 73.8504178,17.5525 73.3234844,17.031 C73.00704,16.7195 72.8129067,16.3597 72.7332622,15.9572 C72.6514844,15.5554 72.6109511,14.9653 72.6109511,14.1841 C72.6109511,13.4022 72.6514844,12.8121 72.7332622,12.4103 C72.8129067,12.0001 73.00704,11.6494 73.3234844,11.3365 C73.8504178,10.8192 74.50464,10.5581 75.2776178,10.5581 C76.6713956,10.5581 77.6996622,11.3582 77.9442844,12.8121 L76.5064178,12.8121 C76.3585067,12.201 75.9688178,11.7985 75.2861511,11.7985 C74.9000178,11.7985 74.5956622,11.9182 74.3823289,12.1709 C74.0879289,12.4789 74.0232178,12.8002 74.0232178,14.1841 C74.0232178,15.5673 74.0865067,15.8886 74.3823289,16.2008 C74.5956622,16.45 74.9000178,16.569 75.2861511,16.569 C75.9688178,16.569 76.3585067,16.1665 76.5064178,15.5554 L77.9442844,15.5554 C77.6996622,17.0093 76.6621511,17.8136 75.2776178,17.8136 L75.2776178,17.8136 Z" id="Path"></path>
                <polygon id="Path" points="83.7931733 11.858 83.7931733 17.752 82.37664 17.752 82.37664 11.858 80.4843733 11.858 80.4843733 10.6162 85.6868622 10.6162 85.6868622 11.858"></polygon>
                <polygon id="Path" points="90.4136178 17.752 90.4136178 14.77 87.9595733 14.77 87.9595733 17.752 86.5451733 17.752 86.5451733 10.6162 87.9595733 10.6162 87.9595733 13.5338 90.4136178 13.5338 90.4136178 10.6162 91.8280178 10.6162 91.8280178 17.752"></polygon>
                <polygon id="Path" points="93.1627733 17.752 93.1627733 10.6162 97.9393067 10.6162 97.9393067 11.858 94.5778844 11.858 94.5778844 13.5338 97.4386844 13.5338 97.4386844 14.7742 94.5778844 14.7742 94.5778844 16.5088 97.9393067 16.5088 97.9393067 17.752"></polygon>
                <path d="M103.437618,17.7534 L103.008818,16.4934 L100.433884,16.4934 L99.9986844,17.7534 L98.5188622,17.7534 L101.154951,10.6162 L102.266418,10.6162 L104.915307,17.7534 L103.437618,17.7534 L103.437618,17.7534 Z M101.748018,12.7225 L100.829973,15.3174 L102.636196,15.3174 L101.74944,12.7225 L101.748018,12.7225 Z" id="Shape"></path>
                <polygon id="Path" points="107.724907 11.858 107.724907 17.752 106.310507 17.752 106.310507 11.858 104.416107 11.858 104.416107 10.6162 109.619307 10.6162 109.619307 11.858"></polygon>
                <path d="M114.324018,17.7534 L112.911751,14.9072 L111.89344,14.9072 L111.89344,17.7534 L110.476907,17.7534 L110.476907,10.6162 L113.317796,10.6162 C114.793351,10.6162 115.670151,11.6102 115.670151,12.803 C115.670151,13.8047 115.049351,14.4242 114.346062,14.6755 L115.962418,17.7534 L114.324018,17.7534 Z M113.226062,11.8594 L111.89344,11.8594 L111.89344,13.7445 L113.226062,13.7445 C113.843307,13.7445 114.251484,13.3539 114.251484,12.803 C114.251484,12.2514 113.843307,11.8594 113.226062,11.8594 L113.226062,11.8594 Z" id="Shape"></path>
                <polygon id="Path" points="116.836373 17.752 116.836373 10.6162 121.612907 10.6162 121.612907 11.858 118.252196 11.858 118.252196 13.5338 121.113707 13.5338 121.113707 14.7742 118.252196 14.7742 118.252196 16.5088 121.612907 16.5088 121.612907 17.752"></polygon>
            </g>
            <path d="M248.494101,135.48823 L3.50344759,135.48823 L3.50344759,110.507502 L248.494101,110.507502 L248.494101,135.48823 L248.494101,135.48823 Z M252,107 L248.494101,107 L3.50708491,107 L0,107 L0,110.507502 L0,135.48823 L0,139 L3.50708491,139 L248.494101,139 L252,139 L252,135.48823 L252,110.507502 L252,107 Z" id="Shape" fill="#0B7870"></path>
            <path d="M248.496199,4.65962267 L248.496199,100.498324 L3.50348156,100.498324 L3.50348156,75.5555373 L248.496199,4.65962267 L248.496199,4.65962267 Z M252,0 L247.519369,1.29556343 L2.52986954,72.1937576 L0,72.9223563 L0,75.5555373 L0,100.498324 L0,104 L3.50348156,104 L248.496199,104 L252,104 L252,100.498324 L252,4.65962267 L252,0 L252,0 Z" id="Shape" fill="#0B7870"></path>
        </g>
    </g>
</svg>