<svg width="373" height="401" viewBox="0 0 373 401" fill="none" xmlns="http://www.w3.org/2000/svg">
<rect opacity="0" width="373" height="401" fill="white"/>
<path opacity="0.5" d="M118.195 202V190.625H121.914C123.148 190.625 124.076 190.88 124.695 191.391C125.32 191.901 125.633 192.656 125.633 193.656C125.633 194.188 125.482 194.659 125.18 195.07C124.878 195.477 124.466 195.792 123.945 196.016C124.56 196.188 125.044 196.516 125.398 197C125.758 197.479 125.938 198.052 125.938 198.719C125.938 199.74 125.607 200.542 124.945 201.125C124.284 201.708 123.349 202 122.141 202H118.195ZM119.695 196.68V200.773H122.172C122.87 200.773 123.419 200.594 123.82 200.234C124.227 199.87 124.43 199.37 124.43 198.734C124.43 197.365 123.685 196.68 122.195 196.68H119.695ZM119.695 195.477H121.961C122.617 195.477 123.141 195.312 123.531 194.984C123.927 194.656 124.125 194.211 124.125 193.648C124.125 193.023 123.943 192.57 123.578 192.289C123.214 192.003 122.659 191.859 121.914 191.859H119.695V195.477ZM133.406 193.547H134.852V202H133.406V195.836L129.508 202H128.062V193.547H129.508V199.719L133.406 193.547ZM137.102 200.82L137.602 200.203C138.164 199.474 138.484 198.38 138.562 196.922L138.695 193.547H144.141V200.82H145.227V204.484H143.781V202H137.883V204.484H136.438L136.445 200.82H137.102ZM138.812 200.82H142.695V194.883H140.094L140.008 196.898C139.919 198.581 139.521 199.888 138.812 200.82ZM153.57 198.328H152.555V202H151.109V198.328H150.094L147.727 202H145.898L148.922 197.625L146.188 193.547H147.938L150.117 197.047H151.109V193.547H152.555V197.047H153.539L155.734 193.547H157.484L154.742 197.633L157.766 202H155.938L153.57 198.328ZM162.43 202.156C161.284 202.156 160.352 201.781 159.633 201.031C158.914 200.276 158.555 199.268 158.555 198.008V197.742C158.555 196.904 158.714 196.156 159.031 195.5C159.354 194.839 159.802 194.323 160.375 193.953C160.953 193.578 161.578 193.391 162.25 193.391C163.349 193.391 164.203 193.753 164.812 194.477C165.422 195.201 165.727 196.237 165.727 197.586V198.188H160C160.021 199.021 160.263 199.695 160.727 200.211C161.195 200.721 161.789 200.977 162.508 200.977C163.018 200.977 163.451 200.872 163.805 200.664C164.159 200.456 164.469 200.18 164.734 199.836L165.617 200.523C164.909 201.612 163.846 202.156 162.43 202.156ZM162.25 194.578C161.667 194.578 161.177 194.792 160.781 195.219C160.385 195.641 160.141 196.234 160.047 197H164.281V196.891C164.24 196.156 164.042 195.589 163.688 195.188C163.333 194.781 162.854 194.578 162.25 194.578ZM173.594 194.719H170.758V202H169.312V194.719H166.531V193.547H173.594V194.719ZM179.195 202V190.625H182.914C184.148 190.625 185.076 190.88 185.695 191.391C186.32 191.901 186.633 192.656 186.633 193.656C186.633 194.188 186.482 194.659 186.18 195.07C185.878 195.477 185.466 195.792 184.945 196.016C185.56 196.188 186.044 196.516 186.398 197C186.758 197.479 186.938 198.052 186.938 198.719C186.938 199.74 186.607 200.542 185.945 201.125C185.284 201.708 184.349 202 183.141 202H179.195ZM180.695 196.68V200.773H183.172C183.87 200.773 184.419 200.594 184.82 200.234C185.227 199.87 185.43 199.37 185.43 198.734C185.43 197.365 184.685 196.68 183.195 196.68H180.695ZM180.695 195.477H182.961C183.617 195.477 184.141 195.312 184.531 194.984C184.927 194.656 185.125 194.211 185.125 193.648C185.125 193.023 184.943 192.57 184.578 192.289C184.214 192.003 183.659 191.859 182.914 191.859H180.695V195.477ZM191.57 198.398H190.516V202H189.062V193.547H190.516V197.125H191.461L194.305 193.547H196.055L192.711 197.609L196.336 202H194.5L191.57 198.398ZM197.023 197.695C197.023 196.867 197.185 196.122 197.508 195.461C197.836 194.799 198.289 194.289 198.867 193.93C199.451 193.57 200.115 193.391 200.859 193.391C202.01 193.391 202.94 193.789 203.648 194.586C204.362 195.383 204.719 196.443 204.719 197.766V197.867C204.719 198.69 204.56 199.43 204.242 200.086C203.93 200.737 203.479 201.245 202.891 201.609C202.307 201.974 201.635 202.156 200.875 202.156C199.729 202.156 198.799 201.758 198.086 200.961C197.378 200.164 197.023 199.109 197.023 197.797V197.695ZM198.477 197.867C198.477 198.805 198.693 199.557 199.125 200.125C199.562 200.693 200.146 200.977 200.875 200.977C201.609 200.977 202.193 200.69 202.625 200.117C203.057 199.539 203.273 198.732 203.273 197.695C203.273 196.768 203.052 196.018 202.609 195.445C202.172 194.867 201.589 194.578 200.859 194.578C200.146 194.578 199.57 194.862 199.133 195.43C198.695 195.997 198.477 196.81 198.477 197.867ZM213.438 202H211.992V198.391H208.109V202H206.656V193.547H208.109V197.211H211.992V193.547H213.438V202ZM222.047 194.719H219.211V202H217.766V194.719H214.984V193.547H222.047V194.719ZM228.547 202C228.464 201.833 228.396 201.536 228.344 201.109C227.672 201.807 226.87 202.156 225.938 202.156C225.104 202.156 224.419 201.922 223.883 201.453C223.352 200.979 223.086 200.38 223.086 199.656C223.086 198.776 223.419 198.094 224.086 197.609C224.758 197.12 225.701 196.875 226.914 196.875H228.32V196.211C228.32 195.706 228.169 195.305 227.867 195.008C227.565 194.706 227.12 194.555 226.531 194.555C226.016 194.555 225.583 194.685 225.234 194.945C224.885 195.206 224.711 195.521 224.711 195.891H223.258C223.258 195.469 223.406 195.062 223.703 194.672C224.005 194.276 224.411 193.964 224.922 193.734C225.438 193.505 226.003 193.391 226.617 193.391C227.591 193.391 228.354 193.635 228.906 194.125C229.458 194.609 229.745 195.279 229.766 196.133V200.023C229.766 200.799 229.865 201.417 230.062 201.875V202H228.547ZM226.148 200.898C226.602 200.898 227.031 200.781 227.438 200.547C227.844 200.312 228.138 200.008 228.32 199.633V197.898H227.188C225.417 197.898 224.531 198.417 224.531 199.453C224.531 199.906 224.682 200.26 224.984 200.516C225.286 200.771 225.674 200.898 226.148 200.898ZM234.664 198.398H233.609V202H232.156V193.547H233.609V197.125H234.555L237.398 193.547H239.148L235.805 197.609L239.43 202H237.594L234.664 198.398ZM246.953 194.719H244.117V202H242.672V194.719H239.891V193.547H246.953V194.719ZM251.242 202.156C250.096 202.156 249.164 201.781 248.445 201.031C247.727 200.276 247.367 199.268 247.367 198.008V197.742C247.367 196.904 247.526 196.156 247.844 195.5C248.167 194.839 248.615 194.323 249.188 193.953C249.766 193.578 250.391 193.391 251.062 193.391C252.161 193.391 253.016 193.753 253.625 194.477C254.234 195.201 254.539 196.237 254.539 197.586V198.188H248.812C248.833 199.021 249.076 199.695 249.539 200.211C250.008 200.721 250.602 200.977 251.32 200.977C251.831 200.977 252.263 200.872 252.617 200.664C252.971 200.456 253.281 200.18 253.547 199.836L254.43 200.523C253.721 201.612 252.659 202.156 251.242 202.156ZM251.062 194.578C250.479 194.578 249.99 194.792 249.594 195.219C249.198 195.641 248.953 196.234 248.859 197H253.094V196.891C253.052 196.156 252.854 195.589 252.5 195.188C252.146 194.781 251.667 194.578 251.062 194.578Z" fill="#295F5F"/>
</svg>
