<svg width="373" height="401" viewBox="0 0 373 401" fill="none" xmlns="http://www.w3.org/2000/svg">
<rect opacity="0" width="373" height="401" fill="white"/>
<path opacity="0.5" d="M122.078 202V190.625H125.797C127.031 190.625 127.958 190.88 128.578 191.391C129.203 191.901 129.516 192.656 129.516 193.656C129.516 194.188 129.365 194.659 129.062 195.07C128.76 195.477 128.349 195.792 127.828 196.016C128.443 196.188 128.927 196.516 129.281 197C129.641 197.479 129.82 198.052 129.82 198.719C129.82 199.74 129.49 200.542 128.828 201.125C128.167 201.708 127.232 202 126.023 202H122.078ZM123.578 196.68V200.773H126.055C126.753 200.773 127.302 200.594 127.703 200.234C128.109 199.87 128.312 199.37 128.312 198.734C128.312 197.365 127.568 196.68 126.078 196.68H123.578ZM123.578 195.477H125.844C126.5 195.477 127.023 195.312 127.414 194.984C127.81 194.656 128.008 194.211 128.008 193.648C128.008 193.023 127.826 192.57 127.461 192.289C127.096 192.003 126.542 191.859 125.797 191.859H123.578V195.477ZM137.289 193.547H138.734V202H137.289V195.836L133.391 202H131.945V193.547H133.391V199.719L137.289 193.547ZM140.984 200.82L141.484 200.203C142.047 199.474 142.367 198.38 142.445 196.922L142.578 193.547H148.023V200.82H149.109V204.484H147.664V202H141.766V204.484H140.32L140.328 200.82H140.984ZM142.695 200.82H146.578V194.883H143.977L143.891 196.898C143.802 198.581 143.404 199.888 142.695 200.82ZM157.453 198.328H156.438V202H154.992V198.328H153.977L151.609 202H149.781L152.805 197.625L150.07 193.547H151.82L154 197.047H154.992V193.547H156.438V197.047H157.422L159.617 193.547H161.367L158.625 197.633L161.648 202H159.82L157.453 198.328ZM166.312 202.156C165.167 202.156 164.234 201.781 163.516 201.031C162.797 200.276 162.438 199.268 162.438 198.008V197.742C162.438 196.904 162.596 196.156 162.914 195.5C163.237 194.839 163.685 194.323 164.258 193.953C164.836 193.578 165.461 193.391 166.133 193.391C167.232 193.391 168.086 193.753 168.695 194.477C169.305 195.201 169.609 196.237 169.609 197.586V198.188H163.883C163.904 199.021 164.146 199.695 164.609 200.211C165.078 200.721 165.672 200.977 166.391 200.977C166.901 200.977 167.333 200.872 167.688 200.664C168.042 200.456 168.352 200.18 168.617 199.836L169.5 200.523C168.792 201.612 167.729 202.156 166.312 202.156ZM166.133 194.578C165.549 194.578 165.06 194.792 164.664 195.219C164.268 195.641 164.023 196.234 163.93 197H168.164V196.891C168.122 196.156 167.924 195.589 167.57 195.188C167.216 194.781 166.737 194.578 166.133 194.578ZM177.477 194.719H174.641V202H173.195V194.719H170.414V193.547H177.477V194.719ZM189.352 196.977H184.578V202H183.078V190.625H190.125V191.859H184.578V195.75H189.352V196.977ZM196.648 202C196.565 201.833 196.497 201.536 196.445 201.109C195.773 201.807 194.971 202.156 194.039 202.156C193.206 202.156 192.521 201.922 191.984 201.453C191.453 200.979 191.188 200.38 191.188 199.656C191.188 198.776 191.521 198.094 192.188 197.609C192.859 197.12 193.802 196.875 195.016 196.875H196.422V196.211C196.422 195.706 196.271 195.305 195.969 195.008C195.667 194.706 195.221 194.555 194.633 194.555C194.117 194.555 193.685 194.685 193.336 194.945C192.987 195.206 192.812 195.521 192.812 195.891H191.359C191.359 195.469 191.508 195.062 191.805 194.672C192.107 194.276 192.513 193.964 193.023 193.734C193.539 193.505 194.104 193.391 194.719 193.391C195.693 193.391 196.456 193.635 197.008 194.125C197.56 194.609 197.846 195.279 197.867 196.133V200.023C197.867 200.799 197.966 201.417 198.164 201.875V202H196.648ZM194.25 200.898C194.703 200.898 195.133 200.781 195.539 200.547C195.945 200.312 196.24 200.008 196.422 199.633V197.898H195.289C193.518 197.898 192.633 198.417 192.633 199.453C192.633 199.906 192.784 200.26 193.086 200.516C193.388 200.771 193.776 200.898 194.25 200.898ZM203.523 200.977C204.039 200.977 204.49 200.82 204.875 200.508C205.26 200.195 205.474 199.805 205.516 199.336H206.883C206.857 199.82 206.69 200.281 206.383 200.719C206.076 201.156 205.664 201.505 205.148 201.766C204.638 202.026 204.096 202.156 203.523 202.156C202.372 202.156 201.456 201.773 200.773 201.008C200.096 200.237 199.758 199.185 199.758 197.852V197.609C199.758 196.786 199.909 196.055 200.211 195.414C200.513 194.773 200.945 194.276 201.508 193.922C202.076 193.568 202.745 193.391 203.516 193.391C204.464 193.391 205.25 193.674 205.875 194.242C206.505 194.81 206.841 195.547 206.883 196.453H205.516C205.474 195.906 205.266 195.458 204.891 195.109C204.521 194.755 204.062 194.578 203.516 194.578C202.781 194.578 202.211 194.844 201.805 195.375C201.404 195.901 201.203 196.664 201.203 197.664V197.938C201.203 198.911 201.404 199.661 201.805 200.188C202.206 200.714 202.779 200.977 203.523 200.977ZM212.016 202.156C210.87 202.156 209.938 201.781 209.219 201.031C208.5 200.276 208.141 199.268 208.141 198.008V197.742C208.141 196.904 208.299 196.156 208.617 195.5C208.94 194.839 209.388 194.323 209.961 193.953C210.539 193.578 211.164 193.391 211.836 193.391C212.935 193.391 213.789 193.753 214.398 194.477C215.008 195.201 215.312 196.237 215.312 197.586V198.188H209.586C209.607 199.021 209.849 199.695 210.312 200.211C210.781 200.721 211.375 200.977 212.094 200.977C212.604 200.977 213.036 200.872 213.391 200.664C213.745 200.456 214.055 200.18 214.32 199.836L215.203 200.523C214.495 201.612 213.432 202.156 212.016 202.156ZM211.836 194.578C211.253 194.578 210.763 194.792 210.367 195.219C209.971 195.641 209.727 196.234 209.633 197H213.867V196.891C213.826 196.156 213.628 195.589 213.273 195.188C212.919 194.781 212.44 194.578 211.836 194.578ZM224.148 197.867C224.148 199.159 223.852 200.198 223.258 200.984C222.664 201.766 221.867 202.156 220.867 202.156C219.799 202.156 218.974 201.779 218.391 201.023L218.32 202H216.992V190H218.438V194.477C219.021 193.753 219.826 193.391 220.852 193.391C221.878 193.391 222.682 193.779 223.266 194.555C223.854 195.331 224.148 196.393 224.148 197.742V197.867ZM222.703 197.703C222.703 196.719 222.513 195.958 222.133 195.422C221.753 194.885 221.206 194.617 220.492 194.617C219.539 194.617 218.854 195.06 218.438 195.945V199.602C218.88 200.487 219.57 200.93 220.508 200.93C221.201 200.93 221.74 200.661 222.125 200.125C222.51 199.589 222.703 198.781 222.703 197.703ZM225.594 197.695C225.594 196.867 225.755 196.122 226.078 195.461C226.406 194.799 226.859 194.289 227.438 193.93C228.021 193.57 228.685 193.391 229.43 193.391C230.581 193.391 231.51 193.789 232.219 194.586C232.932 195.383 233.289 196.443 233.289 197.766V197.867C233.289 198.69 233.13 199.43 232.812 200.086C232.5 200.737 232.049 201.245 231.461 201.609C230.878 201.974 230.206 202.156 229.445 202.156C228.299 202.156 227.37 201.758 226.656 200.961C225.948 200.164 225.594 199.109 225.594 197.797V197.695ZM227.047 197.867C227.047 198.805 227.263 199.557 227.695 200.125C228.133 200.693 228.716 200.977 229.445 200.977C230.18 200.977 230.763 200.69 231.195 200.117C231.628 199.539 231.844 198.732 231.844 197.695C231.844 196.768 231.622 196.018 231.18 195.445C230.742 194.867 230.159 194.578 229.43 194.578C228.716 194.578 228.141 194.862 227.703 195.43C227.266 195.997 227.047 196.81 227.047 197.867ZM234.719 197.695C234.719 196.867 234.88 196.122 235.203 195.461C235.531 194.799 235.984 194.289 236.562 193.93C237.146 193.57 237.81 193.391 238.555 193.391C239.706 193.391 240.635 193.789 241.344 194.586C242.057 195.383 242.414 196.443 242.414 197.766V197.867C242.414 198.69 242.255 199.43 241.938 200.086C241.625 200.737 241.174 201.245 240.586 201.609C240.003 201.974 239.331 202.156 238.57 202.156C237.424 202.156 236.495 201.758 235.781 200.961C235.073 200.164 234.719 199.109 234.719 197.797V197.695ZM236.172 197.867C236.172 198.805 236.388 199.557 236.82 200.125C237.258 200.693 237.841 200.977 238.57 200.977C239.305 200.977 239.888 200.69 240.32 200.117C240.753 199.539 240.969 198.732 240.969 197.695C240.969 196.768 240.747 196.018 240.305 195.445C239.867 194.867 239.284 194.578 238.555 194.578C237.841 194.578 237.266 194.862 236.828 195.43C236.391 195.997 236.172 196.81 236.172 197.867ZM246.586 198.086L245.68 199.031V202H244.234V190H245.68V197.258L246.453 196.328L249.086 193.547H250.844L247.555 197.078L251.227 202H249.531L246.586 198.086Z" fill="#295F5F"/>
</svg>
