<svg width="373" height="401" viewBox="0 0 373 401" fill="none" xmlns="http://www.w3.org/2000/svg">
<rect opacity="0" width="373" height="401" fill="white"/>
<path opacity="0.5" d="M120.719 202V190.625H124.438C125.672 190.625 126.599 190.88 127.219 191.391C127.844 191.901 128.156 192.656 128.156 193.656C128.156 194.188 128.005 194.659 127.703 195.07C127.401 195.477 126.99 195.792 126.469 196.016C127.083 196.188 127.568 196.516 127.922 197C128.281 197.479 128.461 198.052 128.461 198.719C128.461 199.74 128.13 200.542 127.469 201.125C126.807 201.708 125.872 202 124.664 202H120.719ZM122.219 196.68V200.773H124.695C125.393 200.773 125.943 200.594 126.344 200.234C126.75 199.87 126.953 199.37 126.953 198.734C126.953 197.365 126.208 196.68 124.719 196.68H122.219ZM122.219 195.477H124.484C125.141 195.477 125.664 195.312 126.055 194.984C126.451 194.656 126.648 194.211 126.648 193.648C126.648 193.023 126.466 192.57 126.102 192.289C125.737 192.003 125.182 191.859 124.438 191.859H122.219V195.477ZM135.93 193.547H137.375V202H135.93V195.836L132.031 202H130.586V193.547H132.031V199.719L135.93 193.547ZM139.625 200.82L140.125 200.203C140.688 199.474 141.008 198.38 141.086 196.922L141.219 193.547H146.664V200.82H147.75V204.484H146.305V202H140.406V204.484H138.961L138.969 200.82H139.625ZM141.336 200.82H145.219V194.883H142.617L142.531 196.898C142.443 198.581 142.044 199.888 141.336 200.82ZM156.094 198.328H155.078V202H153.633V198.328H152.617L150.25 202H148.422L151.445 197.625L148.711 193.547H150.461L152.641 197.047H153.633V193.547H155.078V197.047H156.062L158.258 193.547H160.008L157.266 197.633L160.289 202H158.461L156.094 198.328ZM164.953 202.156C163.807 202.156 162.875 201.781 162.156 201.031C161.438 200.276 161.078 199.268 161.078 198.008V197.742C161.078 196.904 161.237 196.156 161.555 195.5C161.878 194.839 162.326 194.323 162.898 193.953C163.477 193.578 164.102 193.391 164.773 193.391C165.872 193.391 166.727 193.753 167.336 194.477C167.945 195.201 168.25 196.237 168.25 197.586V198.188H162.523C162.544 199.021 162.786 199.695 163.25 200.211C163.719 200.721 164.312 200.977 165.031 200.977C165.542 200.977 165.974 200.872 166.328 200.664C166.682 200.456 166.992 200.18 167.258 199.836L168.141 200.523C167.432 201.612 166.37 202.156 164.953 202.156ZM164.773 194.578C164.19 194.578 163.701 194.792 163.305 195.219C162.909 195.641 162.664 196.234 162.57 197H166.805V196.891C166.763 196.156 166.565 195.589 166.211 195.188C165.857 194.781 165.378 194.578 164.773 194.578ZM176.117 194.719H173.281V202H171.836V194.719H169.055V193.547H176.117V194.719ZM183.328 202H181.828V190.625H183.328V202ZM187.219 193.547L187.266 194.609C187.911 193.797 188.755 193.391 189.797 193.391C191.583 193.391 192.484 194.398 192.5 196.414V202H191.055V196.406C191.049 195.797 190.909 195.346 190.633 195.055C190.362 194.763 189.938 194.617 189.359 194.617C188.891 194.617 188.479 194.742 188.125 194.992C187.771 195.242 187.495 195.57 187.297 195.977V202H185.852V193.547H187.219ZM199.602 199.758C199.602 199.367 199.453 199.065 199.156 198.852C198.865 198.633 198.352 198.445 197.617 198.289C196.888 198.133 196.307 197.945 195.875 197.727C195.448 197.508 195.13 197.247 194.922 196.945C194.719 196.643 194.617 196.284 194.617 195.867C194.617 195.174 194.909 194.589 195.492 194.109C196.081 193.63 196.831 193.391 197.742 193.391C198.701 193.391 199.477 193.638 200.07 194.133C200.669 194.628 200.969 195.26 200.969 196.031H199.516C199.516 195.635 199.346 195.294 199.008 195.008C198.674 194.721 198.253 194.578 197.742 194.578C197.216 194.578 196.805 194.693 196.508 194.922C196.211 195.151 196.062 195.451 196.062 195.82C196.062 196.169 196.201 196.432 196.477 196.609C196.753 196.786 197.25 196.956 197.969 197.117C198.693 197.279 199.279 197.471 199.727 197.695C200.174 197.919 200.505 198.19 200.719 198.508C200.938 198.82 201.047 199.203 201.047 199.656C201.047 200.411 200.745 201.018 200.141 201.477C199.536 201.93 198.753 202.156 197.789 202.156C197.112 202.156 196.513 202.036 195.992 201.797C195.471 201.557 195.062 201.224 194.766 200.797C194.474 200.365 194.328 199.898 194.328 199.398H195.773C195.799 199.883 195.992 200.268 196.352 200.555C196.716 200.836 197.195 200.977 197.789 200.977C198.336 200.977 198.773 200.867 199.102 200.648C199.435 200.424 199.602 200.128 199.602 199.758ZM204.891 191.5V193.547H206.469V194.664H204.891V199.906C204.891 200.245 204.961 200.5 205.102 200.672C205.242 200.839 205.482 200.922 205.82 200.922C205.987 200.922 206.216 200.891 206.508 200.828V202C206.128 202.104 205.758 202.156 205.398 202.156C204.753 202.156 204.266 201.961 203.938 201.57C203.609 201.18 203.445 200.625 203.445 199.906V194.664H201.906V193.547H203.445V191.5H204.891ZM213.383 202C213.299 201.833 213.232 201.536 213.18 201.109C212.508 201.807 211.706 202.156 210.773 202.156C209.94 202.156 209.255 201.922 208.719 201.453C208.188 200.979 207.922 200.38 207.922 199.656C207.922 198.776 208.255 198.094 208.922 197.609C209.594 197.12 210.536 196.875 211.75 196.875H213.156V196.211C213.156 195.706 213.005 195.305 212.703 195.008C212.401 194.706 211.956 194.555 211.367 194.555C210.852 194.555 210.419 194.685 210.07 194.945C209.721 195.206 209.547 195.521 209.547 195.891H208.094C208.094 195.469 208.242 195.062 208.539 194.672C208.841 194.276 209.247 193.964 209.758 193.734C210.273 193.505 210.839 193.391 211.453 193.391C212.427 193.391 213.19 193.635 213.742 194.125C214.294 194.609 214.581 195.279 214.602 196.133V200.023C214.602 200.799 214.701 201.417 214.898 201.875V202H213.383ZM210.984 200.898C211.438 200.898 211.867 200.781 212.273 200.547C212.68 200.312 212.974 200.008 213.156 199.633V197.898H212.023C210.253 197.898 209.367 198.417 209.367 199.453C209.367 199.906 209.518 200.26 209.82 200.516C210.122 200.771 210.51 200.898 210.984 200.898ZM216.523 197.703C216.523 196.385 216.828 195.339 217.438 194.562C218.047 193.781 218.854 193.391 219.859 193.391C220.891 193.391 221.695 193.755 222.273 194.484L222.344 193.547H223.664V201.797C223.664 202.891 223.339 203.753 222.688 204.383C222.042 205.013 221.172 205.328 220.078 205.328C219.469 205.328 218.872 205.198 218.289 204.938C217.706 204.677 217.26 204.32 216.953 203.867L217.703 203C218.323 203.766 219.081 204.148 219.977 204.148C220.68 204.148 221.227 203.951 221.617 203.555C222.013 203.159 222.211 202.602 222.211 201.883V201.156C221.633 201.823 220.844 202.156 219.844 202.156C218.854 202.156 218.052 201.758 217.438 200.961C216.828 200.164 216.523 199.078 216.523 197.703ZM217.977 197.867C217.977 198.82 218.172 199.57 218.562 200.117C218.953 200.659 219.5 200.93 220.203 200.93C221.115 200.93 221.784 200.516 222.211 199.688V195.828C221.768 195.021 221.104 194.617 220.219 194.617C219.516 194.617 218.966 194.891 218.57 195.438C218.174 195.984 217.977 196.794 217.977 197.867ZM229.938 194.844C229.719 194.807 229.482 194.789 229.227 194.789C228.279 194.789 227.635 195.193 227.297 196V202H225.852V193.547H227.258L227.281 194.523C227.755 193.768 228.427 193.391 229.297 193.391C229.578 193.391 229.792 193.427 229.938 193.5V194.844ZM236.18 202C236.096 201.833 236.029 201.536 235.977 201.109C235.305 201.807 234.503 202.156 233.57 202.156C232.737 202.156 232.052 201.922 231.516 201.453C230.984 200.979 230.719 200.38 230.719 199.656C230.719 198.776 231.052 198.094 231.719 197.609C232.391 197.12 233.333 196.875 234.547 196.875H235.953V196.211C235.953 195.706 235.802 195.305 235.5 195.008C235.198 194.706 234.753 194.555 234.164 194.555C233.648 194.555 233.216 194.685 232.867 194.945C232.518 195.206 232.344 195.521 232.344 195.891H230.891C230.891 195.469 231.039 195.062 231.336 194.672C231.638 194.276 232.044 193.964 232.555 193.734C233.07 193.505 233.635 193.391 234.25 193.391C235.224 193.391 235.987 193.635 236.539 194.125C237.091 194.609 237.378 195.279 237.398 196.133V200.023C237.398 200.799 237.497 201.417 237.695 201.875V202H236.18ZM233.781 200.898C234.234 200.898 234.664 200.781 235.07 200.547C235.477 200.312 235.771 200.008 235.953 199.633V197.898H234.82C233.049 197.898 232.164 198.417 232.164 199.453C232.164 199.906 232.315 200.26 232.617 200.516C232.919 200.771 233.307 200.898 233.781 200.898ZM241.023 193.547L241.062 194.484C241.682 193.755 242.518 193.391 243.57 193.391C244.753 193.391 245.557 193.844 245.984 194.75C246.266 194.344 246.63 194.016 247.078 193.766C247.531 193.516 248.065 193.391 248.68 193.391C250.534 193.391 251.477 194.372 251.508 196.336V202H250.062V196.422C250.062 195.818 249.924 195.367 249.648 195.07C249.372 194.768 248.909 194.617 248.258 194.617C247.721 194.617 247.276 194.779 246.922 195.102C246.568 195.419 246.362 195.849 246.305 196.391V202H244.852V196.461C244.852 195.232 244.25 194.617 243.047 194.617C242.099 194.617 241.451 195.021 241.102 195.828V202H239.656V193.547H241.023Z" fill="#295F5F"/>
</svg>
